<svg width="13099" height="7421" viewBox="0 0 13099 7421" fill="none" xmlns="http://www.w3.org/2000/svg">
<rect x="25" y="25" width="13049" height="7371" fill="white" stroke="black" stroke-width="50"/>
<rect x="25" y="25" width="13049" height="1662" fill="white" stroke="black" stroke-width="50"/>
<rect x="25" y="5734" width="13049" height="1662" fill="white" stroke="black" stroke-width="50"/>
<path d="M5146.38 948.531C5139.34 1008.69 5117.08 1055.17 5079.58 1087.98C5042.34 1120.54 4992.73 1136.81 4930.75 1136.81C4863.56 1136.81 4809.66 1112.72 4769.03 1064.55C4728.67 1016.37 4708.48 951.917 4708.48 871.188V816.5C4708.48 763.635 4717.86 717.151 4736.61 677.047C4755.62 636.943 4782.44 606.214 4817.08 584.859C4851.71 563.245 4891.82 552.438 4937.39 552.438C4997.81 552.438 5046.24 569.365 5082.7 603.219C5119.16 636.812 5140.39 683.427 5146.38 743.062H5070.98C5064.47 697.75 5050.28 664.938 5028.41 644.625C5006.79 624.312 4976.45 614.156 4937.39 614.156C4889.47 614.156 4851.84 631.865 4824.5 667.281C4797.42 702.698 4783.88 753.089 4783.88 818.453V873.531C4783.88 935.25 4796.77 984.339 4822.55 1020.8C4848.33 1057.26 4884.4 1075.48 4930.75 1075.48C4972.42 1075.48 5004.32 1066.11 5026.45 1047.36C5048.85 1028.35 5063.69 995.406 5070.98 948.531H5146.38ZM5498.72 1129C5494.55 1120.67 5491.17 1105.82 5488.56 1084.47C5454.97 1119.36 5414.86 1136.81 5368.25 1136.81C5326.58 1136.81 5292.34 1125.09 5265.52 1101.66C5238.95 1077.96 5225.67 1048.01 5225.67 1011.81C5225.67 967.802 5242.34 933.688 5275.67 909.469C5309.27 884.99 5356.4 872.75 5417.08 872.75H5487.39V839.547C5487.39 814.286 5479.84 794.234 5464.73 779.391C5449.63 764.286 5427.36 756.734 5397.94 756.734C5372.16 756.734 5350.54 763.245 5333.09 776.266C5315.65 789.286 5306.92 805.042 5306.92 823.531H5234.27C5234.27 802.438 5241.69 782.125 5256.53 762.594C5271.64 742.802 5291.95 727.177 5317.47 715.719C5343.25 704.26 5371.51 698.531 5402.23 698.531C5450.93 698.531 5489.08 710.771 5516.69 735.25C5544.29 759.469 5558.61 792.932 5559.66 835.641V1030.17C5559.66 1068.97 5564.6 1099.83 5574.5 1122.75V1129H5498.72ZM5378.8 1073.92C5401.45 1073.92 5422.94 1068.06 5443.25 1056.34C5463.56 1044.62 5478.28 1029.39 5487.39 1010.64V923.922H5430.75C5342.21 923.922 5297.94 949.833 5297.94 1001.66C5297.94 1024.31 5305.49 1042.02 5320.59 1054.78C5335.7 1067.54 5355.1 1073.92 5378.8 1073.92ZM6030.75 922.359C6030.75 986.943 6015.91 1038.9 5986.22 1078.22C5956.53 1117.28 5916.69 1136.81 5866.69 1136.81C5813.3 1136.81 5772.03 1117.93 5742.86 1080.17L5739.34 1129H5672.94V529H5745.2V752.828C5774.37 716.63 5814.6 698.531 5865.91 698.531C5917.21 698.531 5957.44 717.932 5986.61 756.734C6016.04 795.536 6030.75 848.661 6030.75 916.109V922.359ZM5958.48 914.156C5958.48 864.938 5948.98 826.917 5929.97 800.094C5910.96 773.271 5883.61 759.859 5847.94 759.859C5800.28 759.859 5766.04 781.995 5745.2 826.266V1009.08C5767.34 1053.35 5801.84 1075.48 5848.72 1075.48C5883.35 1075.48 5910.31 1062.07 5929.58 1035.25C5948.85 1008.43 5958.48 968.062 5958.48 914.156ZM6297.55 1136.81C6240.26 1136.81 6193.64 1118.06 6157.7 1080.56C6121.77 1042.8 6103.8 992.411 6103.8 929.391V916.109C6103.8 874.182 6111.74 836.812 6127.62 804C6143.77 770.927 6166.17 745.146 6194.81 726.656C6223.72 707.906 6254.97 698.531 6288.56 698.531C6343.51 698.531 6386.22 716.63 6416.69 752.828C6447.16 789.026 6462.39 840.849 6462.39 908.297V938.375H6176.06C6177.1 980.042 6189.21 1013.77 6212.39 1039.55C6235.83 1065.07 6265.52 1077.83 6301.45 1077.83C6326.97 1077.83 6348.59 1072.62 6366.3 1062.2C6384.01 1051.79 6399.5 1037.98 6412.78 1020.8L6456.92 1055.17C6421.51 1109.6 6368.38 1136.81 6297.55 1136.81ZM6288.56 757.906C6259.4 757.906 6234.92 768.583 6215.12 789.938C6195.33 811.031 6183.09 840.719 6178.41 879H6390.12V873.531C6388.04 836.812 6378.15 808.427 6360.44 788.375C6342.73 768.062 6318.77 757.906 6288.56 757.906ZM6715.91 1077.83C6741.69 1077.83 6764.21 1070.02 6783.48 1054.39C6802.76 1038.77 6813.43 1019.23 6815.52 995.797H6883.88C6882.57 1020.02 6874.24 1043.06 6858.88 1064.94C6843.51 1086.81 6822.94 1104.26 6797.16 1117.28C6771.64 1130.3 6744.55 1136.81 6715.91 1136.81C6658.35 1136.81 6612.52 1117.67 6578.41 1079.39C6544.55 1040.85 6527.62 988.245 6527.62 921.578V909.469C6527.62 868.323 6535.18 831.734 6550.28 799.703C6565.39 767.672 6587 742.802 6615.12 725.094C6643.51 707.385 6676.97 698.531 6715.52 698.531C6762.91 698.531 6802.23 712.724 6833.48 741.109C6864.99 769.495 6881.79 806.344 6883.88 851.656H6815.52C6813.43 824.312 6803.02 801.917 6784.27 784.469C6765.78 766.76 6742.86 757.906 6715.52 757.906C6678.8 757.906 6650.28 771.188 6629.97 797.75C6609.92 824.052 6599.89 862.203 6599.89 912.203V925.875C6599.89 974.573 6609.92 1012.07 6629.97 1038.38C6650.02 1064.68 6678.67 1077.83 6715.91 1077.83ZM6727.62 1132.52L6722.94 1152.83C6762.78 1159.86 6782.7 1182.39 6782.7 1220.41C6782.7 1245.67 6772.29 1265.59 6751.45 1280.17C6730.62 1295.02 6701.58 1302.44 6664.34 1302.44L6661.61 1260.64C6682.18 1260.64 6698.07 1257.26 6709.27 1250.48C6720.72 1243.71 6726.45 1234.21 6726.45 1221.97C6726.45 1210.51 6722.29 1202.05 6713.95 1196.58C6705.62 1191.11 6688.69 1187.2 6663.17 1184.86L6675.67 1132.52H6727.62ZM7226.06 1129C7221.9 1120.67 7218.51 1105.82 7215.91 1084.47C7182.31 1119.36 7142.21 1136.81 7095.59 1136.81C7053.93 1136.81 7019.68 1125.09 6992.86 1101.66C6966.3 1077.96 6953.02 1048.01 6953.02 1011.81C6953.02 967.802 6969.68 933.688 7003.02 909.469C7036.61 884.99 7083.74 872.75 7144.42 872.75H7214.73V839.547C7214.73 814.286 7207.18 794.234 7192.08 779.391C7176.97 764.286 7154.71 756.734 7125.28 756.734C7099.5 756.734 7077.89 763.245 7060.44 776.266C7042.99 789.286 7034.27 805.042 7034.27 823.531H6961.61C6961.61 802.438 6969.03 782.125 6983.88 762.594C6998.98 742.802 7019.29 727.177 7044.81 715.719C7070.59 704.26 7098.85 698.531 7129.58 698.531C7178.28 698.531 7216.43 710.771 7244.03 735.25C7271.64 759.469 7285.96 792.932 7287 835.641V1030.17C7287 1068.97 7291.95 1099.83 7301.84 1122.75V1129H7226.06ZM7106.14 1073.92C7128.8 1073.92 7150.28 1068.06 7170.59 1056.34C7190.91 1044.62 7205.62 1029.39 7214.73 1010.64V923.922H7158.09C7069.55 923.922 7025.28 949.833 7025.28 1001.66C7025.28 1024.31 7032.83 1042.02 7047.94 1054.78C7063.04 1067.54 7082.44 1073.92 7106.14 1073.92ZM7478.8 1129H7406.53V529H7478.8V1129ZM7667.08 757.516C7699.11 718.193 7740.78 698.531 7792.08 698.531C7881.4 698.531 7926.45 748.922 7927.23 849.703V1129H7854.97V849.312C7854.71 818.844 7847.68 796.318 7833.88 781.734C7820.33 767.151 7799.11 759.859 7770.2 759.859C7746.77 759.859 7726.19 766.109 7708.48 778.609C7690.78 791.109 7676.97 807.516 7667.08 827.828V1129H7594.81V529H7667.08V757.516ZM8016.3 913.766C8016.3 872.359 8024.37 835.12 8040.52 802.047C8056.92 768.974 8079.58 743.453 8108.48 725.484C8137.65 707.516 8170.85 698.531 8208.09 698.531C8265.65 698.531 8312.13 718.453 8347.55 758.297C8383.22 798.141 8401.06 851.135 8401.06 917.281V922.359C8401.06 963.505 8393.12 1000.48 8377.23 1033.3C8361.61 1065.85 8339.08 1091.24 8309.66 1109.47C8280.49 1127.7 8246.9 1136.81 8208.88 1136.81C8151.58 1136.81 8105.1 1116.89 8069.42 1077.05C8034.01 1037.2 8016.3 984.469 8016.3 918.844V913.766ZM8088.95 922.359C8088.95 969.234 8099.76 1006.86 8121.38 1035.25C8143.25 1063.64 8172.42 1077.83 8208.88 1077.83C8245.59 1077.83 8274.76 1063.51 8296.38 1034.86C8317.99 1005.95 8328.8 965.589 8328.8 913.766C8328.8 867.411 8317.73 829.911 8295.59 801.266C8273.72 772.359 8244.55 757.906 8208.09 757.906C8172.42 757.906 8143.64 772.099 8121.77 800.484C8099.89 828.87 8088.95 869.495 8088.95 922.359Z" fill="black"/>
<path d="M5289.38 3803.53C5282.34 3863.69 5260.08 3910.17 5222.58 3942.98C5185.34 3975.54 5135.73 3991.81 5073.75 3991.81C5006.56 3991.81 4952.66 3967.72 4912.03 3919.55C4871.67 3871.37 4851.48 3806.92 4851.48 3726.19V3671.5C4851.48 3618.64 4860.86 3572.15 4879.61 3532.05C4898.62 3491.94 4925.44 3461.21 4960.08 3439.86C4994.71 3418.24 5034.82 3407.44 5080.39 3407.44C5140.81 3407.44 5189.24 3424.36 5225.7 3458.22C5262.16 3491.81 5283.39 3538.43 5289.38 3598.06H5213.98C5207.47 3552.75 5193.28 3519.94 5171.41 3499.62C5149.79 3479.31 5119.45 3469.16 5080.39 3469.16C5032.47 3469.16 4994.84 3486.86 4967.5 3522.28C4940.42 3557.7 4926.88 3608.09 4926.88 3673.45V3728.53C4926.88 3790.25 4939.77 3839.34 4965.55 3875.8C4991.33 3912.26 5027.4 3930.48 5073.75 3930.48C5115.42 3930.48 5147.32 3921.11 5169.45 3902.36C5191.85 3883.35 5206.69 3850.41 5213.98 3803.53H5289.38ZM5361.64 3768.77C5361.64 3727.36 5369.71 3690.12 5385.86 3657.05C5402.27 3623.97 5424.92 3598.45 5453.83 3580.48C5482.99 3562.52 5516.2 3553.53 5553.44 3553.53C5610.99 3553.53 5657.47 3573.45 5692.89 3613.3C5728.57 3653.14 5746.41 3706.14 5746.41 3772.28V3777.36C5746.41 3818.51 5738.46 3855.48 5722.58 3888.3C5706.95 3920.85 5684.43 3946.24 5655 3964.47C5625.83 3982.7 5592.24 3991.81 5554.22 3991.81C5496.93 3991.81 5450.44 3971.89 5414.77 3932.05C5379.35 3892.2 5361.64 3839.47 5361.64 3773.84V3768.77ZM5434.3 3777.36C5434.3 3824.23 5445.1 3861.86 5466.72 3890.25C5488.59 3918.64 5517.76 3932.83 5554.22 3932.83C5590.94 3932.83 5620.1 3918.51 5641.72 3889.86C5663.33 3860.95 5674.14 3820.59 5674.14 3768.77C5674.14 3722.41 5663.07 3684.91 5640.94 3656.27C5619.06 3627.36 5589.9 3612.91 5553.44 3612.91C5517.76 3612.91 5488.98 3627.1 5467.11 3655.48C5445.23 3683.87 5434.3 3724.49 5434.3 3777.36ZM5905.39 3561.34L5907.73 3614.47C5940.03 3573.84 5982.21 3553.53 6034.3 3553.53C6123.62 3553.53 6168.67 3603.92 6169.45 3704.7V3984H6097.19V3704.31C6096.93 3673.84 6089.9 3651.32 6076.09 3636.73C6062.55 3622.15 6041.33 3614.86 6012.42 3614.86C5988.98 3614.86 5968.41 3621.11 5950.7 3633.61C5932.99 3646.11 5919.19 3662.52 5909.3 3682.83V3984H5837.03V3561.34H5905.39ZM6376.48 3459V3561.34H6455.39V3617.2H6376.48V3879.31C6376.48 3896.24 6380 3909 6387.03 3917.59C6394.06 3925.93 6406.04 3930.09 6422.97 3930.09C6431.3 3930.09 6442.76 3928.53 6457.34 3925.41V3984C6438.33 3989.21 6419.84 3991.81 6401.88 3991.81C6369.58 3991.81 6345.23 3982.05 6328.83 3962.52C6312.42 3942.98 6304.22 3915.25 6304.22 3879.31V3617.2H6227.27V3561.34H6304.22V3459H6376.48ZM6715.55 3991.81C6658.26 3991.81 6611.64 3973.06 6575.7 3935.56C6539.77 3897.8 6521.8 3847.41 6521.8 3784.39V3771.11C6521.8 3729.18 6529.74 3691.81 6545.62 3659C6561.77 3625.93 6584.17 3600.15 6612.81 3581.66C6641.72 3562.91 6672.97 3553.53 6706.56 3553.53C6761.51 3553.53 6804.22 3571.63 6834.69 3607.83C6865.16 3644.03 6880.39 3695.85 6880.39 3763.3V3793.38H6594.06C6595.1 3835.04 6607.21 3868.77 6630.39 3894.55C6653.83 3920.07 6683.52 3932.83 6719.45 3932.83C6744.97 3932.83 6766.59 3927.62 6784.3 3917.2C6802.01 3906.79 6817.5 3892.98 6830.78 3875.8L6874.92 3910.17C6839.51 3964.6 6786.38 3991.81 6715.55 3991.81ZM6706.56 3612.91C6677.4 3612.91 6652.92 3623.58 6633.12 3644.94C6613.33 3666.03 6601.09 3695.72 6596.41 3734H6808.12V3728.53C6806.04 3691.81 6796.15 3663.43 6778.44 3643.38C6760.73 3623.06 6736.77 3612.91 6706.56 3612.91ZM7225.31 3942.2C7197.19 3975.28 7155.91 3991.81 7101.48 3991.81C7056.43 3991.81 7022.06 3978.79 6998.36 3952.75C6974.92 3926.45 6963.07 3887.65 6962.81 3836.34V3561.34H7035.08V3834.39C7035.08 3898.45 7061.12 3930.48 7113.2 3930.48C7168.41 3930.48 7205.13 3909.91 7223.36 3868.77V3561.34H7295.62V3984H7226.88L7225.31 3942.2ZM7166.72 3384H7254.22L7149.53 3498.84H7091.33L7166.72 3384ZM7388.2 3769.16C7388.2 3704.31 7403.57 3652.23 7434.3 3612.91C7465.03 3573.32 7505.26 3553.53 7555 3553.53C7604.48 3553.53 7643.67 3570.46 7672.58 3604.31V3384H7744.84V3984H7678.44L7674.92 3938.69C7646.02 3974.1 7605.78 3991.81 7554.22 3991.81C7505.26 3991.81 7465.29 3971.76 7434.3 3931.66C7403.57 3891.55 7388.2 3839.21 7388.2 3774.62V3769.16ZM7460.47 3777.36C7460.47 3825.28 7470.36 3862.78 7490.16 3889.86C7509.95 3916.94 7537.29 3930.48 7572.19 3930.48C7618.02 3930.48 7651.48 3909.91 7672.58 3868.77V3674.62C7650.96 3634.78 7617.76 3614.86 7572.97 3614.86C7537.55 3614.86 7509.95 3628.53 7490.16 3655.88C7470.36 3683.22 7460.47 3723.71 7460.47 3777.36ZM7838.2 3768.77C7838.2 3727.36 7846.28 3690.12 7862.42 3657.05C7878.83 3623.97 7901.48 3598.45 7930.39 3580.48C7959.56 3562.52 7992.76 3553.53 8030 3553.53C8087.55 3553.53 8134.04 3573.45 8169.45 3613.3C8205.13 3653.14 8222.97 3706.14 8222.97 3772.28V3777.36C8222.97 3818.51 8215.03 3855.48 8199.14 3888.3C8183.52 3920.85 8160.99 3946.24 8131.56 3964.47C8102.4 3982.7 8068.8 3991.81 8030.78 3991.81C7973.49 3991.81 7927.01 3971.89 7891.33 3932.05C7855.91 3892.2 7838.2 3839.47 7838.2 3773.84V3768.77ZM7910.86 3777.36C7910.86 3824.23 7921.67 3861.86 7943.28 3890.25C7965.16 3918.64 7994.32 3932.83 8030.78 3932.83C8067.5 3932.83 8096.67 3918.51 8118.28 3889.86C8139.9 3860.95 8150.7 3820.59 8150.7 3768.77C8150.7 3722.41 8139.64 3684.91 8117.5 3656.27C8095.62 3627.36 8066.46 3612.91 8030 3612.91C7994.32 3612.91 7965.55 3627.1 7943.67 3655.48C7921.8 3683.87 7910.86 3724.49 7910.86 3777.36Z" fill="black"/>
<path d="M6036.69 6587.83H5798.02V6839H5723.02V6270.25H6075.36V6331.97H5798.02V6526.5H6036.69V6587.83ZM6126.14 6623.77C6126.14 6582.36 6134.21 6545.12 6150.36 6512.05C6166.77 6478.97 6189.42 6453.45 6218.33 6435.48C6247.49 6417.52 6280.7 6408.53 6317.94 6408.53C6375.49 6408.53 6421.97 6428.45 6457.39 6468.3C6493.07 6508.14 6510.91 6561.14 6510.91 6627.28V6632.36C6510.91 6673.51 6502.96 6710.48 6487.08 6743.3C6471.45 6775.85 6448.93 6801.24 6419.5 6819.47C6390.33 6837.7 6356.74 6846.81 6318.72 6846.81C6261.43 6846.81 6214.94 6826.89 6179.27 6787.05C6143.85 6747.2 6126.14 6694.47 6126.14 6628.84V6623.77ZM6198.8 6632.36C6198.8 6679.23 6209.6 6716.86 6231.22 6745.25C6253.09 6773.64 6282.26 6787.83 6318.72 6787.83C6355.44 6787.83 6384.6 6773.51 6406.22 6744.86C6427.83 6715.95 6438.64 6675.59 6438.64 6623.77C6438.64 6577.41 6427.57 6539.91 6405.44 6511.27C6383.56 6482.36 6354.4 6467.91 6317.94 6467.91C6282.26 6467.91 6253.48 6482.1 6231.61 6510.48C6209.73 6538.87 6198.8 6579.49 6198.8 6632.36ZM6582.39 6623.77C6582.39 6582.36 6590.46 6545.12 6606.61 6512.05C6623.02 6478.97 6645.67 6453.45 6674.58 6435.48C6703.74 6417.52 6736.95 6408.53 6774.19 6408.53C6831.74 6408.53 6878.22 6428.45 6913.64 6468.3C6949.32 6508.14 6967.16 6561.14 6967.16 6627.28V6632.36C6967.16 6673.51 6959.21 6710.48 6943.33 6743.3C6927.7 6775.85 6905.18 6801.24 6875.75 6819.47C6846.58 6837.7 6812.99 6846.81 6774.97 6846.81C6717.68 6846.81 6671.19 6826.89 6635.52 6787.05C6600.1 6747.2 6582.39 6694.47 6582.39 6628.84V6623.77ZM6655.05 6632.36C6655.05 6679.23 6665.85 6716.86 6687.47 6745.25C6709.34 6773.64 6738.51 6787.83 6774.97 6787.83C6811.69 6787.83 6840.85 6773.51 6862.47 6744.86C6884.08 6715.95 6894.89 6675.59 6894.89 6623.77C6894.89 6577.41 6883.82 6539.91 6861.69 6511.27C6839.81 6482.36 6810.65 6467.91 6774.19 6467.91C6738.51 6467.91 6709.73 6482.1 6687.86 6510.48C6665.98 6538.87 6655.05 6579.49 6655.05 6632.36ZM7155.83 6314V6416.34H7234.73V6472.2H7155.83V6734.31C7155.83 6751.24 7159.34 6764 7166.38 6772.59C7173.41 6780.93 7185.39 6785.09 7202.31 6785.09C7210.65 6785.09 7222.1 6783.53 7236.69 6780.41V6839C7217.68 6844.21 7199.19 6846.81 7181.22 6846.81C7148.93 6846.81 7124.58 6837.05 7108.17 6817.52C7091.77 6797.98 7083.56 6770.25 7083.56 6734.31V6472.2H7006.61V6416.34H7083.56V6314H7155.83ZM7494.89 6846.81C7437.6 6846.81 7390.98 6828.06 7355.05 6790.56C7319.11 6752.8 7301.14 6702.41 7301.14 6639.39V6626.11C7301.14 6584.18 7309.08 6546.81 7324.97 6514C7341.11 6480.93 7363.51 6455.15 7392.16 6436.66C7421.06 6417.91 7452.31 6408.53 7485.91 6408.53C7540.85 6408.53 7583.56 6426.63 7614.03 6462.83C7644.5 6499.03 7659.73 6550.85 7659.73 6618.3V6648.38H7373.41C7374.45 6690.04 7386.56 6723.77 7409.73 6749.55C7433.17 6775.07 7462.86 6787.83 7498.8 6787.83C7524.32 6787.83 7545.93 6782.62 7563.64 6772.2C7581.35 6761.79 7596.84 6747.98 7610.12 6730.8L7654.27 6765.17C7618.85 6819.6 7565.72 6846.81 7494.89 6846.81ZM7485.91 6467.91C7456.74 6467.91 7432.26 6478.58 7412.47 6499.94C7392.68 6521.03 7380.44 6550.72 7375.75 6589H7587.47V6583.53C7585.39 6546.81 7575.49 6518.43 7557.78 6498.38C7540.07 6478.06 7516.11 6467.91 7485.91 6467.91ZM7948.02 6481.19C7937.08 6479.36 7925.23 6478.45 7912.47 6478.45C7865.07 6478.45 7832.91 6498.64 7815.98 6539V6839H7743.72V6416.34H7814.03L7815.2 6465.17C7838.9 6427.41 7872.49 6408.53 7915.98 6408.53C7930.05 6408.53 7940.72 6410.35 7948.02 6414V6481.19Z" fill="black"/>
</svg>
