<svg width="13099" height="7421" viewBox="0 0 13099 7421" fill="none" xmlns="http://www.w3.org/2000/svg">
<rect x="25" y="25" width="13049" height="7371" fill="white" stroke="black" stroke-width="50"/>
<rect x="672" y="593" width="3284" height="6186" rx="30" fill="white" stroke="black" stroke-width="50"/>
<rect x="9436" y="568" width="2992" height="1428" rx="55" fill="black"/>
<rect x="9436" y="2804" width="2992" height="1428" rx="55" fill="#79589F"/>
<rect x="9436" y="5424" width="2992" height="1428" rx="55" fill="#5DAC52"/>
<path d="M9939.11 6070V5870.94H10004.2C10025.8 5870.94 10042 5875.4 10052.9 5884.34C10063.8 5893.27 10069.3 5906.48 10069.3 5923.98C10069.3 5933.28 10066.6 5941.53 10061.3 5948.73C10056 5955.84 10048.8 5961.35 10039.7 5965.27C10050.5 5968.28 10059 5974.02 10065.2 5982.5C10071.4 5990.89 10074.6 6000.91 10074.6 6012.58C10074.6 6030.44 10068.8 6044.48 10057.2 6054.69C10045.7 6064.9 10029.3 6070 10008.1 6070H9939.11ZM9965.36 5976.89V6048.54H10008.7C10020.9 6048.54 10030.5 6045.39 10037.5 6039.1C10044.7 6032.72 10048.2 6023.97 10048.2 6012.85C10048.2 5988.88 10035.2 5976.89 10009.1 5976.89H9965.36ZM9965.36 5955.84H10005C10016.5 5955.84 10025.6 5952.97 10032.5 5947.23C10039.4 5941.48 10042.9 5933.69 10042.9 5923.85C10042.9 5912.91 10039.7 5904.98 10033.3 5900.06C10026.9 5895.05 10017.2 5892.54 10004.2 5892.54H9965.36V5955.84ZM10200.9 6070C10199.5 6067.08 10198.3 6061.89 10197.4 6054.41C10185.6 6066.63 10171.6 6072.73 10155.3 6072.73C10140.7 6072.73 10128.7 6068.63 10119.3 6060.43C10110 6052.14 10105.4 6041.65 10105.4 6028.98C10105.4 6013.58 10111.2 6001.64 10122.9 5993.16C10134.6 5984.6 10151.1 5980.31 10172.3 5980.31H10197V5968.69C10197 5959.85 10194.3 5952.83 10189 5947.64C10183.7 5942.35 10175.9 5939.71 10165.6 5939.71C10156.6 5939.71 10149.1 5941.99 10143 5946.54C10136.8 5951.1 10133.8 5956.61 10133.8 5963.09H10108.4C10108.4 5955.7 10111 5948.59 10116.2 5941.76C10121.4 5934.83 10128.6 5929.36 10137.5 5925.35C10146.5 5921.34 10156.4 5919.34 10167.2 5919.34C10184.2 5919.34 10197.5 5923.62 10207.2 5932.19C10216.9 5940.66 10221.9 5952.38 10222.2 5967.32V6035.41C10222.2 6048.99 10224 6059.79 10227.4 6067.81V6070H10200.9ZM10158.9 6050.72C10166.9 6050.72 10174.4 6048.67 10181.5 6044.57C10188.6 6040.47 10193.8 6035.14 10197 6028.57V5998.22H10177.1C10146.1 5998.22 10130.6 6007.29 10130.6 6025.43C10130.6 6033.36 10133.3 6039.56 10138.6 6044.02C10143.9 6048.49 10150.7 6050.72 10158.9 6050.72ZM10285.8 5922.07L10286.6 5940.66C10297.9 5926.45 10312.7 5919.34 10330.9 5919.34C10362.2 5919.34 10378 5936.97 10378.2 5972.25V6070H10353V5972.11C10352.9 5961.45 10350.4 5953.56 10345.6 5948.46C10340.8 5943.35 10333.4 5940.8 10323.3 5940.8C10315.1 5940.8 10307.9 5942.99 10301.7 5947.36C10295.5 5951.74 10290.7 5957.48 10287.2 5964.59V6070H10261.9V5922.07H10285.8ZM10475.7 6052.09C10484.8 6052.09 10492.6 6049.36 10499.4 6043.89C10506.1 6038.42 10509.9 6031.58 10510.6 6023.38H10534.5C10534.1 6031.86 10531.1 6039.92 10525.8 6047.58C10520.4 6055.23 10513.2 6061.34 10504.2 6065.9C10495.2 6070.46 10485.8 6072.73 10475.7 6072.73C10455.6 6072.73 10439.5 6066.04 10427.6 6052.64C10415.8 6039.15 10409.8 6020.74 10409.8 5997.4V5993.16C10409.8 5978.76 10412.5 5965.96 10417.8 5954.75C10423 5943.54 10430.6 5934.83 10440.5 5928.63C10450.4 5922.43 10462.1 5919.34 10475.6 5919.34C10492.2 5919.34 10505.9 5924.3 10516.9 5934.24C10527.9 5944.17 10533.8 5957.07 10534.5 5972.93H10510.6C10509.9 5963.36 10506.2 5955.52 10499.7 5949.41C10493.2 5943.22 10485.2 5940.12 10475.6 5940.12C10462.7 5940.12 10452.8 5944.77 10445.6 5954.06C10438.6 5963.27 10435.1 5976.62 10435.1 5994.12V5998.91C10435.1 6015.95 10438.6 6029.08 10445.6 6038.28C10452.7 6047.49 10462.7 6052.09 10475.7 6052.09ZM10556.3 5994.67C10556.3 5980.18 10559.1 5967.14 10564.7 5955.57C10570.5 5943.99 10578.4 5935.06 10588.5 5928.77C10598.7 5922.48 10610.3 5919.34 10623.4 5919.34C10643.5 5919.34 10659.8 5926.31 10672.2 5940.25C10684.7 5954.2 10690.9 5972.75 10690.9 5995.9V5997.68C10690.9 6012.08 10688.1 6025.02 10682.6 6036.5C10677.1 6047.9 10669.2 6056.78 10658.9 6063.16C10648.7 6069.54 10637 6072.73 10623.7 6072.73C10603.6 6072.73 10587.3 6065.76 10574.8 6051.82C10562.5 6037.87 10556.3 6019.41 10556.3 5996.45V5994.67ZM10581.7 5997.68C10581.7 6014.08 10585.5 6027.25 10593 6037.19C10600.7 6047.12 10610.9 6052.09 10623.7 6052.09C10636.5 6052.09 10646.7 6047.08 10654.3 6037.05C10661.8 6026.93 10665.6 6012.81 10665.6 5994.67C10665.6 5978.44 10661.8 5965.32 10654 5955.29C10646.4 5945.18 10636.1 5940.12 10623.4 5940.12C10610.9 5940.12 10600.8 5945.08 10593.2 5955.02C10585.5 5964.95 10581.7 5979.17 10581.7 5997.68ZM10785.9 5994.8C10785.9 5972.11 10791.3 5953.88 10802.1 5940.12C10812.8 5926.26 10826.9 5919.34 10844.3 5919.34C10861.6 5919.34 10875.4 5925.26 10885.5 5937.11V5860H10910.8V6070H10887.5L10886.3 6054.14C10876.2 6066.54 10862.1 6072.73 10844 6072.73C10826.9 6072.73 10812.9 6065.72 10802.1 6051.68C10791.3 6037.64 10785.9 6019.32 10785.9 5996.72V5994.8ZM10811.2 5997.68C10811.2 6014.45 10814.7 6027.57 10821.6 6037.05C10828.6 6046.53 10838.1 6051.27 10850.3 6051.27C10866.4 6051.27 10878.1 6044.07 10885.5 6029.67V5961.72C10877.9 5947.77 10866.3 5940.8 10850.6 5940.8C10838.2 5940.8 10828.6 5945.59 10821.6 5955.16C10814.7 5964.73 10811.2 5978.9 10811.2 5997.68ZM11011.5 6072.73C10991.5 6072.73 10975.2 6066.17 10962.6 6053.05C10950 6039.83 10943.7 6022.19 10943.7 6000.14V5995.49C10943.7 5980.81 10946.5 5967.73 10952.1 5956.25C10957.7 5944.67 10965.5 5935.65 10975.6 5929.18C10985.7 5922.62 10996.6 5919.34 11008.4 5919.34C11027.6 5919.34 11042.6 5925.67 11053.2 5938.34C11063.9 5951.01 11069.2 5969.15 11069.2 5992.75V6003.28H10969C10969.4 6017.86 10973.6 6029.67 10981.7 6038.69C10989.9 6047.62 11000.3 6052.09 11012.9 6052.09C11021.8 6052.09 11029.4 6050.27 11035.6 6046.62C11041.8 6042.98 11047.2 6038.14 11051.9 6032.13L11067.3 6044.16C11054.9 6063.21 11036.3 6072.73 11011.5 6072.73ZM11008.4 5940.12C10998.2 5940.12 10989.6 5943.85 10982.7 5951.33C10975.8 5958.71 10971.5 5969.1 10969.8 5982.5H11043.9V5980.59C11043.2 5967.73 11039.7 5957.8 11033.5 5950.78C11027.3 5943.67 11019 5940.12 11008.4 5940.12ZM11172 6070V5870.94H11228.2C11245.5 5870.94 11260.9 5874.77 11274.2 5882.42C11287.5 5890.08 11297.7 5900.97 11304.9 5915.1C11312.2 5929.23 11315.9 5945.45 11316 5963.77V5976.48C11316 5995.26 11312.4 6011.71 11305.1 6025.84C11297.9 6039.97 11287.5 6050.81 11274 6058.38C11260.6 6065.94 11245 6069.82 11227.1 6070H11172ZM11198.3 5892.54V6048.54H11225.9C11246.1 6048.54 11261.9 6042.25 11273.1 6029.67C11284.4 6017.09 11290 5999.18 11290 5975.94V5964.32C11290 5941.71 11284.7 5924.17 11274 5911.68C11263.5 5899.1 11248.4 5892.72 11228.9 5892.54H11198.3ZM11443.1 6070C11441.7 6067.08 11440.5 6061.89 11439.6 6054.41C11427.8 6066.63 11413.8 6072.73 11397.5 6072.73C11382.9 6072.73 11370.9 6068.63 11361.5 6060.43C11352.2 6052.14 11347.6 6041.65 11347.6 6028.98C11347.6 6013.58 11353.4 6001.64 11365.1 5993.16C11376.8 5984.6 11393.3 5980.31 11414.6 5980.31H11439.2V5968.69C11439.2 5959.85 11436.5 5952.83 11431.3 5947.64C11426 5942.35 11418.2 5939.71 11407.9 5939.71C11398.9 5939.71 11391.3 5941.99 11385.2 5946.54C11379.1 5951.1 11376 5956.61 11376 5963.09H11350.6C11350.6 5955.7 11353.2 5948.59 11358.4 5941.76C11363.7 5934.83 11370.8 5929.36 11379.7 5925.35C11388.7 5921.34 11398.6 5919.34 11409.4 5919.34C11426.4 5919.34 11439.8 5923.62 11449.4 5932.19C11459.1 5940.66 11464.1 5952.38 11464.5 5967.32V6035.41C11464.5 6048.99 11466.2 6059.79 11469.7 6067.81V6070H11443.1ZM11401.2 6050.72C11409.1 6050.72 11416.6 6048.67 11423.7 6044.57C11430.8 6040.47 11436 6035.14 11439.2 6028.57V5998.22H11419.4C11388.4 5998.22 11372.9 6007.29 11372.9 6025.43C11372.9 6033.36 11375.5 6039.56 11380.8 6044.02C11386.1 6048.49 11392.9 6050.72 11401.2 6050.72ZM11498 5994.8C11498 5972.11 11503.4 5953.88 11514.1 5940.12C11524.9 5926.26 11538.9 5919.34 11556.4 5919.34C11573.7 5919.34 11587.4 5925.26 11597.5 5937.11V5860H11622.8V6070H11599.6L11598.3 6054.14C11588.2 6066.54 11574.1 6072.73 11556.1 6072.73C11538.9 6072.73 11525 6065.72 11514.1 6051.68C11503.4 6037.64 11498 6019.32 11498 5996.72V5994.8ZM11523.3 5997.68C11523.3 6014.45 11526.7 6027.57 11533.7 6037.05C11540.6 6046.53 11550.2 6051.27 11562.4 6051.27C11578.4 6051.27 11590.1 6044.07 11597.5 6029.67V5961.72C11589.9 5947.77 11578.3 5940.8 11562.6 5940.8C11550.2 5940.8 11540.6 5945.59 11533.7 5955.16C11526.7 5964.73 11523.3 5978.9 11523.3 5997.68ZM11655.5 5994.67C11655.5 5980.18 11658.3 5967.14 11663.9 5955.57C11669.7 5943.99 11677.6 5935.06 11687.7 5928.77C11697.9 5922.48 11709.6 5919.34 11722.6 5919.34C11742.7 5919.34 11759 5926.31 11771.4 5940.25C11783.9 5954.2 11790.1 5972.75 11790.1 5995.9V5997.68C11790.1 6012.08 11787.4 6025.02 11781.8 6036.5C11776.3 6047.9 11768.4 6056.78 11758.1 6063.16C11747.9 6069.54 11736.2 6072.73 11722.9 6072.73C11702.8 6072.73 11686.6 6065.76 11674.1 6051.82C11661.7 6037.87 11655.5 6019.41 11655.5 5996.45V5994.67ZM11680.9 5997.68C11680.9 6014.08 11684.7 6027.25 11692.2 6037.19C11699.9 6047.12 11710.1 6052.09 11722.9 6052.09C11735.7 6052.09 11745.9 6047.08 11753.5 6037.05C11761.1 6026.93 11764.8 6012.81 11764.8 5994.67C11764.8 5978.44 11761 5965.32 11753.2 5955.29C11745.6 5945.18 11735.4 5940.12 11722.6 5940.12C11710.1 5940.12 11700 5945.08 11692.4 5955.02C11684.7 5964.95 11680.9 5979.17 11680.9 5997.68ZM11908 6030.76C11908 6023.93 11905.4 6018.64 11900.2 6014.9C11895.1 6011.07 11886.1 6007.79 11873.3 6005.06C11860.5 6002.32 11850.3 5999.04 11842.8 5995.21C11835.3 5991.39 11829.7 5986.83 11826.1 5981.54C11822.5 5976.26 11820.8 5969.97 11820.8 5962.68C11820.8 5950.55 11825.9 5940.3 11836.1 5931.91C11846.4 5923.53 11859.5 5919.34 11875.5 5919.34C11892.2 5919.34 11905.8 5923.67 11916.2 5932.32C11926.7 5940.98 11931.9 5952.06 11931.9 5965.55H11906.5C11906.5 5958.62 11903.5 5952.65 11897.6 5947.64C11891.8 5942.62 11884.4 5940.12 11875.5 5940.12C11866.2 5940.12 11859 5942.12 11853.9 5946.13C11848.7 5950.14 11846.1 5955.38 11846.1 5961.86C11846.1 5967.96 11848.5 5972.57 11853.3 5975.66C11858.1 5978.76 11866.8 5981.73 11879.4 5984.55C11892.1 5987.38 11902.3 5990.75 11910.2 5994.67C11918 5998.59 11923.8 6003.33 11927.5 6008.89C11931.4 6014.36 11933.3 6021.05 11933.3 6028.98C11933.3 6042.2 11928 6052.82 11917.4 6060.84C11906.9 6068.77 11893.1 6072.73 11876.3 6072.73C11864.4 6072.73 11853.9 6070.64 11844.8 6066.45C11835.7 6062.25 11828.6 6056.42 11823.4 6048.95C11818.3 6041.38 11815.7 6033.22 11815.7 6024.47H11841C11841.5 6032.95 11844.8 6039.69 11851.1 6044.71C11857.5 6049.63 11865.9 6052.09 11876.3 6052.09C11885.8 6052.09 11893.5 6050.18 11899.2 6046.35C11905.1 6042.43 11908 6037.23 11908 6030.76ZM10265.6 6323.76H10198.9V6303.12H10265.6V6323.76ZM10328.2 6198.94L10393.3 6361.36L10458.4 6198.94H10492.4V6398H10466.2V6320.48L10468.6 6236.81L10403.3 6398H10383.2L10318 6237.22L10320.6 6320.48V6398H10294.3V6198.94H10328.2ZM10528.1 6322.67C10528.1 6308.18 10530.9 6295.14 10536.6 6283.57C10542.3 6271.99 10550.2 6263.06 10560.4 6256.77C10570.6 6250.48 10582.2 6247.34 10595.2 6247.34C10615.4 6247.34 10631.6 6254.31 10644 6268.25C10656.5 6282.2 10662.8 6300.75 10662.8 6323.9V6325.68C10662.8 6340.08 10660 6353.02 10654.4 6364.5C10648.9 6375.9 10641.1 6384.78 10630.8 6391.16C10620.6 6397.54 10608.8 6400.73 10595.5 6400.73C10575.4 6400.73 10559.2 6393.76 10546.7 6379.82C10534.3 6365.87 10528.1 6347.41 10528.1 6324.45V6322.67ZM10553.5 6325.68C10553.5 6342.08 10557.3 6355.25 10564.9 6365.19C10572.5 6375.12 10582.7 6380.09 10595.5 6380.09C10608.3 6380.09 10618.6 6375.08 10626.1 6365.05C10633.7 6354.93 10637.5 6340.81 10637.5 6322.67C10637.5 6306.44 10633.6 6293.32 10625.8 6283.29C10618.2 6273.18 10608 6268.12 10595.2 6268.12C10582.7 6268.12 10572.7 6273.08 10565 6283.02C10557.3 6292.95 10553.5 6307.17 10553.5 6325.68ZM10718.4 6250.07L10719.2 6268.66C10730.5 6254.45 10745.3 6247.34 10763.5 6247.34C10794.8 6247.34 10810.6 6264.97 10810.8 6300.25V6398H10785.5V6300.11C10785.4 6289.45 10783 6281.56 10778.1 6276.46C10773.4 6271.35 10766 6268.8 10755.9 6268.8C10747.7 6268.8 10740.5 6270.99 10734.3 6275.36C10728.1 6279.74 10723.2 6285.48 10719.8 6292.59V6398H10694.5V6250.07H10718.4ZM10842.8 6322.8C10842.8 6300.11 10848.2 6281.88 10858.9 6268.12C10869.7 6254.26 10883.8 6247.34 10901.2 6247.34C10918.5 6247.34 10932.2 6253.26 10942.3 6265.11V6188H10967.6V6398H10944.4L10943.2 6382.14C10933.1 6394.54 10919 6400.73 10900.9 6400.73C10883.8 6400.73 10869.8 6393.72 10858.9 6379.68C10848.2 6365.64 10842.8 6347.32 10842.8 6324.72V6322.8ZM10868.1 6325.68C10868.1 6342.45 10871.6 6355.57 10878.5 6365.05C10885.4 6374.53 10895 6379.27 10907.2 6379.27C10923.3 6379.27 10935 6372.07 10942.3 6357.67V6289.72C10934.8 6275.77 10923.2 6268.8 10907.5 6268.8C10895.1 6268.8 10885.4 6273.59 10878.5 6283.16C10871.6 6292.73 10868.1 6306.9 10868.1 6325.68ZM11000.3 6322.67C11000.3 6308.18 11003.1 6295.14 11008.8 6283.57C11014.5 6271.99 11022.5 6263.06 11032.6 6256.77C11042.8 6250.48 11054.4 6247.34 11067.4 6247.34C11087.6 6247.34 11103.9 6254.31 11116.3 6268.25C11128.7 6282.2 11135 6300.75 11135 6323.9V6325.68C11135 6340.08 11132.2 6353.02 11126.6 6364.5C11121.2 6375.9 11113.3 6384.78 11103 6391.16C11092.8 6397.54 11081 6400.73 11067.7 6400.73C11047.7 6400.73 11031.4 6393.76 11018.9 6379.82C11006.5 6365.87 11000.3 6347.41 11000.3 6324.45V6322.67ZM11025.7 6325.68C11025.7 6342.08 11029.5 6355.25 11037.1 6365.19C11044.8 6375.12 11055 6380.09 11067.7 6380.09C11080.6 6380.09 11090.8 6375.08 11098.3 6365.05C11105.9 6354.93 11109.7 6340.81 11109.7 6322.67C11109.7 6306.44 11105.8 6293.32 11098.1 6283.29C11090.4 6273.18 11080.2 6268.12 11067.4 6268.12C11055 6268.12 11044.9 6273.08 11037.2 6283.02C11029.6 6292.95 11025.7 6307.17 11025.7 6325.68ZM11170.7 6398V6198.94H11226.9C11244.2 6198.94 11259.5 6202.77 11272.8 6210.42C11286.1 6218.08 11296.4 6228.97 11303.6 6243.1C11310.9 6257.23 11314.5 6273.45 11314.6 6291.77V6304.48C11314.6 6323.26 11311 6339.71 11303.7 6353.84C11296.5 6367.97 11286.1 6378.81 11272.7 6386.38C11259.3 6393.94 11243.6 6397.82 11225.8 6398H11170.7ZM11196.9 6220.54V6376.54H11224.5C11244.8 6376.54 11260.5 6370.25 11271.7 6357.67C11283 6345.09 11288.7 6327.18 11288.7 6303.94V6292.32C11288.7 6269.71 11283.3 6252.17 11272.7 6239.68C11262.1 6227.1 11247 6220.72 11227.5 6220.54H11196.9ZM11354.4 6398V6198.94H11419.5C11441.1 6198.94 11457.3 6203.4 11468.2 6212.34C11479.1 6221.27 11484.6 6234.48 11484.6 6251.98C11484.6 6261.28 11481.9 6269.53 11476.6 6276.73C11471.4 6283.84 11464.2 6289.35 11455 6293.27C11465.8 6296.28 11474.3 6302.02 11480.5 6310.5C11486.8 6318.89 11489.9 6328.91 11489.9 6340.58C11489.9 6358.44 11484.1 6372.48 11472.5 6382.69C11461 6392.9 11444.6 6398 11423.5 6398H11354.4ZM11380.7 6304.89V6376.54H11424C11436.2 6376.54 11445.8 6373.39 11452.9 6367.1C11460 6360.72 11463.5 6351.97 11463.5 6340.85C11463.5 6316.88 11450.5 6304.89 11424.4 6304.89H11380.7ZM11380.7 6283.84H11420.3C11431.8 6283.84 11441 6280.97 11447.8 6275.23C11454.7 6269.48 11458.2 6261.69 11458.2 6251.85C11458.2 6240.91 11455 6232.98 11448.6 6228.06C11442.2 6223.05 11432.5 6220.54 11419.5 6220.54H11380.7V6283.84Z" fill="white"/>
<path d="M1598.56 1814H1560.87L1417.7 1594.86V1814H1380.01V1529.62H1417.7L1561.26 1749.74V1529.62H1598.56V1814ZM1789.97 1814C1787.89 1809.83 1786.19 1802.41 1784.89 1791.73C1768.09 1809.18 1748.04 1817.91 1724.73 1817.91C1703.9 1817.91 1686.78 1812.05 1673.37 1800.33C1660.09 1788.48 1653.45 1773.51 1653.45 1755.41C1653.45 1733.4 1661.78 1716.34 1678.45 1704.23C1695.24 1691.99 1718.81 1685.88 1749.15 1685.88H1784.3V1669.27C1784.3 1656.64 1780.53 1646.62 1772.98 1639.2C1765.42 1631.64 1754.29 1627.87 1739.58 1627.87C1726.69 1627.87 1715.88 1631.12 1707.16 1637.63C1698.43 1644.14 1694.07 1652.02 1694.07 1661.27H1657.74C1657.74 1650.72 1661.45 1640.56 1668.88 1630.8C1676.43 1620.9 1686.58 1613.09 1699.34 1607.36C1712.23 1601.63 1726.36 1598.77 1741.73 1598.77C1766.08 1598.77 1785.15 1604.89 1798.95 1617.12C1812.76 1629.23 1819.92 1645.97 1820.44 1667.32V1764.59C1820.44 1783.99 1822.91 1799.42 1827.86 1810.88V1814H1789.97ZM1730.01 1786.46C1741.34 1786.46 1752.08 1783.53 1762.23 1777.67C1772.39 1771.81 1779.75 1764.2 1784.3 1754.82V1711.46H1755.98C1711.71 1711.46 1689.58 1724.42 1689.58 1750.33C1689.58 1761.66 1693.35 1770.51 1700.91 1776.89C1708.46 1783.27 1718.16 1786.46 1730.01 1786.46ZM1943.68 1764.98L1996.02 1602.67H2032.94L1957.16 1814H1929.62L1853.05 1602.67H1889.97L1943.68 1764.98ZM2152.66 1817.91C2124.02 1817.91 2100.71 1808.53 2082.74 1789.78C2064.77 1770.9 2055.79 1745.71 2055.79 1714.2V1707.55C2055.79 1686.59 2059.76 1667.91 2067.7 1651.5C2075.78 1634.96 2086.97 1622.07 2101.3 1612.83C2115.75 1603.45 2131.38 1598.77 2148.17 1598.77C2175.65 1598.77 2197 1607.82 2212.23 1625.91C2227.47 1644.01 2235.09 1669.92 2235.09 1703.65V1718.69H2091.92C2092.44 1739.52 2098.5 1756.38 2110.09 1769.27C2121.8 1782.03 2136.65 1788.41 2154.62 1788.41C2167.38 1788.41 2178.18 1785.81 2187.04 1780.6C2195.89 1775.39 2203.64 1768.49 2210.28 1759.9L2232.35 1777.09C2214.64 1804.3 2188.08 1817.91 2152.66 1817.91ZM2148.17 1628.45C2133.59 1628.45 2121.35 1633.79 2111.45 1644.47C2101.56 1655.02 2095.44 1669.86 2093.09 1689H2198.95V1686.27C2197.91 1667.91 2192.96 1653.71 2184.11 1643.69C2175.26 1633.53 2163.28 1628.45 2148.17 1628.45ZM2268.48 1706.58C2268.48 1673.64 2276.1 1647.46 2291.34 1628.06C2306.57 1608.53 2326.75 1598.77 2351.88 1598.77C2377.66 1598.77 2397.78 1607.88 2412.23 1626.11L2413.99 1602.67H2447V1808.92C2447 1836.27 2438.86 1857.82 2422.59 1873.57C2406.44 1889.33 2384.7 1897.2 2357.35 1897.2C2342.12 1897.2 2327.21 1893.95 2312.62 1887.44C2298.04 1880.93 2286.91 1872.01 2279.23 1860.68L2297.98 1839C2313.47 1858.14 2332.42 1867.71 2354.81 1867.71C2372.39 1867.71 2386.06 1862.76 2395.83 1852.87C2405.72 1842.97 2410.67 1829.04 2410.67 1811.07V1792.91C2396.22 1809.57 2376.49 1817.91 2351.49 1817.91C2326.75 1817.91 2306.7 1807.95 2291.34 1788.02C2276.1 1768.1 2268.48 1740.95 2268.48 1706.58ZM2304.81 1710.68C2304.81 1734.51 2309.7 1753.26 2319.46 1766.93C2329.23 1780.47 2342.9 1787.24 2360.48 1787.24C2383.26 1787.24 2399.99 1776.89 2410.67 1756.19V1659.7C2399.6 1639.52 2383 1629.43 2360.87 1629.43C2343.29 1629.43 2329.55 1636.27 2319.66 1649.94C2309.76 1663.61 2304.81 1683.86 2304.81 1710.68ZM2632.16 1814C2630.07 1809.83 2628.38 1802.41 2627.08 1791.73C2610.28 1809.18 2590.23 1817.91 2566.92 1817.91C2546.09 1817.91 2528.97 1812.05 2515.55 1800.33C2502.27 1788.48 2495.63 1773.51 2495.63 1755.41C2495.63 1733.4 2503.97 1716.34 2520.63 1704.23C2537.43 1691.99 2561 1685.88 2591.34 1685.88H2626.49V1669.27C2626.49 1656.64 2622.72 1646.62 2615.16 1639.2C2607.61 1631.64 2596.48 1627.87 2581.77 1627.87C2568.88 1627.87 2558.07 1631.12 2549.34 1637.63C2540.62 1644.14 2536.26 1652.02 2536.26 1661.27H2499.93C2499.93 1650.72 2503.64 1640.56 2511.06 1630.8C2518.61 1620.9 2528.77 1613.09 2541.53 1607.36C2554.42 1601.63 2568.55 1598.77 2583.91 1598.77C2608.26 1598.77 2627.34 1604.89 2641.14 1617.12C2654.94 1629.23 2662.1 1645.97 2662.62 1667.32V1764.59C2662.62 1783.99 2665.1 1799.42 2670.05 1810.88V1814H2632.16ZM2572.2 1786.46C2583.52 1786.46 2594.27 1783.53 2604.42 1777.67C2614.58 1771.81 2621.93 1764.2 2626.49 1754.82V1711.46H2598.17C2553.9 1711.46 2531.77 1724.42 2531.77 1750.33C2531.77 1761.66 2535.54 1770.51 2543.09 1776.89C2550.65 1783.27 2560.35 1786.46 2572.2 1786.46ZM2710.48 1706.58C2710.48 1674.16 2718.16 1648.11 2733.52 1628.45C2748.89 1608.66 2769.01 1598.77 2793.88 1598.77C2818.61 1598.77 2838.21 1607.23 2852.66 1624.16V1514H2888.8V1814H2855.59L2853.84 1791.34C2839.38 1809.05 2819.27 1817.91 2793.48 1817.91C2769.01 1817.91 2749.02 1807.88 2733.52 1787.83C2718.16 1767.78 2710.48 1741.6 2710.48 1709.31V1706.58ZM2746.61 1710.68C2746.61 1734.64 2751.56 1753.39 2761.45 1766.93C2771.35 1780.47 2785.02 1787.24 2802.47 1787.24C2825.39 1787.24 2842.12 1776.96 2852.66 1756.38V1659.31C2841.86 1639.39 2825.26 1629.43 2802.86 1629.43C2785.15 1629.43 2771.35 1636.27 2761.45 1649.94C2751.56 1663.61 2746.61 1683.86 2746.61 1710.68ZM2935.48 1706.38C2935.48 1685.68 2939.51 1667.06 2947.59 1650.52C2955.79 1633.99 2967.12 1621.23 2981.57 1612.24C2996.15 1603.26 3012.76 1598.77 3031.38 1598.77C3060.15 1598.77 3083.39 1608.73 3101.1 1628.65C3118.94 1648.57 3127.86 1675.07 3127.86 1708.14V1710.68C3127.86 1731.25 3123.89 1749.74 3115.95 1766.15C3108.13 1782.42 3096.87 1795.12 3082.16 1804.23C3067.57 1813.35 3050.78 1817.91 3031.77 1817.91C3003.12 1817.91 2979.88 1807.95 2962.04 1788.02C2944.33 1768.1 2935.48 1741.73 2935.48 1708.92V1706.38ZM2971.8 1710.68C2971.8 1734.12 2977.21 1752.93 2988.02 1767.12C2998.95 1781.32 3013.54 1788.41 3031.77 1788.41C3050.12 1788.41 3064.71 1781.25 3075.52 1766.93C3086.32 1752.48 3091.73 1732.29 3091.73 1706.38C3091.73 1683.21 3086.19 1664.46 3075.12 1650.13C3064.19 1635.68 3049.6 1628.45 3031.38 1628.45C3013.54 1628.45 2999.15 1635.55 2988.21 1649.74C2977.27 1663.93 2971.8 1684.25 2971.8 1710.68ZM3275.32 1635.09C3269.85 1634.18 3263.93 1633.73 3257.55 1633.73C3233.85 1633.73 3217.77 1643.82 3209.3 1664V1814H3173.17V1602.67H3208.33L3208.91 1627.09C3220.76 1608.21 3237.56 1598.77 3259.3 1598.77C3266.34 1598.77 3271.67 1599.68 3275.32 1601.5V1635.09Z" fill="black"/>
<path d="M6077.24 3858H6046.4V3624.1H6077.24V3858ZM6157.24 3684.18L6158.21 3706.03C6171.49 3689.32 6188.84 3680.97 6210.26 3680.97C6246.99 3680.97 6265.52 3701.69 6265.84 3743.14V3858H6236.12V3742.98C6236.01 3730.45 6233.12 3721.18 6227.44 3715.19C6221.88 3709.19 6213.15 3706.19 6201.26 3706.19C6191.62 3706.19 6183.16 3708.76 6175.88 3713.9C6168.59 3719.04 6162.92 3725.79 6158.85 3734.14V3858H6129.13V3684.18H6157.24ZM6350.98 3642.09V3684.18H6383.43V3707.15H6350.98V3814.95C6350.98 3821.91 6352.43 3827.16 6355.32 3830.69C6358.21 3834.12 6363.14 3835.83 6370.1 3835.83C6373.52 3835.83 6378.24 3835.19 6384.23 3833.9V3858C6376.42 3860.14 6368.81 3861.21 6361.42 3861.21C6348.14 3861.21 6338.13 3857.2 6331.38 3849.16C6324.63 3841.13 6321.26 3829.73 6321.26 3814.95V3707.15H6289.61V3684.18H6321.26V3642.09H6350.98ZM6490.42 3861.21C6466.86 3861.21 6447.69 3853.5 6432.91 3838.08C6418.13 3822.55 6410.74 3801.83 6410.74 3775.91V3770.45C6410.74 3753.21 6414.01 3737.84 6420.54 3724.34C6427.18 3710.74 6436.39 3700.14 6448.17 3692.54C6460.06 3684.83 6472.91 3680.97 6486.72 3680.97C6509.32 3680.97 6526.89 3688.41 6539.42 3703.3C6551.95 3718.19 6558.21 3739.5 6558.21 3767.24V3779.61H6440.46C6440.89 3796.74 6445.87 3810.61 6455.4 3821.21C6465.04 3831.71 6477.25 3836.96 6492.03 3836.96C6502.52 3836.96 6511.41 3834.81 6518.69 3830.53C6525.98 3826.25 6532.35 3820.57 6537.81 3813.5L6555.96 3827.64C6541.4 3850.02 6519.55 3861.21 6490.42 3861.21ZM6486.72 3705.39C6474.73 3705.39 6464.66 3709.78 6456.52 3718.56C6448.38 3727.24 6443.35 3739.44 6441.42 3755.19H6528.49V3752.94C6527.64 3737.84 6523.57 3726.16 6516.28 3717.92C6509 3709.56 6499.15 3705.39 6486.72 3705.39ZM6676.77 3710.85C6672.27 3710.1 6667.4 3709.73 6662.15 3709.73C6642.66 3709.73 6629.43 3718.03 6622.47 3734.62V3858H6592.75V3684.18H6621.67L6622.15 3704.26C6631.89 3688.73 6645.71 3680.97 6663.59 3680.97C6669.38 3680.97 6673.77 3681.72 6676.77 3683.22V3710.85ZM6732.35 3684.18L6733.31 3706.03C6746.59 3689.32 6763.94 3680.97 6785.36 3680.97C6822.1 3680.97 6840.62 3701.69 6840.95 3743.14V3858H6811.23V3742.98C6811.12 3730.45 6808.23 3721.18 6802.55 3715.19C6796.98 3709.19 6788.25 3706.19 6776.37 3706.19C6766.73 3706.19 6758.27 3708.76 6750.98 3713.9C6743.7 3719.04 6738.03 3725.79 6733.96 3734.14V3858H6704.24V3684.18H6732.35ZM6957.9 3861.21C6934.33 3861.21 6915.16 3853.5 6900.38 3838.08C6885.6 3822.55 6878.22 3801.83 6878.22 3775.91V3770.45C6878.22 3753.21 6881.48 3737.84 6888.01 3724.34C6894.65 3710.74 6903.86 3700.14 6915.65 3692.54C6927.53 3684.83 6940.38 3680.97 6954.2 3680.97C6976.8 3680.97 6994.36 3688.41 7006.89 3703.3C7019.42 3718.19 7025.69 3739.5 7025.69 3767.24V3779.61H6907.93C6908.36 3796.74 6913.34 3810.61 6922.87 3821.21C6932.51 3831.71 6944.72 3836.96 6959.5 3836.96C6970 3836.96 6978.89 3834.81 6986.17 3830.53C6993.45 3826.25 6999.82 3820.57 7005.29 3813.5L7023.44 3827.64C7008.87 3850.02 6987.03 3861.21 6957.9 3861.21ZM6954.2 3705.39C6942.21 3705.39 6932.14 3709.78 6924 3718.56C6915.86 3727.24 6910.83 3739.44 6908.9 3755.19H6995.97V3752.94C6995.11 3737.84 6991.04 3726.16 6983.76 3717.92C6976.48 3709.56 6966.62 3705.39 6954.2 3705.39ZM7100.55 3642.09V3684.18H7133V3707.15H7100.55V3814.95C7100.55 3821.91 7101.99 3827.16 7104.88 3830.69C7107.78 3834.12 7112.7 3835.83 7119.66 3835.83C7123.09 3835.83 7127.8 3835.19 7133.8 3833.9V3858C7125.98 3860.14 7118.38 3861.21 7110.99 3861.21C7097.71 3861.21 7087.7 3857.2 7080.95 3849.16C7074.2 3841.13 7070.83 3829.73 7070.83 3814.95V3707.15H7039.18V3684.18H7070.83V3642.09H7100.55Z" fill="black"/>
<path d="M1557.37 4386.5V4470H1529.24V4256.72H1607.9C1631.24 4256.72 1649.5 4262.68 1662.69 4274.59C1675.97 4286.5 1682.61 4302.28 1682.61 4321.9C1682.61 4342.61 1676.12 4358.57 1663.13 4369.8C1650.24 4380.94 1631.73 4386.5 1607.61 4386.5H1557.37ZM1557.37 4363.51H1607.9C1622.94 4363.51 1634.46 4359.99 1642.47 4352.96C1650.48 4345.83 1654.48 4335.58 1654.48 4322.2C1654.48 4309.5 1650.48 4299.35 1642.47 4291.73C1634.46 4284.11 1623.48 4280.16 1609.51 4279.86H1557.37V4363.51ZM1810.34 4470C1808.78 4466.88 1807.51 4461.31 1806.54 4453.3C1793.94 4466.39 1778.9 4472.93 1761.42 4472.93C1745.79 4472.93 1732.95 4468.54 1722.89 4459.75C1712.93 4450.86 1707.95 4439.63 1707.95 4426.05C1707.95 4409.55 1714.2 4396.76 1726.7 4387.68C1739.3 4378.5 1756.97 4373.91 1779.73 4373.91H1806.1V4361.46C1806.1 4351.98 1803.26 4344.46 1797.6 4338.9C1791.94 4333.23 1783.59 4330.4 1772.55 4330.4C1762.88 4330.4 1754.78 4332.84 1748.23 4337.72C1741.69 4342.61 1738.42 4348.52 1738.42 4355.45H1711.17C1711.17 4347.54 1713.96 4339.92 1719.52 4332.6C1725.19 4325.18 1732.8 4319.32 1742.38 4315.02C1752.04 4310.72 1762.64 4308.57 1774.16 4308.57C1792.42 4308.57 1806.73 4313.16 1817.08 4322.34C1827.43 4331.43 1832.8 4343.97 1833.2 4359.99V4432.94C1833.2 4447.49 1835.05 4459.06 1838.76 4467.66V4470H1810.34ZM1765.37 4449.35C1773.87 4449.35 1781.93 4447.15 1789.54 4442.75C1797.16 4438.36 1802.68 4432.65 1806.1 4425.62V4393.1H1784.86C1751.65 4393.1 1735.05 4402.81 1735.05 4422.25C1735.05 4430.74 1737.88 4437.38 1743.55 4442.17C1749.21 4446.95 1756.49 4449.35 1765.37 4449.35ZM1790.42 4245H1823.23L1783.98 4288.07H1762.15L1790.42 4245ZM1869.23 4389.43C1869.23 4364.73 1874.94 4345.1 1886.37 4330.55C1897.79 4315.9 1912.93 4308.57 1931.78 4308.57C1951.12 4308.57 1966.2 4315.41 1977.04 4329.08L1978.36 4311.5H2003.12V4466.19C2003.12 4486.7 1997.01 4502.86 1984.81 4514.68C1972.7 4526.49 1956.39 4532.4 1935.88 4532.4C1924.46 4532.4 1913.27 4529.96 1902.34 4525.08C1891.4 4520.2 1883.05 4513.51 1877.29 4505.01L1891.35 4488.75C1902.97 4503.11 1917.18 4510.28 1933.98 4510.28C1947.16 4510.28 1957.41 4506.57 1964.74 4499.15C1972.16 4491.73 1975.87 4481.28 1975.87 4467.8V4454.18C1965.03 4466.68 1950.24 4472.93 1931.49 4472.93C1912.93 4472.93 1897.89 4465.46 1886.37 4450.52C1874.94 4435.58 1869.23 4415.21 1869.23 4389.43ZM1896.48 4392.51C1896.48 4410.38 1900.14 4424.44 1907.46 4434.7C1914.79 4444.85 1925.04 4449.93 1938.22 4449.93C1955.31 4449.93 1967.86 4442.17 1975.87 4426.64V4354.28C1967.57 4339.14 1955.12 4331.57 1938.52 4331.57C1925.33 4331.57 1915.03 4336.7 1907.61 4346.95C1900.19 4357.21 1896.48 4372.39 1896.48 4392.51ZM2073.58 4470H2046.48V4311.5H2073.58V4470ZM2044.28 4269.46C2044.28 4265.07 2045.6 4261.36 2048.23 4258.33C2050.97 4255.3 2054.97 4253.79 2060.25 4253.79C2065.52 4253.79 2069.52 4255.3 2072.26 4258.33C2074.99 4261.36 2076.36 4265.07 2076.36 4269.46C2076.36 4273.86 2074.99 4277.52 2072.26 4280.45C2069.52 4283.38 2065.52 4284.84 2060.25 4284.84C2054.97 4284.84 2050.97 4283.38 2048.23 4280.45C2045.6 4277.52 2044.28 4273.86 2044.28 4269.46ZM2142.72 4311.5L2143.6 4331.43C2155.71 4316.19 2171.53 4308.57 2191.06 4308.57C2224.55 4308.57 2241.45 4327.47 2241.74 4365.26V4470H2214.64V4365.12C2214.54 4353.69 2211.91 4345.24 2206.73 4339.78C2201.65 4334.31 2193.69 4331.57 2182.85 4331.57C2174.06 4331.57 2166.35 4333.92 2159.71 4338.6C2153.07 4343.29 2147.89 4349.44 2144.18 4357.06V4470H2117.08V4311.5H2142.72ZM2380.46 4470C2378.9 4466.88 2377.63 4461.31 2376.65 4453.3C2364.05 4466.39 2349.02 4472.93 2331.54 4472.93C2315.91 4472.93 2303.07 4468.54 2293.01 4459.75C2283.05 4450.86 2278.07 4439.63 2278.07 4426.05C2278.07 4409.55 2284.32 4396.76 2296.82 4387.68C2309.42 4378.5 2327.09 4373.91 2349.85 4373.91H2376.21V4361.46C2376.21 4351.98 2373.38 4344.46 2367.72 4338.9C2362.05 4333.23 2353.7 4330.4 2342.67 4330.4C2333 4330.4 2324.89 4332.84 2318.35 4337.72C2311.81 4342.61 2308.54 4348.52 2308.54 4355.45H2281.29C2281.29 4347.54 2284.07 4339.92 2289.64 4332.6C2295.3 4325.18 2302.92 4319.32 2312.49 4315.02C2322.16 4310.72 2332.76 4308.57 2344.28 4308.57C2362.54 4308.57 2376.85 4313.16 2387.2 4322.34C2397.55 4331.43 2402.92 4343.97 2403.31 4359.99V4432.94C2403.31 4447.49 2405.17 4459.06 2408.88 4467.66V4470H2380.46ZM2335.49 4449.35C2343.99 4449.35 2352.04 4447.15 2359.66 4442.75C2367.28 4438.36 2372.79 4432.65 2376.21 4425.62V4393.1H2354.97C2321.77 4393.1 2305.17 4402.81 2305.17 4422.25C2305.17 4430.74 2308 4437.38 2313.66 4442.17C2319.33 4446.95 2326.6 4449.35 2335.49 4449.35ZM2570.45 4402.76L2574.55 4430.89L2580.56 4405.55L2622.75 4256.72H2646.48L2687.64 4405.55L2693.5 4431.33L2698.04 4402.62L2731.14 4256.72H2759.42L2707.71 4470H2682.07L2638.13 4314.58L2634.76 4298.32L2631.39 4314.58L2585.83 4470H2560.2L2508.63 4256.72H2536.76L2570.45 4402.76ZM2847.6 4472.93C2826.12 4472.93 2808.63 4465.9 2795.16 4451.84C2781.68 4437.68 2774.94 4418.78 2774.94 4395.15V4390.17C2774.94 4374.44 2777.92 4360.43 2783.88 4348.12C2789.93 4335.72 2798.33 4326.05 2809.07 4319.12C2819.91 4312.09 2831.63 4308.57 2844.23 4308.57C2864.84 4308.57 2880.85 4315.36 2892.28 4328.94C2903.7 4342.51 2909.42 4361.94 2909.42 4387.24V4398.52H2802.04C2802.43 4414.14 2806.97 4426.79 2815.67 4436.46C2824.46 4446.03 2835.59 4450.81 2849.06 4450.81C2858.63 4450.81 2866.74 4448.86 2873.38 4444.95C2880.02 4441.04 2885.83 4435.87 2890.81 4429.42L2907.37 4442.31C2894.08 4462.72 2874.16 4472.93 2847.6 4472.93ZM2844.23 4330.84C2833.29 4330.84 2824.11 4334.84 2816.69 4342.85C2809.27 4350.76 2804.68 4361.89 2802.92 4376.25H2882.32V4374.2C2881.54 4360.43 2877.82 4349.79 2871.18 4342.27C2864.54 4334.65 2855.56 4330.84 2844.23 4330.84ZM3075.09 4392.51C3075.09 4416.73 3069.52 4436.21 3058.39 4450.96C3047.26 4465.61 3032.32 4472.93 3013.57 4472.93C2993.55 4472.93 2978.07 4465.85 2967.13 4451.69L2965.81 4470H2940.91V4245H2968.01V4328.94C2978.95 4315.36 2994.04 4308.57 3013.27 4308.57C3032.51 4308.57 3047.6 4315.85 3058.54 4330.4C3069.57 4344.95 3075.09 4364.87 3075.09 4390.17V4392.51ZM3047.99 4389.43C3047.99 4370.98 3044.43 4356.72 3037.3 4346.66C3030.17 4336.6 3019.91 4331.57 3006.54 4331.57C2988.66 4331.57 2975.82 4339.87 2968.01 4356.47V4425.03C2976.31 4441.63 2989.25 4449.93 3006.83 4449.93C3019.82 4449.93 3029.92 4444.9 3037.15 4434.84C3044.38 4424.79 3047.99 4409.65 3047.99 4389.43ZM1077.48 4735.43C1077.48 4713.36 1080.41 4692.17 1086.27 4671.85C1092.23 4651.54 1101.07 4633.08 1112.79 4616.48C1124.5 4599.88 1136.66 4588.16 1149.26 4581.33L1154.83 4599.2C1140.57 4610.13 1128.85 4626.83 1119.67 4649.29C1110.59 4671.76 1105.61 4696.9 1104.73 4724.73L1104.58 4737.19C1104.58 4774.88 1111.47 4807.6 1125.24 4835.33C1133.54 4851.93 1143.4 4864.92 1154.83 4874.29L1149.26 4890.85C1136.27 4883.62 1123.87 4871.51 1112.05 4854.52C1089.01 4821.32 1077.48 4781.62 1077.48 4735.43ZM1349.21 4822H1320.94V4723.42H1213.42V4822H1185.29V4608.72H1213.42V4700.42H1320.94V4608.72H1349.21V4822ZM1542.13 4631.86H1473.58V4822H1445.6V4631.86H1377.19V4608.72H1542.13V4631.86ZM1610.1 4608.72L1679.83 4782.74L1749.55 4608.72H1786.03V4822H1757.9V4738.94L1760.54 4649.29L1690.52 4822H1668.99L1599.11 4649.73L1601.9 4738.94V4822H1573.77V4608.72H1610.1ZM1863.96 4799H1965.03V4822H1835.69V4608.72H1863.96V4799ZM2144.91 4707.6H2204.39V4733.23H2144.91V4800.61H2117.67V4733.23H2058.2V4707.6H2117.67V4645.34H2144.91V4707.6ZM2473.04 4754.32C2470.4 4776.88 2462.05 4794.31 2447.99 4806.62C2434.03 4818.83 2415.42 4824.93 2392.18 4824.93C2366.98 4824.93 2346.77 4815.9 2331.54 4797.83C2316.4 4779.76 2308.83 4755.59 2308.83 4725.32V4704.81C2308.83 4684.99 2312.35 4667.56 2319.38 4652.52C2326.51 4637.48 2336.56 4625.96 2349.55 4617.95C2362.54 4609.84 2377.58 4605.79 2394.67 4605.79C2417.33 4605.79 2435.49 4612.14 2449.16 4624.83C2462.83 4637.43 2470.79 4654.91 2473.04 4677.27H2444.77C2442.33 4660.28 2437 4647.98 2428.8 4640.36C2420.7 4632.74 2409.32 4628.93 2394.67 4628.93C2376.7 4628.93 2362.59 4635.57 2352.34 4648.86C2342.18 4662.14 2337.1 4681.03 2337.1 4705.54V4726.2C2337.1 4749.34 2341.94 4767.75 2351.6 4781.42C2361.27 4795.1 2374.8 4801.93 2392.18 4801.93C2407.8 4801.93 2419.77 4798.42 2428.07 4791.38C2436.47 4784.26 2442.03 4771.9 2444.77 4754.32H2473.04ZM2574.41 4726.93C2550.29 4720 2532.71 4711.5 2521.67 4701.44C2510.73 4691.29 2505.27 4678.79 2505.27 4663.94C2505.27 4647.15 2511.96 4633.28 2525.33 4622.34C2538.81 4611.31 2556.29 4605.79 2577.78 4605.79C2592.42 4605.79 2605.46 4608.62 2616.89 4614.29C2628.41 4619.95 2637.3 4627.76 2643.55 4637.72C2649.89 4647.68 2653.07 4658.57 2653.07 4670.39H2624.8C2624.8 4657.5 2620.7 4647.39 2612.49 4640.07C2604.29 4632.64 2592.72 4628.93 2577.78 4628.93C2563.91 4628.93 2553.07 4632.01 2545.26 4638.16C2537.54 4644.22 2533.68 4652.66 2533.68 4663.5C2533.68 4672.2 2537.35 4679.57 2544.67 4685.62C2552.09 4691.58 2564.64 4697.05 2582.32 4702.03C2600.09 4707.01 2613.96 4712.53 2623.92 4718.58C2633.98 4724.54 2641.4 4731.52 2646.18 4739.53C2651.07 4747.54 2653.51 4756.96 2653.51 4767.8C2653.51 4785.09 2646.77 4798.95 2633.29 4809.4C2619.82 4819.75 2601.8 4824.93 2579.24 4824.93C2564.59 4824.93 2550.92 4822.15 2538.22 4816.58C2525.53 4810.92 2515.71 4803.2 2508.78 4793.44C2501.95 4783.67 2498.53 4772.59 2498.53 4760.18H2526.8C2526.8 4773.07 2531.54 4783.28 2541.01 4790.8C2550.58 4798.22 2563.32 4801.93 2579.24 4801.93C2594.08 4801.93 2605.46 4798.9 2613.37 4792.85C2621.28 4786.79 2625.24 4778.54 2625.24 4768.09C2625.24 4757.64 2621.57 4749.59 2614.25 4743.92C2606.93 4738.16 2593.64 4732.5 2574.41 4726.93ZM2752.53 4726.93C2728.41 4720 2710.83 4711.5 2699.8 4701.44C2688.86 4691.29 2683.39 4678.79 2683.39 4663.94C2683.39 4647.15 2690.08 4633.28 2703.46 4622.34C2716.94 4611.31 2734.42 4605.79 2755.9 4605.79C2770.55 4605.79 2783.59 4608.62 2795.01 4614.29C2806.54 4619.95 2815.42 4627.76 2821.67 4637.72C2828.02 4647.68 2831.19 4658.57 2831.19 4670.39H2802.92C2802.92 4657.5 2798.82 4647.39 2790.62 4640.07C2782.41 4632.64 2770.84 4628.93 2755.9 4628.93C2742.03 4628.93 2731.19 4632.01 2723.38 4638.16C2715.67 4644.22 2711.81 4652.66 2711.81 4663.5C2711.81 4672.2 2715.47 4679.57 2722.79 4685.62C2730.22 4691.58 2742.77 4697.05 2760.44 4702.03C2778.21 4707.01 2792.08 4712.53 2802.04 4718.58C2812.1 4724.54 2819.52 4731.52 2824.31 4739.53C2829.19 4747.54 2831.63 4756.96 2831.63 4767.8C2831.63 4785.09 2824.89 4798.95 2811.42 4809.4C2797.94 4819.75 2779.92 4824.93 2757.37 4824.93C2742.72 4824.93 2729.04 4822.15 2716.35 4816.58C2703.65 4810.92 2693.84 4803.2 2686.91 4793.44C2680.07 4783.67 2676.65 4772.59 2676.65 4760.18H2704.92C2704.92 4773.07 2709.66 4783.28 2719.13 4790.8C2728.7 4798.22 2741.45 4801.93 2757.37 4801.93C2772.21 4801.93 2783.59 4798.9 2791.5 4792.85C2799.41 4786.79 2803.36 4778.54 2803.36 4768.09C2803.36 4757.64 2799.7 4749.59 2792.38 4743.92C2785.05 4738.16 2771.77 4732.5 2752.53 4726.93ZM3015.62 4707.6H3075.09V4733.23H3015.62V4800.61H2988.37V4733.23H2928.9V4707.6H2988.37V4645.34H3015.62V4707.6ZM3276.21 4608.72H3304.48V4759.74C3304.48 4780.15 3298.33 4796.12 3286.03 4807.64C3273.82 4819.17 3257.51 4824.93 3237.1 4824.93C3215.91 4824.93 3199.41 4819.51 3187.59 4808.67C3175.77 4797.83 3169.87 4782.64 3169.87 4763.11H3197.99C3197.99 4775.32 3201.31 4784.84 3207.95 4791.68C3214.69 4798.51 3224.41 4801.93 3237.1 4801.93C3248.72 4801.93 3258.1 4798.27 3265.23 4790.95C3272.45 4783.62 3276.12 4773.37 3276.21 4760.18V4608.72ZM3415.23 4726.93C3391.11 4720 3373.53 4711.5 3362.49 4701.44C3351.55 4691.29 3346.09 4678.79 3346.09 4663.94C3346.09 4647.15 3352.78 4633.28 3366.15 4622.34C3379.63 4611.31 3397.11 4605.79 3418.6 4605.79C3433.24 4605.79 3446.28 4608.62 3457.71 4614.29C3469.23 4619.95 3478.12 4627.76 3484.37 4637.72C3490.71 4647.68 3493.89 4658.57 3493.89 4670.39H3465.62C3465.62 4657.5 3461.52 4647.39 3453.31 4640.07C3445.11 4632.64 3433.54 4628.93 3418.6 4628.93C3404.73 4628.93 3393.89 4632.01 3386.08 4638.16C3378.36 4644.22 3374.5 4652.66 3374.5 4663.5C3374.5 4672.2 3378.17 4679.57 3385.49 4685.62C3392.91 4691.58 3405.46 4697.05 3423.14 4702.03C3440.91 4707.01 3454.78 4712.53 3464.74 4718.58C3474.8 4724.54 3482.22 4731.52 3487 4739.53C3491.89 4747.54 3494.33 4756.96 3494.33 4767.8C3494.33 4785.09 3487.59 4798.95 3474.11 4809.4C3460.64 4819.75 3442.62 4824.93 3420.06 4824.93C3405.41 4824.93 3391.74 4822.15 3379.04 4816.58C3366.35 4810.92 3356.54 4803.2 3349.6 4793.44C3342.77 4783.67 3339.35 4772.59 3339.35 4760.18H3367.62C3367.62 4773.07 3372.36 4783.28 3381.83 4790.8C3391.4 4798.22 3404.14 4801.93 3420.06 4801.93C3434.9 4801.93 3446.28 4798.9 3454.19 4792.85C3462.1 4786.79 3466.06 4778.54 3466.06 4768.09C3466.06 4757.64 3462.39 4749.59 3455.07 4743.92C3447.75 4738.16 3434.46 4732.5 3415.23 4726.93Z" fill="black"/>
<path d="M2305.5 2728C2031.98 2728 1810 2949.98 1810 3223.5C1810 3497.02 2031.98 3719 2305.5 3719C2579.02 3719 2801 3497.02 2801 3223.5C2801 2949.98 2579.02 2728 2305.5 2728ZM2255.95 3616.43C2060.23 3592.15 1909.1 3425.66 1909.1 3223.5C1909.1 3192.78 1913.06 3163.54 1919.51 3134.81L2156.85 3372.15V3421.7C2156.85 3476.21 2201.45 3520.8 2255.95 3520.8V3616.43ZM2597.84 3490.57C2584.96 3450.44 2548.29 3421.7 2503.7 3421.7H2454.15V3273.05C2454.15 3245.8 2431.85 3223.5 2404.6 3223.5H2107.3V3124.4H2206.4C2233.65 3124.4 2255.95 3102.1 2255.95 3074.85V2975.75H2355.05C2409.55 2975.75 2454.15 2931.15 2454.15 2876.65V2856.33C2599.33 2915.3 2701.9 3057.51 2701.9 3223.5C2701.9 3326.56 2662.26 3420.21 2597.84 3490.57Z" fill="black"/>
<path d="M10287.1 1282H10260.7V1189.99H10160.4V1282H10134.1V1082.94H10160.4V1168.52H10260.7V1082.94H10287.1V1282ZM10323.1 1206.67C10323.1 1192.18 10325.9 1179.14 10331.5 1167.57C10337.3 1155.99 10345.2 1147.06 10355.3 1140.77C10365.5 1134.48 10377.1 1131.34 10390.2 1131.34C10410.3 1131.34 10426.6 1138.31 10439 1152.25C10451.5 1166.2 10457.7 1184.75 10457.7 1207.9V1209.68C10457.7 1224.08 10454.9 1237.02 10449.4 1248.5C10443.9 1259.9 10436 1268.78 10425.7 1275.16C10415.5 1281.54 10403.8 1284.73 10390.5 1284.73C10370.4 1284.73 10354.1 1277.76 10341.6 1263.82C10329.2 1249.87 10323.1 1231.41 10323.1 1208.45V1206.67ZM10348.5 1209.68C10348.5 1226.08 10352.3 1239.25 10359.8 1249.19C10367.5 1259.12 10377.7 1264.09 10390.5 1264.09C10403.3 1264.09 10413.5 1259.08 10421.1 1249.05C10428.6 1238.93 10432.4 1224.81 10432.4 1206.67C10432.4 1190.44 10428.6 1177.32 10420.8 1167.29C10413.1 1157.18 10402.9 1152.12 10390.2 1152.12C10377.7 1152.12 10367.6 1157.08 10360 1167.02C10352.3 1176.95 10348.5 1191.17 10348.5 1209.68ZM10575.6 1242.76C10575.6 1235.93 10573 1230.64 10567.8 1226.9C10562.7 1223.07 10553.7 1219.79 10540.8 1217.06C10528.1 1214.32 10517.9 1211.04 10510.4 1207.21C10502.9 1203.39 10497.3 1198.83 10493.7 1193.54C10490.1 1188.26 10488.3 1181.97 10488.3 1174.68C10488.3 1162.55 10493.4 1152.3 10503.7 1143.91C10514 1135.53 10527.1 1131.34 10543 1131.34C10559.8 1131.34 10573.4 1135.67 10583.8 1144.32C10594.3 1152.98 10599.5 1164.06 10599.5 1177.55H10574.1C10574.1 1170.62 10571.1 1164.65 10565.2 1159.64C10559.3 1154.62 10552 1152.12 10543 1152.12C10533.8 1152.12 10526.6 1154.12 10521.4 1158.13C10516.2 1162.14 10513.6 1167.38 10513.6 1173.86C10513.6 1179.96 10516.1 1184.57 10520.9 1187.66C10525.7 1190.76 10534.4 1193.73 10547 1196.55C10559.7 1199.38 10569.9 1202.75 10577.8 1206.67C10585.6 1210.59 10591.4 1215.33 10595.1 1220.89C10598.9 1226.36 10600.9 1233.05 10600.9 1240.98C10600.9 1254.2 10595.6 1264.82 10585 1272.84C10574.4 1280.77 10560.7 1284.73 10543.9 1284.73C10532 1284.73 10521.5 1282.64 10512.4 1278.45C10503.3 1274.25 10496.1 1268.42 10490.9 1260.95C10485.8 1253.38 10483.3 1245.22 10483.3 1236.47H10508.6C10509 1244.95 10512.4 1251.69 10518.7 1256.71C10525.1 1261.63 10533.5 1264.09 10543.9 1264.09C10553.4 1264.09 10561.1 1262.18 10566.8 1258.35C10572.7 1254.43 10575.6 1249.23 10575.6 1242.76ZM10758.8 1209.68C10758.8 1232.19 10753.6 1250.33 10743.3 1264.09C10733 1277.85 10719.1 1284.73 10701.5 1284.73C10683.5 1284.73 10669.4 1279.04 10659.1 1267.64V1338.88H10633.8V1134.07H10656.9L10658.1 1150.48C10668.4 1137.72 10682.8 1131.34 10701.1 1131.34C10718.9 1131.34 10732.9 1138.04 10743.2 1151.43C10753.6 1164.83 10758.8 1183.47 10758.8 1207.35V1209.68ZM10733.5 1206.8C10733.5 1190.12 10729.9 1176.95 10722.8 1167.29C10715.7 1157.63 10706 1152.8 10693.6 1152.8C10678.2 1152.8 10666.8 1159.59 10659.1 1173.17V1243.86C10666.7 1257.35 10678.2 1264.09 10693.8 1264.09C10706 1264.09 10715.6 1259.3 10722.7 1249.73C10729.9 1240.07 10733.5 1225.76 10733.5 1206.8ZM10852.4 1284.73C10832.4 1284.73 10816.1 1278.17 10803.5 1265.05C10790.9 1251.83 10784.6 1234.19 10784.6 1212.14V1207.49C10784.6 1192.81 10787.4 1179.73 10793 1168.25C10798.6 1156.67 10806.4 1147.65 10816.5 1141.18C10826.6 1134.62 10837.5 1131.34 10849.3 1131.34C10868.5 1131.34 10883.5 1137.67 10894.1 1150.34C10904.8 1163.01 10910.1 1181.15 10910.1 1204.75V1215.28H10809.9C10810.3 1229.86 10814.5 1241.67 10822.6 1250.69C10830.8 1259.62 10841.2 1264.09 10853.8 1264.09C10862.7 1264.09 10870.3 1262.27 10876.5 1258.62C10882.7 1254.98 10888.1 1250.14 10892.8 1244.13L10908.2 1256.16C10895.8 1275.21 10877.2 1284.73 10852.4 1284.73ZM10849.3 1152.12C10839.1 1152.12 10830.5 1155.85 10823.6 1163.33C10816.7 1170.71 10812.4 1181.1 10810.7 1194.5H10884.8V1192.59C10884.1 1179.73 10880.6 1169.8 10874.4 1162.78C10868.2 1155.67 10859.9 1152.12 10849.3 1152.12ZM10933.4 1206.8C10933.4 1184.11 10938.7 1165.88 10949.5 1152.12C10960.3 1138.26 10974.3 1131.34 10991.7 1131.34C11009.1 1131.34 11022.8 1137.26 11032.9 1149.11V1072H11058.2V1282H11034.9L11033.7 1266.14C11023.6 1278.54 11009.5 1284.73 10991.5 1284.73C10974.3 1284.73 10960.3 1277.72 10949.5 1263.68C10938.7 1249.64 10933.4 1231.32 10933.4 1208.72V1206.8ZM10958.7 1209.68C10958.7 1226.45 10962.1 1239.57 10969 1249.05C10976 1258.53 10985.5 1263.27 10997.8 1263.27C11013.8 1263.27 11025.5 1256.07 11032.9 1241.67V1173.72C11025.3 1159.77 11013.7 1152.8 10998 1152.8C10985.6 1152.8 10976 1157.59 10969 1167.16C10962.1 1176.73 10958.7 1190.9 10958.7 1209.68ZM11188.9 1282C11187.4 1279.08 11186.2 1273.89 11185.3 1266.41C11173.6 1278.63 11159.5 1284.73 11143.2 1284.73C11128.6 1284.73 11116.7 1280.63 11107.3 1272.43C11098 1264.14 11093.3 1253.65 11093.3 1240.98C11093.3 1225.58 11099.2 1213.64 11110.8 1205.16C11122.6 1196.6 11139.1 1192.31 11160.3 1192.31H11184.9V1180.69C11184.9 1171.85 11182.3 1164.83 11177 1159.64C11171.7 1154.35 11163.9 1151.71 11153.6 1151.71C11144.6 1151.71 11137 1153.99 11130.9 1158.54C11124.8 1163.1 11121.8 1168.61 11121.8 1175.09H11096.3C11096.3 1167.7 11098.9 1160.59 11104.1 1153.76C11109.4 1146.83 11116.5 1141.36 11125.5 1137.35C11134.5 1133.34 11144.4 1131.34 11155.1 1131.34C11172.2 1131.34 11185.5 1135.62 11195.2 1144.19C11204.8 1152.66 11209.9 1164.38 11210.2 1179.32V1247.41C11210.2 1260.99 11212 1271.79 11215.4 1279.81V1282H11188.9ZM11146.9 1262.72C11154.8 1262.72 11162.4 1260.67 11169.5 1256.57C11176.6 1252.47 11181.7 1247.14 11184.9 1240.57V1210.22H11165.1C11134.1 1210.22 11118.6 1219.29 11118.6 1237.43C11118.6 1245.36 11121.3 1251.56 11126.5 1256.02C11131.8 1260.49 11138.6 1262.72 11146.9 1262.72ZM11243.9 1206.8C11243.9 1183.74 11249.2 1165.42 11259.8 1151.84C11270.5 1138.17 11284.6 1131.34 11302.2 1131.34C11320.3 1131.34 11334.4 1137.72 11344.5 1150.48L11345.7 1134.07H11368.8V1278.45C11368.8 1297.59 11363.1 1312.67 11351.7 1323.7C11340.4 1334.73 11325.2 1340.24 11306.1 1340.24C11295.4 1340.24 11285 1337.96 11274.8 1333.41C11264.5 1328.85 11256.7 1322.61 11251.4 1314.68L11264.5 1299.5C11275.3 1312.9 11288.6 1319.6 11304.3 1319.6C11316.6 1319.6 11326.2 1316.13 11333 1309.21C11339.9 1302.28 11343.4 1292.53 11343.4 1279.95V1267.23C11333.3 1278.9 11319.5 1284.73 11302 1284.73C11284.6 1284.73 11270.6 1277.76 11259.8 1263.82C11249.2 1249.87 11243.9 1230.87 11243.9 1206.8ZM11269.3 1209.68C11269.3 1226.36 11272.7 1239.48 11279.5 1249.05C11286.4 1258.53 11295.9 1263.27 11308.2 1263.27C11324.2 1263.27 11335.9 1256.02 11343.4 1241.53V1173.99C11335.6 1159.86 11324 1152.8 11308.5 1152.8C11296.2 1152.8 11286.6 1157.59 11279.7 1167.16C11272.7 1176.73 11269.3 1190.9 11269.3 1209.68ZM11468.5 1284.73C11448.4 1284.73 11432.1 1278.17 11419.5 1265.05C11407 1251.83 11400.7 1234.19 11400.7 1212.14V1207.49C11400.7 1192.81 11403.4 1179.73 11409 1168.25C11414.7 1156.67 11422.5 1147.65 11432.5 1141.18C11442.6 1134.62 11453.6 1131.34 11465.3 1131.34C11484.6 1131.34 11499.5 1137.67 11510.2 1150.34C11520.8 1163.01 11526.2 1181.15 11526.2 1204.75V1215.28H11426C11426.3 1229.86 11430.6 1241.67 11438.7 1250.69C11446.9 1259.62 11457.3 1264.09 11469.8 1264.09C11478.8 1264.09 11486.3 1262.27 11492.5 1258.62C11498.7 1254.98 11504.2 1250.14 11508.8 1244.13L11524.3 1256.16C11511.9 1275.21 11493.3 1284.73 11468.5 1284.73ZM11465.3 1152.12C11455.1 1152.12 11446.6 1155.85 11439.6 1163.33C11432.7 1170.71 11428.4 1181.1 11426.8 1194.5H11500.9V1192.59C11500.2 1179.73 11496.7 1169.8 11490.5 1162.78C11484.3 1155.67 11475.9 1152.12 11465.3 1152.12ZM11579.4 1134.07L11580 1150.48C11590.9 1137.72 11605.5 1131.34 11623.9 1131.34C11644.6 1131.34 11658.7 1139.27 11666.2 1155.12C11671.1 1148.02 11677.5 1142.27 11685.3 1137.9C11693.2 1133.52 11702.6 1131.34 11713.3 1131.34C11745.8 1131.34 11762.3 1148.52 11762.8 1182.88V1282H11737.5V1184.38C11737.5 1173.81 11735.1 1165.93 11730.3 1160.73C11725.5 1155.44 11717.4 1152.8 11706 1152.8C11696.6 1152.8 11688.8 1155.63 11682.6 1161.28C11676.4 1166.84 11672.8 1174.36 11671.8 1183.84V1282H11646.4V1185.07C11646.4 1163.56 11635.8 1152.8 11614.8 1152.8C11598.2 1152.8 11586.8 1159.86 11580.7 1173.99V1282H11555.4V1134.07H11579.4ZM10599.5 1535.76H10532.8V1515.12H10599.5V1535.76ZM10694.1 1575.14L10751 1410.94H10779.7L10705.9 1610H10682.6L10608.9 1410.94H10637.5L10694.1 1575.14ZM10857.9 1612.73C10837.8 1612.73 10821.5 1606.17 10808.9 1593.05C10796.4 1579.83 10790.1 1562.19 10790.1 1540.14V1535.49C10790.1 1520.81 10792.9 1507.73 10798.4 1496.25C10804.1 1484.67 10811.9 1475.65 10821.9 1469.18C10832.1 1462.62 10843 1459.34 10854.8 1459.34C10874 1459.34 10888.9 1465.67 10899.6 1478.34C10910.3 1491.01 10915.6 1509.15 10915.6 1532.75V1543.28H10815.4C10815.7 1557.86 10820 1569.67 10828.1 1578.69C10836.3 1587.62 10846.7 1592.09 10859.3 1592.09C10868.2 1592.09 10875.8 1590.27 10882 1586.62C10888.2 1582.98 10893.6 1578.14 10898.2 1572.13L10913.7 1584.16C10901.3 1603.21 10882.7 1612.73 10857.9 1612.73ZM10854.8 1480.12C10844.5 1480.12 10836 1483.85 10829 1491.33C10822.1 1498.71 10817.8 1509.1 10816.2 1522.5H10890.3V1520.59C10889.6 1507.73 10886.1 1497.8 10879.9 1490.78C10873.7 1483.67 10865.3 1480.12 10854.8 1480.12ZM11016.5 1484.77C11012.7 1484.13 11008.5 1483.81 11004 1483.81C10987.5 1483.81 10976.2 1490.87 10970.3 1505V1610H10945V1462.07H10969.6L10970 1479.16C10978.3 1465.94 10990.1 1459.34 11005.3 1459.34C11010.2 1459.34 11013.9 1459.97 11016.5 1461.25V1484.77ZM11126 1570.76C11126 1563.93 11123.4 1558.64 11118.2 1554.9C11113.1 1551.07 11104.1 1547.79 11091.3 1545.06C11078.5 1542.32 11068.4 1539.04 11060.8 1535.21C11053.3 1531.39 11047.8 1526.83 11044.1 1521.54C11040.6 1516.26 11038.8 1509.97 11038.8 1502.68C11038.8 1490.55 11043.9 1480.3 11054.1 1471.91C11064.4 1463.53 11077.5 1459.34 11093.5 1459.34C11110.2 1459.34 11123.8 1463.67 11134.2 1472.32C11144.7 1480.98 11149.9 1492.06 11149.9 1505.55H11124.5C11124.5 1498.62 11121.5 1492.65 11115.6 1487.64C11109.8 1482.62 11102.4 1480.12 11093.5 1480.12C11084.3 1480.12 11077.1 1482.12 11071.9 1486.13C11066.7 1490.14 11064.1 1495.38 11064.1 1501.86C11064.1 1507.96 11066.5 1512.57 11071.3 1515.66C11076.1 1518.76 11084.8 1521.73 11097.4 1524.55C11110.1 1527.38 11120.3 1530.75 11128.2 1534.67C11136 1538.59 11141.8 1543.33 11145.6 1548.89C11149.4 1554.36 11151.3 1561.05 11151.3 1568.98C11151.3 1582.2 11146 1592.82 11135.4 1600.84C11124.9 1608.77 11111.1 1612.73 11094.3 1612.73C11082.4 1612.73 11072 1610.64 11062.8 1606.45C11053.7 1602.25 11046.6 1596.42 11041.4 1588.95C11036.3 1581.38 11033.7 1573.22 11033.7 1564.47H11059C11059.5 1572.95 11062.8 1579.69 11069.1 1584.71C11075.5 1589.63 11083.9 1592.09 11094.3 1592.09C11103.9 1592.09 11111.5 1590.18 11117.2 1586.35C11123.1 1582.43 11126 1577.23 11126 1570.76ZM11245.6 1612.73C11225.6 1612.73 11209.3 1606.17 11196.7 1593.05C11184.1 1579.83 11177.8 1562.19 11177.8 1540.14V1535.49C11177.8 1520.81 11180.6 1507.73 11186.2 1496.25C11191.8 1484.67 11199.6 1475.65 11209.7 1469.18C11219.8 1462.62 11230.7 1459.34 11242.5 1459.34C11261.7 1459.34 11276.7 1465.67 11287.3 1478.34C11298 1491.01 11303.3 1509.15 11303.3 1532.75V1543.28H11203.1C11203.5 1557.86 11207.7 1569.67 11215.8 1578.69C11224 1587.62 11234.4 1592.09 11247 1592.09C11255.9 1592.09 11263.5 1590.27 11269.7 1586.62C11275.9 1582.98 11281.3 1578.14 11286 1572.13L11301.4 1584.16C11289 1603.21 11270.4 1612.73 11245.6 1612.73ZM11242.5 1480.12C11232.3 1480.12 11223.7 1483.85 11216.8 1491.33C11209.9 1498.71 11205.6 1509.1 11203.9 1522.5H11278V1520.59C11277.3 1507.73 11273.8 1497.8 11267.6 1490.78C11261.4 1483.67 11253.1 1480.12 11242.5 1480.12ZM11360.2 1610H11334.9V1400H11360.2V1610Z" fill="white"/>
<path d="M9823.03 3466.05H9739.63L9720.9 3518H9693.83L9769.84 3318.94H9792.81L9868.96 3518H9842.03L9823.03 3466.05ZM9747.56 3444.45H9815.23L9781.33 3351.34L9747.56 3444.45ZM9922.01 3440.07V3518H9895.76V3318.94H9969.18C9990.96 3318.94 10008 3324.5 10020.3 3335.62C10032.7 3346.74 10038.9 3361.46 10038.9 3379.78C10038.9 3399.1 10032.8 3414 10020.7 3424.48C10008.7 3434.88 9991.42 3440.07 9968.91 3440.07H9922.01ZM9922.01 3418.61H9969.18C9983.22 3418.61 9993.97 3415.32 10001.4 3408.76C10008.9 3402.11 10012.7 3392.54 10012.7 3380.05C10012.7 3368.2 10008.9 3358.72 10001.4 3351.61C9993.97 3344.5 9983.72 3340.81 9970.68 3340.54H9922.01V3418.61ZM10100.6 3518H10074.3V3318.94H10100.6V3518ZM10208 3442.8C10208 3420.11 10213.4 3401.88 10224.2 3388.12C10234.9 3374.26 10249 3367.34 10266.4 3367.34C10283.7 3367.34 10297.4 3373.26 10307.6 3385.11V3308H10332.9V3518H10309.6L10308.4 3502.14C10298.3 3514.54 10284.2 3520.73 10266.1 3520.73C10249 3520.73 10235 3513.72 10224.2 3499.68C10213.4 3485.64 10208 3467.32 10208 3444.72V3442.8ZM10233.3 3445.68C10233.3 3462.45 10236.8 3475.57 10243.7 3485.05C10250.6 3494.53 10260.2 3499.27 10272.4 3499.27C10288.5 3499.27 10300.2 3492.07 10307.6 3477.67V3409.72C10300 3395.77 10288.4 3388.8 10272.7 3388.8C10260.3 3388.8 10250.6 3393.59 10243.7 3403.16C10236.8 3412.73 10233.3 3426.9 10233.3 3445.68ZM10433.6 3520.73C10413.6 3520.73 10397.2 3514.17 10384.7 3501.05C10372.1 3487.83 10365.8 3470.19 10365.8 3448.14V3443.49C10365.8 3428.81 10368.6 3415.73 10374.1 3404.25C10379.8 3392.67 10387.6 3383.65 10397.7 3377.18C10407.8 3370.62 10418.7 3367.34 10430.5 3367.34C10449.7 3367.34 10464.6 3373.67 10475.3 3386.34C10486 3399.01 10491.3 3417.15 10491.3 3440.75V3451.28H10391.1C10391.5 3465.86 10395.7 3477.67 10403.8 3486.69C10412 3495.62 10422.4 3500.09 10435 3500.09C10443.9 3500.09 10451.5 3498.27 10457.7 3494.62C10463.9 3490.98 10469.3 3486.14 10473.9 3480.13L10489.4 3492.16C10477 3511.21 10458.4 3520.73 10433.6 3520.73ZM10430.5 3388.12C10420.3 3388.12 10411.7 3391.85 10404.8 3399.33C10397.8 3406.71 10393.6 3417.1 10391.9 3430.5H10466V3428.59C10465.3 3415.73 10461.8 3405.8 10455.6 3398.78C10449.4 3391.67 10441 3388.12 10430.5 3388.12ZM10740.5 3454.84C10738.1 3475.89 10730.3 3492.16 10717.2 3503.64C10704.1 3515.04 10686.8 3520.73 10665.1 3520.73C10641.6 3520.73 10622.7 3512.3 10608.5 3495.44C10594.3 3478.58 10587.3 3456.02 10587.3 3427.77V3408.62C10587.3 3390.12 10590.6 3373.85 10597.1 3359.82C10603.8 3345.78 10613.2 3335.02 10625.3 3327.55C10637.4 3319.99 10651.5 3316.2 10667.4 3316.2C10688.5 3316.2 10705.5 3322.13 10718.3 3333.98C10731 3345.73 10738.5 3362.05 10740.5 3382.92H10714.2C10711.9 3367.06 10706.9 3355.58 10699.3 3348.47C10691.7 3341.36 10681.1 3337.8 10667.4 3337.8C10650.6 3337.8 10637.5 3344 10627.9 3356.4C10618.4 3368.79 10613.7 3386.43 10613.7 3409.31V3428.59C10613.7 3450.19 10618.2 3467.37 10627.2 3480.13C10636.2 3492.89 10648.9 3499.27 10665.1 3499.27C10679.7 3499.27 10690.8 3495.99 10698.6 3489.43C10706.4 3482.77 10711.6 3471.24 10714.2 3454.84H10740.5ZM10765.8 3442.67C10765.8 3428.18 10768.7 3415.14 10774.3 3403.57C10780.1 3391.99 10788 3383.06 10798.1 3376.77C10808.3 3370.48 10819.9 3367.34 10833 3367.34C10853.1 3367.34 10869.4 3374.31 10881.8 3388.25C10894.3 3402.2 10900.5 3420.75 10900.5 3443.9V3445.68C10900.5 3460.08 10897.7 3473.02 10892.2 3484.5C10886.7 3495.9 10878.8 3504.78 10868.5 3511.16C10858.3 3517.54 10846.5 3520.73 10833.2 3520.73C10813.2 3520.73 10796.9 3513.76 10784.4 3499.82C10772 3485.87 10765.8 3467.41 10765.8 3444.45V3442.67ZM10791.3 3445.68C10791.3 3462.08 10795.1 3475.25 10802.6 3485.19C10810.3 3495.12 10820.5 3500.09 10833.2 3500.09C10846.1 3500.09 10856.3 3495.08 10863.9 3485.05C10871.4 3474.93 10875.2 3460.81 10875.2 3442.67C10875.2 3426.44 10871.3 3413.32 10863.6 3403.29C10855.9 3393.18 10845.7 3388.12 10833 3388.12C10820.5 3388.12 10810.4 3393.08 10802.8 3403.02C10795.1 3412.95 10791.3 3427.17 10791.3 3445.68ZM10956 3370.07L10956.7 3386.48C10967.5 3373.72 10982.2 3367.34 11000.6 3367.34C11021.3 3367.34 11035.4 3375.27 11042.8 3391.12C11047.8 3384.02 11054.1 3378.27 11062 3373.9C11069.9 3369.52 11079.2 3367.34 11090 3367.34C11122.4 3367.34 11138.9 3384.52 11139.5 3418.88V3518H11114.2V3420.38C11114.2 3409.81 11111.8 3401.93 11107 3396.73C11102.1 3391.44 11094 3388.8 11082.6 3388.8C11073.2 3388.8 11065.4 3391.63 11059.2 3397.28C11053 3402.84 11049.4 3410.36 11048.4 3419.84V3518H11023V3421.07C11023 3399.56 11012.5 3388.8 10991.4 3388.8C10974.8 3388.8 10963.5 3395.86 10957.4 3409.99V3518H10932.1V3370.07H10956ZM11239.2 3520.73C11219.1 3520.73 11202.8 3514.17 11190.2 3501.05C11177.6 3487.83 11171.3 3470.19 11171.3 3448.14V3443.49C11171.3 3428.81 11174.1 3415.73 11179.7 3404.25C11185.3 3392.67 11193.2 3383.65 11203.2 3377.18C11213.3 3370.62 11224.3 3367.34 11236 3367.34C11255.2 3367.34 11270.2 3373.67 11280.9 3386.34C11291.5 3399.01 11296.9 3417.15 11296.9 3440.75V3451.28H11196.6C11197 3465.86 11201.2 3477.67 11209.4 3486.69C11217.6 3495.62 11227.9 3500.09 11240.5 3500.09C11249.5 3500.09 11257 3498.27 11263.2 3494.62C11269.4 3490.98 11274.8 3486.14 11279.5 3480.13L11294.9 3492.16C11282.5 3511.21 11264 3520.73 11239.2 3520.73ZM11236 3388.12C11225.8 3388.12 11217.2 3391.85 11210.3 3399.33C11203.4 3406.71 11199.1 3417.1 11197.5 3430.5H11271.6V3428.59C11270.8 3415.73 11267.4 3405.8 11261.2 3398.78C11255 3391.67 11246.6 3388.12 11236 3388.12ZM11350.2 3370.07L11351 3388.66C11362.3 3374.45 11377.1 3367.34 11395.3 3367.34C11426.6 3367.34 11442.3 3384.97 11442.6 3420.25V3518H11417.3V3420.11C11417.2 3409.45 11414.8 3401.56 11409.9 3396.46C11405.2 3391.35 11397.8 3388.8 11387.6 3388.8C11379.4 3388.8 11372.2 3390.99 11366 3395.36C11359.8 3399.74 11355 3405.48 11351.5 3412.59V3518H11326.2V3370.07H11350.2ZM11515.1 3334.25V3370.07H11542.7V3389.62H11515.1V3481.36C11515.1 3487.28 11516.3 3491.75 11518.8 3494.76C11521.2 3497.67 11525.4 3499.13 11531.3 3499.13C11534.2 3499.13 11538.3 3498.59 11543.4 3497.49V3518C11536.7 3519.82 11530.2 3520.73 11523.9 3520.73C11512.6 3520.73 11504.1 3517.32 11498.4 3510.48C11492.6 3503.64 11489.8 3493.94 11489.8 3481.36V3389.62H11462.8V3370.07H11489.8V3334.25H11515.1ZM11663.7 3518C11662.2 3515.08 11661 3509.89 11660.1 3502.41C11648.4 3514.63 11634.3 3520.73 11618 3520.73C11603.4 3520.73 11591.4 3516.63 11582.1 3508.43C11572.8 3500.14 11568.1 3489.65 11568.1 3476.98C11568.1 3461.58 11573.9 3449.64 11585.6 3441.16C11597.4 3432.6 11613.9 3428.31 11635.1 3428.31H11659.7V3416.69C11659.7 3407.85 11657.1 3400.83 11651.8 3395.64C11646.5 3390.35 11638.7 3387.71 11628.4 3387.71C11619.4 3387.71 11611.8 3389.99 11605.7 3394.54C11599.6 3399.1 11596.5 3404.61 11596.5 3411.09H11571.1C11571.1 3403.7 11573.7 3396.59 11578.9 3389.76C11584.2 3382.83 11591.3 3377.36 11600.2 3373.35C11609.3 3369.34 11619.1 3367.34 11629.9 3367.34C11646.9 3367.34 11660.3 3371.62 11670 3380.19C11679.6 3388.66 11684.6 3400.38 11685 3415.32V3483.41C11685 3496.99 11686.7 3507.79 11690.2 3515.81V3518H11663.7ZM11621.7 3498.72C11629.6 3498.72 11637.1 3496.67 11644.3 3492.57C11651.4 3488.47 11656.5 3483.14 11659.7 3476.57V3446.22H11639.9C11608.9 3446.22 11593.4 3455.29 11593.4 3473.43C11593.4 3481.36 11596 3487.56 11601.3 3492.02C11606.6 3496.49 11613.4 3498.72 11621.7 3498.72ZM11645.1 3308H11675.7L11639.1 3348.2H11618.7L11645.1 3308ZM11796.2 3392.77C11792.3 3392.13 11788.2 3391.81 11783.7 3391.81C11767.1 3391.81 11755.9 3398.87 11749.9 3413V3518H11724.6V3370.07H11749.3L11749.7 3387.16C11758 3373.94 11769.7 3367.34 11784.9 3367.34C11789.9 3367.34 11793.6 3367.97 11796.2 3369.25V3392.77ZM11847 3518H11821.7V3370.07H11847V3518ZM11819.7 3330.83C11819.7 3326.73 11820.9 3323.27 11823.4 3320.44C11825.9 3317.62 11829.6 3316.2 11834.6 3316.2C11839.5 3316.2 11843.2 3317.62 11845.8 3320.44C11848.3 3323.27 11849.6 3326.73 11849.6 3330.83C11849.6 3334.93 11848.3 3338.35 11845.8 3341.09C11843.2 3343.82 11839.5 3345.19 11834.6 3345.19C11829.6 3345.19 11825.9 3343.82 11823.4 3341.09C11820.9 3338.35 11819.7 3334.93 11819.7 3330.83ZM11880.9 3442.67C11880.9 3428.18 11883.7 3415.14 11889.4 3403.57C11895.1 3391.99 11903.1 3383.06 11913.2 3376.77C11923.4 3370.48 11935 3367.34 11948 3367.34C11968.2 3367.34 11984.5 3374.31 11996.9 3388.25C12009.3 3402.2 12015.6 3420.75 12015.6 3443.9V3445.68C12015.6 3460.08 12012.8 3473.02 12007.2 3484.5C12001.8 3495.9 11993.9 3504.78 11983.6 3511.16C11973.4 3517.54 11961.6 3520.73 11948.3 3520.73C11928.3 3520.73 11912 3513.76 11899.5 3499.82C11887.1 3485.87 11880.9 3467.41 11880.9 3444.45V3442.67ZM11906.3 3445.68C11906.3 3462.08 11910.1 3475.25 11917.7 3485.19C11925.4 3495.12 11935.6 3500.09 11948.3 3500.09C11961.2 3500.09 11971.4 3495.08 11978.9 3485.05C11986.5 3474.93 11990.3 3460.81 11990.3 3442.67C11990.3 3426.44 11986.4 3413.32 11978.7 3403.29C11971 3393.18 11960.8 3388.12 11948 3388.12C11935.6 3388.12 11925.5 3393.08 11917.8 3403.02C11910.2 3412.95 11906.3 3427.17 11906.3 3445.68ZM12133.4 3478.76C12133.4 3471.93 12130.8 3466.64 12125.6 3462.9C12120.5 3459.07 12111.6 3455.79 12098.7 3453.06C12086 3450.32 12075.8 3447.04 12068.2 3443.21C12060.7 3439.39 12055.2 3434.83 12051.5 3429.54C12048 3424.26 12046.2 3417.97 12046.2 3410.68C12046.2 3398.55 12051.3 3388.3 12061.5 3379.91C12071.8 3371.53 12084.9 3367.34 12100.9 3367.34C12117.7 3367.34 12131.2 3371.67 12141.6 3380.32C12152.1 3388.98 12157.4 3400.06 12157.4 3413.55H12131.9C12131.9 3406.62 12129 3400.65 12123 3395.64C12117.2 3390.62 12109.8 3388.12 12100.9 3388.12C12091.7 3388.12 12084.5 3390.12 12079.3 3394.13C12074.1 3398.14 12071.5 3403.38 12071.5 3409.86C12071.5 3415.96 12073.9 3420.57 12078.8 3423.66C12083.6 3426.76 12092.3 3429.73 12104.9 3432.55C12117.5 3435.38 12127.8 3438.75 12135.6 3442.67C12143.5 3446.59 12149.3 3451.33 12153 3456.89C12156.8 3462.36 12158.7 3469.05 12158.7 3476.98C12158.7 3490.2 12153.4 3500.82 12142.9 3508.84C12132.3 3516.77 12118.6 3520.73 12101.7 3520.73C12089.9 3520.73 12079.4 3518.64 12070.3 3514.45C12061.2 3510.25 12054 3504.42 12048.8 3496.95C12043.7 3489.38 12041.2 3481.22 12041.2 3472.47H12066.4C12066.9 3480.95 12070.3 3487.69 12076.6 3492.71C12082.9 3497.63 12091.3 3500.09 12101.7 3500.09C12111.3 3500.09 12118.9 3498.18 12124.7 3494.35C12130.5 3490.43 12133.4 3485.23 12133.4 3478.76ZM10456.3 3771.76H10389.6V3751.12H10456.3V3771.76ZM10638 3846H10611.6V3753.99H10511.3V3846H10485V3646.94H10511.3V3732.52H10611.6V3646.94H10638V3846ZM10742.1 3848.73C10722 3848.73 10705.7 3842.17 10693.1 3829.05C10680.5 3815.83 10674.2 3798.19 10674.2 3776.14V3771.49C10674.2 3756.81 10677 3743.73 10682.6 3732.25C10688.2 3720.67 10696.1 3711.65 10706.1 3705.18C10716.2 3698.62 10727.1 3695.34 10738.9 3695.34C10758.1 3695.34 10773.1 3701.67 10783.8 3714.34C10794.4 3727.01 10799.7 3745.15 10799.7 3768.75V3779.28H10699.5C10699.9 3793.86 10704.1 3805.67 10712.2 3814.69C10720.4 3823.62 10730.8 3828.09 10743.4 3828.09C10752.4 3828.09 10759.9 3826.27 10766.1 3822.62C10772.3 3818.98 10777.7 3814.14 10782.4 3808.13L10797.8 3820.16C10785.4 3839.21 10766.8 3848.73 10742.1 3848.73ZM10738.9 3716.12C10728.7 3716.12 10720.1 3719.85 10713.2 3727.33C10706.3 3734.71 10702 3745.1 10700.4 3758.5H10774.5V3756.59C10773.7 3743.73 10770.3 3733.8 10764.1 3726.78C10757.9 3719.67 10749.5 3716.12 10738.9 3716.12ZM10900.6 3720.77C10896.8 3720.13 10892.7 3719.81 10888.2 3719.81C10871.6 3719.81 10860.4 3726.87 10854.4 3741V3846H10829.1V3698.07H10853.8L10854.2 3715.16C10862.5 3701.94 10874.2 3695.34 10889.4 3695.34C10894.4 3695.34 10898.1 3695.97 10900.6 3697.25V3720.77ZM10914.6 3770.67C10914.6 3756.18 10917.4 3743.14 10923.1 3731.57C10928.8 3719.99 10936.7 3711.06 10946.9 3704.77C10957.1 3698.48 10968.7 3695.34 10981.7 3695.34C11001.9 3695.34 11018.1 3702.31 11030.5 3716.25C11043 3730.2 11049.3 3748.75 11049.3 3771.9V3773.68C11049.3 3788.08 11046.5 3801.02 11040.9 3812.5C11035.4 3823.9 11027.6 3832.78 11017.3 3839.16C11007.1 3845.54 10995.3 3848.73 10982 3848.73C10961.9 3848.73 10945.7 3841.76 10933.2 3827.82C10920.8 3813.87 10914.6 3795.41 10914.6 3772.45V3770.67ZM10940 3773.68C10940 3790.08 10943.8 3803.25 10951.4 3813.19C10959 3823.12 10969.2 3828.09 10982 3828.09C10994.8 3828.09 11005.1 3823.08 11012.6 3813.05C11020.2 3802.93 11024 3788.81 11024 3770.67C11024 3754.44 11020.1 3741.32 11012.3 3731.29C11004.7 3721.18 10994.5 3716.12 10981.7 3716.12C10969.2 3716.12 10959.2 3721.08 10951.5 3731.02C10943.8 3740.95 10940 3755.17 10940 3773.68ZM11122.3 3777.5L11106.4 3794.05V3846H11081.1V3636H11106.4V3763.01L11119.9 3746.74L11166 3698.07H11196.8L11139.2 3759.87L11203.5 3846H11173.8L11122.3 3777.5ZM11314.2 3831.37C11304.4 3842.95 11289.9 3848.73 11270.9 3848.73C11255.1 3848.73 11243.1 3844.18 11234.8 3835.06C11226.6 3825.86 11222.4 3812.28 11222.3 3794.32V3698.07H11247.6V3793.64C11247.6 3816.06 11256.8 3827.27 11275 3827.27C11294.3 3827.27 11307.2 3820.07 11313.5 3805.67V3698.07H11338.8V3846H11314.8L11314.2 3831.37Z" fill="white"/>
<path d="M7305.78 3324.45C7238.77 2983.76 6940.19 2728 6581.5 2728C6296.71 2728 6049.38 2889.95 5926.2 3126.95C5629.59 3158.55 5399 3410.36 5399 3715.5C5399 4042.36 5664.08 4308 5990.25 4308H7271.29C7543.27 4308 7764 4086.8 7764 3814.25C7764 3553.55 7561.99 3342.22 7305.78 3324.45ZM7271.29 4110.5H5990.25C5772.47 4110.5 5596.08 3933.74 5596.08 3715.5C5596.08 3497.26 5772.47 3320.5 5990.25 3320.5H6060.21C6125.25 3092.39 6333.17 2925.5 6581.5 2925.5C6881.07 2925.5 7123.48 3168.43 7123.48 3468.62V3518H7271.29C7434.87 3518 7566.92 3650.33 7566.92 3814.25C7566.92 3978.18 7434.87 4110.5 7271.29 4110.5Z" fill="black"/>
<path d="M9160.89 1604.7C9159.63 1590.95 9147.45 1580.84 9133.7 1582.11L8909.65 1602.78C8895.91 1604.05 8885.79 1616.23 8887.06 1629.98C8888.33 1643.72 8900.5 1653.84 8914.25 1652.57L9113.4 1634.19L9131.78 1833.35C9133.05 1847.09 9145.23 1857.21 9158.98 1855.94C9172.72 1854.67 9182.84 1842.5 9181.57 1828.75L9160.89 1604.7ZM7783.23 3273.98L9155.23 1622.98L9116.77 1591.02L7744.77 3242.02L7783.23 3273.98Z" fill="black"/>
<path d="M9275.68 3763.68C9285.44 3753.91 9285.44 3738.09 9275.68 3728.32L9116.58 3569.22C9106.82 3559.46 9090.99 3559.46 9081.22 3569.22C9071.46 3578.99 9071.46 3594.82 9081.22 3604.58L9222.64 3746L9081.22 3887.42C9071.46 3897.18 9071.46 3913.01 9081.22 3922.78C9090.99 3932.54 9106.82 3932.54 9116.58 3922.78L9275.68 3763.68ZM8018 3771H9258V3721H8018V3771Z" fill="black"/>
<path d="M10914.3 5184.68C10924.1 5194.44 10939.9 5194.44 10949.7 5184.68L11108.8 5025.58C11118.5 5015.82 11118.5 4999.99 11108.8 4990.22C11099 4980.46 11083.2 4980.46 11073.4 4990.22L10932 5131.64L10790.6 4990.22C10780.8 4980.46 10765 4980.46 10755.2 4990.22C10745.5 4999.99 10745.5 5015.82 10755.2 5025.58L10914.3 5184.68ZM10907 4489L10907 5167L10957 5167L10957 4489L10907 4489Z" fill="black"/>
<path d="M5159.68 3703.68C5169.44 3693.91 5169.44 3678.09 5159.68 3668.32L5000.58 3509.22C4990.82 3499.46 4974.99 3499.46 4965.22 3509.22C4955.46 3518.99 4955.46 3534.82 4965.22 3544.58L5106.64 3686L4965.22 3827.42C4955.46 3837.18 4955.46 3853.01 4965.22 3862.78C4974.99 3872.54 4990.82 3872.54 5000.58 3862.78L5159.68 3703.68ZM4101 3711H5142V3661H4101V3711Z" fill="black"/>
</svg>
