<svg width="13099" height="7421" viewBox="0 0 13099 7421" fill="none" xmlns="http://www.w3.org/2000/svg">
<rect x="25" y="25" width="13049" height="7371" fill="white" stroke="black" stroke-width="50"/>
<rect x="672" y="593" width="3284" height="6186" rx="30" fill="white" stroke="black" stroke-width="50"/>
<rect x="9436" y="568" width="2992" height="1428" rx="55" fill="black"/>
<rect x="9436" y="2804" width="2992" height="1428" rx="55" fill="#79589F"/>
<rect x="9436" y="5424" width="2992" height="1428" rx="55" fill="#5DAC52"/>
<path d="M9939.11 6070V5870.94H10004.2C10025.8 5870.94 10042 5875.4 10052.9 5884.34C10063.8 5893.27 10069.3 5906.48 10069.3 5923.98C10069.3 5933.28 10066.6 5941.53 10061.3 5948.73C10056 5955.84 10048.8 5961.35 10039.7 5965.27C10050.5 5968.28 10059 5974.02 10065.2 5982.5C10071.4 5990.89 10074.6 6000.91 10074.6 6012.58C10074.6 6030.44 10068.8 6044.48 10057.2 6054.69C10045.7 6064.9 10029.3 6070 10008.1 6070H9939.11ZM9965.36 5976.89V6048.54H10008.7C10020.9 6048.54 10030.5 6045.39 10037.5 6039.1C10044.7 6032.72 10048.2 6023.97 10048.2 6012.85C10048.2 5988.88 10035.2 5976.89 10009.1 5976.89H9965.36ZM9965.36 5955.84H10005C10016.5 5955.84 10025.6 5952.97 10032.5 5947.23C10039.4 5941.48 10042.9 5933.69 10042.9 5923.85C10042.9 5912.91 10039.7 5904.98 10033.3 5900.06C10026.9 5895.05 10017.2 5892.54 10004.2 5892.54H9965.36V5955.84ZM10200.9 6070C10199.5 6067.08 10198.3 6061.89 10197.4 6054.41C10185.6 6066.63 10171.6 6072.73 10155.3 6072.73C10140.7 6072.73 10128.7 6068.63 10119.3 6060.43C10110 6052.14 10105.4 6041.65 10105.4 6028.98C10105.4 6013.58 10111.2 6001.64 10122.9 5993.16C10134.6 5984.6 10151.1 5980.31 10172.3 5980.31H10197V5968.69C10197 5959.85 10194.3 5952.83 10189 5947.64C10183.7 5942.35 10175.9 5939.71 10165.6 5939.71C10156.6 5939.71 10149.1 5941.99 10143 5946.54C10136.8 5951.1 10133.8 5956.61 10133.8 5963.09H10108.4C10108.4 5955.7 10111 5948.59 10116.2 5941.76C10121.4 5934.83 10128.6 5929.36 10137.5 5925.35C10146.5 5921.34 10156.4 5919.34 10167.2 5919.34C10184.2 5919.34 10197.5 5923.62 10207.2 5932.19C10216.9 5940.66 10221.9 5952.38 10222.2 5967.32V6035.41C10222.2 6048.99 10224 6059.79 10227.4 6067.81V6070H10200.9ZM10158.9 6050.72C10166.9 6050.72 10174.4 6048.67 10181.5 6044.57C10188.6 6040.47 10193.8 6035.14 10197 6028.57V5998.22H10177.1C10146.1 5998.22 10130.6 6007.29 10130.6 6025.43C10130.6 6033.36 10133.3 6039.56 10138.6 6044.02C10143.9 6048.49 10150.7 6050.72 10158.9 6050.72ZM10285.8 5922.07L10286.6 5940.66C10297.9 5926.45 10312.7 5919.34 10330.9 5919.34C10362.2 5919.34 10378 5936.97 10378.2 5972.25V6070H10353V5972.11C10352.9 5961.45 10350.4 5953.56 10345.6 5948.46C10340.8 5943.35 10333.4 5940.8 10323.3 5940.8C10315.1 5940.8 10307.9 5942.99 10301.7 5947.36C10295.5 5951.74 10290.7 5957.48 10287.2 5964.59V6070H10261.9V5922.07H10285.8ZM10475.7 6052.09C10484.8 6052.09 10492.6 6049.36 10499.4 6043.89C10506.1 6038.42 10509.9 6031.58 10510.6 6023.38H10534.5C10534.1 6031.86 10531.1 6039.92 10525.8 6047.58C10520.4 6055.23 10513.2 6061.34 10504.2 6065.9C10495.2 6070.46 10485.8 6072.73 10475.7 6072.73C10455.6 6072.73 10439.5 6066.04 10427.6 6052.64C10415.8 6039.15 10409.8 6020.74 10409.8 5997.4V5993.16C10409.8 5978.76 10412.5 5965.96 10417.8 5954.75C10423 5943.54 10430.6 5934.83 10440.5 5928.63C10450.4 5922.43 10462.1 5919.34 10475.6 5919.34C10492.2 5919.34 10505.9 5924.3 10516.9 5934.24C10527.9 5944.17 10533.8 5957.07 10534.5 5972.93H10510.6C10509.9 5963.36 10506.2 5955.52 10499.7 5949.41C10493.2 5943.22 10485.2 5940.12 10475.6 5940.12C10462.7 5940.12 10452.8 5944.77 10445.6 5954.06C10438.6 5963.27 10435.1 5976.62 10435.1 5994.12V5998.91C10435.1 6015.95 10438.6 6029.08 10445.6 6038.28C10452.7 6047.49 10462.7 6052.09 10475.7 6052.09ZM10556.3 5994.67C10556.3 5980.18 10559.1 5967.14 10564.7 5955.57C10570.5 5943.99 10578.4 5935.06 10588.5 5928.77C10598.7 5922.48 10610.3 5919.34 10623.4 5919.34C10643.5 5919.34 10659.8 5926.31 10672.2 5940.25C10684.7 5954.2 10690.9 5972.75 10690.9 5995.9V5997.68C10690.9 6012.08 10688.1 6025.02 10682.6 6036.5C10677.1 6047.9 10669.2 6056.78 10658.9 6063.16C10648.7 6069.54 10637 6072.73 10623.7 6072.73C10603.6 6072.73 10587.3 6065.76 10574.8 6051.82C10562.5 6037.87 10556.3 6019.41 10556.3 5996.45V5994.67ZM10581.7 5997.68C10581.7 6014.08 10585.5 6027.25 10593 6037.19C10600.7 6047.12 10610.9 6052.09 10623.7 6052.09C10636.5 6052.09 10646.7 6047.08 10654.3 6037.05C10661.8 6026.93 10665.6 6012.81 10665.6 5994.67C10665.6 5978.44 10661.8 5965.32 10654 5955.29C10646.4 5945.18 10636.1 5940.12 10623.4 5940.12C10610.9 5940.12 10600.8 5945.08 10593.2 5955.02C10585.5 5964.95 10581.7 5979.17 10581.7 5997.68ZM10785.9 5994.8C10785.9 5972.11 10791.3 5953.88 10802.1 5940.12C10812.8 5926.26 10826.9 5919.34 10844.3 5919.34C10861.6 5919.34 10875.4 5925.26 10885.5 5937.11V5860H10910.8V6070H10887.5L10886.3 6054.14C10876.2 6066.54 10862.1 6072.73 10844 6072.73C10826.9 6072.73 10812.9 6065.72 10802.1 6051.68C10791.3 6037.64 10785.9 6019.32 10785.9 5996.72V5994.8ZM10811.2 5997.68C10811.2 6014.45 10814.7 6027.57 10821.6 6037.05C10828.6 6046.53 10838.1 6051.27 10850.3 6051.27C10866.4 6051.27 10878.1 6044.07 10885.5 6029.67V5961.72C10877.9 5947.77 10866.3 5940.8 10850.6 5940.8C10838.2 5940.8 10828.6 5945.59 10821.6 5955.16C10814.7 5964.73 10811.2 5978.9 10811.2 5997.68ZM11011.5 6072.73C10991.5 6072.73 10975.2 6066.17 10962.6 6053.05C10950 6039.83 10943.7 6022.19 10943.7 6000.14V5995.49C10943.7 5980.81 10946.5 5967.73 10952.1 5956.25C10957.7 5944.67 10965.5 5935.65 10975.6 5929.18C10985.7 5922.62 10996.6 5919.34 11008.4 5919.34C11027.6 5919.34 11042.6 5925.67 11053.2 5938.34C11063.9 5951.01 11069.2 5969.15 11069.2 5992.75V6003.28H10969C10969.4 6017.86 10973.6 6029.67 10981.7 6038.69C10989.9 6047.62 11000.3 6052.09 11012.9 6052.09C11021.8 6052.09 11029.4 6050.27 11035.6 6046.62C11041.8 6042.98 11047.2 6038.14 11051.9 6032.13L11067.3 6044.16C11054.9 6063.21 11036.3 6072.73 11011.5 6072.73ZM11008.4 5940.12C10998.2 5940.12 10989.6 5943.85 10982.7 5951.33C10975.8 5958.71 10971.5 5969.1 10969.8 5982.5H11043.9V5980.59C11043.2 5967.73 11039.7 5957.8 11033.5 5950.78C11027.3 5943.67 11019 5940.12 11008.4 5940.12ZM11172 6070V5870.94H11228.2C11245.5 5870.94 11260.9 5874.77 11274.2 5882.42C11287.5 5890.08 11297.7 5900.97 11304.9 5915.1C11312.2 5929.23 11315.9 5945.45 11316 5963.77V5976.48C11316 5995.26 11312.4 6011.71 11305.1 6025.84C11297.9 6039.97 11287.5 6050.81 11274 6058.38C11260.6 6065.94 11245 6069.82 11227.1 6070H11172ZM11198.3 5892.54V6048.54H11225.9C11246.1 6048.54 11261.9 6042.25 11273.1 6029.67C11284.4 6017.09 11290 5999.18 11290 5975.94V5964.32C11290 5941.71 11284.7 5924.17 11274 5911.68C11263.5 5899.1 11248.4 5892.72 11228.9 5892.54H11198.3ZM11443.1 6070C11441.7 6067.08 11440.5 6061.89 11439.6 6054.41C11427.8 6066.63 11413.8 6072.73 11397.5 6072.73C11382.9 6072.73 11370.9 6068.63 11361.5 6060.43C11352.2 6052.14 11347.6 6041.65 11347.6 6028.98C11347.6 6013.58 11353.4 6001.64 11365.1 5993.16C11376.8 5984.6 11393.3 5980.31 11414.6 5980.31H11439.2V5968.69C11439.2 5959.85 11436.5 5952.83 11431.3 5947.64C11426 5942.35 11418.2 5939.71 11407.9 5939.71C11398.9 5939.71 11391.3 5941.99 11385.2 5946.54C11379.1 5951.1 11376 5956.61 11376 5963.09H11350.6C11350.6 5955.7 11353.2 5948.59 11358.4 5941.76C11363.7 5934.83 11370.8 5929.36 11379.7 5925.35C11388.7 5921.34 11398.6 5919.34 11409.4 5919.34C11426.4 5919.34 11439.8 5923.62 11449.4 5932.19C11459.1 5940.66 11464.1 5952.38 11464.5 5967.32V6035.41C11464.5 6048.99 11466.2 6059.79 11469.7 6067.81V6070H11443.1ZM11401.2 6050.72C11409.1 6050.72 11416.6 6048.67 11423.7 6044.57C11430.8 6040.47 11436 6035.14 11439.2 6028.57V5998.22H11419.4C11388.4 5998.22 11372.9 6007.29 11372.9 6025.43C11372.9 6033.36 11375.5 6039.56 11380.8 6044.02C11386.1 6048.49 11392.9 6050.72 11401.2 6050.72ZM11498 5994.8C11498 5972.11 11503.4 5953.88 11514.1 5940.12C11524.9 5926.26 11538.9 5919.34 11556.4 5919.34C11573.7 5919.34 11587.4 5925.26 11597.5 5937.11V5860H11622.8V6070H11599.6L11598.3 6054.14C11588.2 6066.54 11574.1 6072.73 11556.1 6072.73C11538.9 6072.73 11525 6065.72 11514.1 6051.68C11503.4 6037.64 11498 6019.32 11498 5996.72V5994.8ZM11523.3 5997.68C11523.3 6014.45 11526.7 6027.57 11533.7 6037.05C11540.6 6046.53 11550.2 6051.27 11562.4 6051.27C11578.4 6051.27 11590.1 6044.07 11597.5 6029.67V5961.72C11589.9 5947.77 11578.3 5940.8 11562.6 5940.8C11550.2 5940.8 11540.6 5945.59 11533.7 5955.16C11526.7 5964.73 11523.3 5978.9 11523.3 5997.68ZM11655.5 5994.67C11655.5 5980.18 11658.3 5967.14 11663.9 5955.57C11669.7 5943.99 11677.6 5935.06 11687.7 5928.77C11697.9 5922.48 11709.6 5919.34 11722.6 5919.34C11742.7 5919.34 11759 5926.31 11771.4 5940.25C11783.9 5954.2 11790.1 5972.75 11790.1 5995.9V5997.68C11790.1 6012.08 11787.4 6025.02 11781.8 6036.5C11776.3 6047.9 11768.4 6056.78 11758.1 6063.16C11747.9 6069.54 11736.2 6072.73 11722.9 6072.73C11702.8 6072.73 11686.6 6065.76 11674.1 6051.82C11661.7 6037.87 11655.5 6019.41 11655.5 5996.45V5994.67ZM11680.9 5997.68C11680.9 6014.08 11684.7 6027.25 11692.2 6037.19C11699.9 6047.12 11710.1 6052.09 11722.9 6052.09C11735.7 6052.09 11745.9 6047.08 11753.5 6037.05C11761.1 6026.93 11764.8 6012.81 11764.8 5994.67C11764.8 5978.44 11761 5965.32 11753.2 5955.29C11745.6 5945.18 11735.4 5940.12 11722.6 5940.12C11710.1 5940.12 11700 5945.08 11692.4 5955.02C11684.7 5964.95 11680.9 5979.17 11680.9 5997.68ZM11908 6030.76C11908 6023.93 11905.4 6018.64 11900.2 6014.9C11895.1 6011.07 11886.1 6007.79 11873.3 6005.06C11860.5 6002.32 11850.3 5999.04 11842.8 5995.21C11835.3 5991.39 11829.7 5986.83 11826.1 5981.54C11822.5 5976.26 11820.8 5969.97 11820.8 5962.68C11820.8 5950.55 11825.9 5940.3 11836.1 5931.91C11846.4 5923.53 11859.5 5919.34 11875.5 5919.34C11892.2 5919.34 11905.8 5923.67 11916.2 5932.32C11926.7 5940.98 11931.9 5952.06 11931.9 5965.55H11906.5C11906.5 5958.62 11903.5 5952.65 11897.6 5947.64C11891.8 5942.62 11884.4 5940.12 11875.5 5940.12C11866.2 5940.12 11859 5942.12 11853.9 5946.13C11848.7 5950.14 11846.1 5955.38 11846.1 5961.86C11846.1 5967.96 11848.5 5972.57 11853.3 5975.66C11858.1 5978.76 11866.8 5981.73 11879.4 5984.55C11892.1 5987.38 11902.3 5990.75 11910.2 5994.67C11918 5998.59 11923.8 6003.33 11927.5 6008.89C11931.4 6014.36 11933.3 6021.05 11933.3 6028.98C11933.3 6042.2 11928 6052.82 11917.4 6060.84C11906.9 6068.77 11893.1 6072.73 11876.3 6072.73C11864.4 6072.73 11853.9 6070.64 11844.8 6066.45C11835.7 6062.25 11828.6 6056.42 11823.4 6048.95C11818.3 6041.38 11815.7 6033.22 11815.7 6024.47H11841C11841.5 6032.95 11844.8 6039.69 11851.1 6044.71C11857.5 6049.63 11865.9 6052.09 11876.3 6052.09C11885.8 6052.09 11893.5 6050.18 11899.2 6046.35C11905.1 6042.43 11908 6037.23 11908 6030.76ZM10265.6 6323.76H10198.9V6303.12H10265.6V6323.76ZM10328.2 6198.94L10393.3 6361.36L10458.4 6198.94H10492.4V6398H10466.2V6320.48L10468.6 6236.81L10403.3 6398H10383.2L10318 6237.22L10320.6 6320.48V6398H10294.3V6198.94H10328.2ZM10528.1 6322.67C10528.1 6308.18 10530.9 6295.14 10536.6 6283.57C10542.3 6271.99 10550.2 6263.06 10560.4 6256.77C10570.6 6250.48 10582.2 6247.34 10595.2 6247.34C10615.4 6247.34 10631.6 6254.31 10644 6268.25C10656.5 6282.2 10662.8 6300.75 10662.8 6323.9V6325.68C10662.8 6340.08 10660 6353.02 10654.4 6364.5C10648.9 6375.9 10641.1 6384.78 10630.8 6391.16C10620.6 6397.54 10608.8 6400.73 10595.5 6400.73C10575.4 6400.73 10559.2 6393.76 10546.7 6379.82C10534.3 6365.87 10528.1 6347.41 10528.1 6324.45V6322.67ZM10553.5 6325.68C10553.5 6342.08 10557.3 6355.25 10564.9 6365.19C10572.5 6375.12 10582.7 6380.09 10595.5 6380.09C10608.3 6380.09 10618.6 6375.08 10626.1 6365.05C10633.7 6354.93 10637.5 6340.81 10637.5 6322.67C10637.5 6306.44 10633.6 6293.32 10625.8 6283.29C10618.2 6273.18 10608 6268.12 10595.2 6268.12C10582.7 6268.12 10572.7 6273.08 10565 6283.02C10557.3 6292.95 10553.5 6307.17 10553.5 6325.68ZM10718.4 6250.07L10719.2 6268.66C10730.5 6254.45 10745.3 6247.34 10763.5 6247.34C10794.8 6247.34 10810.6 6264.97 10810.8 6300.25V6398H10785.5V6300.11C10785.4 6289.45 10783 6281.56 10778.1 6276.46C10773.4 6271.35 10766 6268.8 10755.9 6268.8C10747.7 6268.8 10740.5 6270.99 10734.3 6275.36C10728.1 6279.74 10723.2 6285.48 10719.8 6292.59V6398H10694.5V6250.07H10718.4ZM10842.8 6322.8C10842.8 6300.11 10848.2 6281.88 10858.9 6268.12C10869.7 6254.26 10883.8 6247.34 10901.2 6247.34C10918.5 6247.34 10932.2 6253.26 10942.3 6265.11V6188H10967.6V6398H10944.4L10943.2 6382.14C10933.1 6394.54 10919 6400.73 10900.9 6400.73C10883.8 6400.73 10869.8 6393.72 10858.9 6379.68C10848.2 6365.64 10842.8 6347.32 10842.8 6324.72V6322.8ZM10868.1 6325.68C10868.1 6342.45 10871.6 6355.57 10878.5 6365.05C10885.4 6374.53 10895 6379.27 10907.2 6379.27C10923.3 6379.27 10935 6372.07 10942.3 6357.67V6289.72C10934.8 6275.77 10923.2 6268.8 10907.5 6268.8C10895.1 6268.8 10885.4 6273.59 10878.5 6283.16C10871.6 6292.73 10868.1 6306.9 10868.1 6325.68ZM11000.3 6322.67C11000.3 6308.18 11003.1 6295.14 11008.8 6283.57C11014.5 6271.99 11022.5 6263.06 11032.6 6256.77C11042.8 6250.48 11054.4 6247.34 11067.4 6247.34C11087.6 6247.34 11103.9 6254.31 11116.3 6268.25C11128.7 6282.2 11135 6300.75 11135 6323.9V6325.68C11135 6340.08 11132.2 6353.02 11126.6 6364.5C11121.2 6375.9 11113.3 6384.78 11103 6391.16C11092.8 6397.54 11081 6400.73 11067.7 6400.73C11047.7 6400.73 11031.4 6393.76 11018.9 6379.82C11006.5 6365.87 11000.3 6347.41 11000.3 6324.45V6322.67ZM11025.7 6325.68C11025.7 6342.08 11029.5 6355.25 11037.1 6365.19C11044.8 6375.12 11055 6380.09 11067.7 6380.09C11080.6 6380.09 11090.8 6375.08 11098.3 6365.05C11105.9 6354.93 11109.7 6340.81 11109.7 6322.67C11109.7 6306.44 11105.8 6293.32 11098.1 6283.29C11090.4 6273.18 11080.2 6268.12 11067.4 6268.12C11055 6268.12 11044.9 6273.08 11037.2 6283.02C11029.6 6292.95 11025.7 6307.17 11025.7 6325.68ZM11170.7 6398V6198.94H11226.9C11244.2 6198.94 11259.5 6202.77 11272.8 6210.42C11286.1 6218.08 11296.4 6228.97 11303.6 6243.1C11310.9 6257.23 11314.5 6273.45 11314.6 6291.77V6304.48C11314.6 6323.26 11311 6339.71 11303.7 6353.84C11296.5 6367.97 11286.1 6378.81 11272.7 6386.38C11259.3 6393.94 11243.6 6397.82 11225.8 6398H11170.7ZM11196.9 6220.54V6376.54H11224.5C11244.8 6376.54 11260.5 6370.25 11271.7 6357.67C11283 6345.09 11288.7 6327.18 11288.7 6303.94V6292.32C11288.7 6269.71 11283.3 6252.17 11272.7 6239.68C11262.1 6227.1 11247 6220.72 11227.5 6220.54H11196.9ZM11354.4 6398V6198.94H11419.5C11441.1 6198.94 11457.3 6203.4 11468.2 6212.34C11479.1 6221.27 11484.6 6234.48 11484.6 6251.98C11484.6 6261.28 11481.9 6269.53 11476.6 6276.73C11471.4 6283.84 11464.2 6289.35 11455 6293.27C11465.8 6296.28 11474.3 6302.02 11480.5 6310.5C11486.8 6318.89 11489.9 6328.91 11489.9 6340.58C11489.9 6358.44 11484.1 6372.48 11472.5 6382.69C11461 6392.9 11444.6 6398 11423.5 6398H11354.4ZM11380.7 6304.89V6376.54H11424C11436.2 6376.54 11445.8 6373.39 11452.9 6367.1C11460 6360.72 11463.5 6351.97 11463.5 6340.85C11463.5 6316.88 11450.5 6304.89 11424.4 6304.89H11380.7ZM11380.7 6283.84H11420.3C11431.8 6283.84 11441 6280.97 11447.8 6275.23C11454.7 6269.48 11458.2 6261.69 11458.2 6251.85C11458.2 6240.91 11455 6232.98 11448.6 6228.06C11442.2 6223.05 11432.5 6220.54 11419.5 6220.54H11380.7V6283.84Z" fill="white"/>
<path d="M1598.56 1371H1560.87L1417.7 1151.86V1371H1380.01V1086.62H1417.7L1561.26 1306.74V1086.62H1598.56V1371ZM1789.97 1371C1787.89 1366.83 1786.19 1359.41 1784.89 1348.73C1768.09 1366.18 1748.04 1374.91 1724.73 1374.91C1703.9 1374.91 1686.78 1369.05 1673.37 1357.33C1660.09 1345.48 1653.45 1330.51 1653.45 1312.41C1653.45 1290.4 1661.78 1273.34 1678.45 1261.23C1695.24 1248.99 1718.81 1242.88 1749.15 1242.88H1784.3V1226.27C1784.3 1213.64 1780.53 1203.62 1772.98 1196.2C1765.42 1188.64 1754.29 1184.87 1739.58 1184.87C1726.69 1184.87 1715.88 1188.12 1707.16 1194.63C1698.43 1201.14 1694.07 1209.02 1694.07 1218.27H1657.74C1657.74 1207.72 1661.45 1197.56 1668.88 1187.8C1676.43 1177.9 1686.58 1170.09 1699.34 1164.36C1712.23 1158.63 1726.36 1155.77 1741.73 1155.77C1766.08 1155.77 1785.15 1161.89 1798.95 1174.12C1812.76 1186.23 1819.92 1202.97 1820.44 1224.32V1321.59C1820.44 1340.99 1822.91 1356.42 1827.86 1367.88V1371H1789.97ZM1730.01 1343.46C1741.34 1343.46 1752.08 1340.53 1762.23 1334.67C1772.39 1328.81 1779.75 1321.2 1784.3 1311.82V1268.46H1755.98C1711.71 1268.46 1689.58 1281.42 1689.58 1307.33C1689.58 1318.66 1693.35 1327.51 1700.91 1333.89C1708.46 1340.27 1718.16 1343.46 1730.01 1343.46ZM1943.68 1321.98L1996.02 1159.67H2032.94L1957.16 1371H1929.62L1853.05 1159.67H1889.97L1943.68 1321.98ZM2152.66 1374.91C2124.02 1374.91 2100.71 1365.53 2082.74 1346.78C2064.77 1327.9 2055.79 1302.71 2055.79 1271.2V1264.55C2055.79 1243.59 2059.76 1224.91 2067.7 1208.5C2075.78 1191.96 2086.97 1179.07 2101.3 1169.83C2115.75 1160.45 2131.38 1155.77 2148.17 1155.77C2175.65 1155.77 2197 1164.82 2212.23 1182.91C2227.47 1201.01 2235.09 1226.92 2235.09 1260.65V1275.69H2091.92C2092.44 1296.52 2098.5 1313.38 2110.09 1326.27C2121.8 1339.03 2136.65 1345.41 2154.62 1345.41C2167.38 1345.41 2178.18 1342.81 2187.04 1337.6C2195.89 1332.39 2203.64 1325.49 2210.28 1316.9L2232.35 1334.09C2214.64 1361.3 2188.08 1374.91 2152.66 1374.91ZM2148.17 1185.45C2133.59 1185.45 2121.35 1190.79 2111.45 1201.47C2101.56 1212.02 2095.44 1226.86 2093.09 1246H2198.95V1243.27C2197.91 1224.91 2192.96 1210.71 2184.11 1200.69C2175.26 1190.53 2163.28 1185.45 2148.17 1185.45ZM2268.48 1263.58C2268.48 1230.64 2276.1 1204.46 2291.34 1185.06C2306.57 1165.53 2326.75 1155.77 2351.88 1155.77C2377.66 1155.77 2397.78 1164.88 2412.23 1183.11L2413.99 1159.67H2447V1365.92C2447 1393.27 2438.86 1414.82 2422.59 1430.57C2406.44 1446.33 2384.7 1454.2 2357.35 1454.2C2342.12 1454.2 2327.21 1450.95 2312.62 1444.44C2298.04 1437.93 2286.91 1429.01 2279.23 1417.68L2297.98 1396C2313.47 1415.14 2332.42 1424.71 2354.81 1424.71C2372.39 1424.71 2386.06 1419.76 2395.83 1409.87C2405.72 1399.97 2410.67 1386.04 2410.67 1368.07V1349.91C2396.22 1366.57 2376.49 1374.91 2351.49 1374.91C2326.75 1374.91 2306.7 1364.95 2291.34 1345.02C2276.1 1325.1 2268.48 1297.95 2268.48 1263.58ZM2304.81 1267.68C2304.81 1291.51 2309.7 1310.26 2319.46 1323.93C2329.23 1337.47 2342.9 1344.24 2360.48 1344.24C2383.26 1344.24 2399.99 1333.89 2410.67 1313.19V1216.7C2399.6 1196.52 2383 1186.43 2360.87 1186.43C2343.29 1186.43 2329.55 1193.27 2319.66 1206.94C2309.76 1220.61 2304.81 1240.86 2304.81 1267.68ZM2632.16 1371C2630.07 1366.83 2628.38 1359.41 2627.08 1348.73C2610.28 1366.18 2590.23 1374.91 2566.92 1374.91C2546.09 1374.91 2528.97 1369.05 2515.55 1357.33C2502.27 1345.48 2495.63 1330.51 2495.63 1312.41C2495.63 1290.4 2503.97 1273.34 2520.63 1261.23C2537.43 1248.99 2561 1242.88 2591.34 1242.88H2626.49V1226.27C2626.49 1213.64 2622.72 1203.62 2615.16 1196.2C2607.61 1188.64 2596.48 1184.87 2581.77 1184.87C2568.88 1184.87 2558.07 1188.12 2549.34 1194.63C2540.62 1201.14 2536.26 1209.02 2536.26 1218.27H2499.93C2499.93 1207.72 2503.64 1197.56 2511.06 1187.8C2518.61 1177.9 2528.77 1170.09 2541.53 1164.36C2554.42 1158.63 2568.55 1155.77 2583.91 1155.77C2608.26 1155.77 2627.34 1161.89 2641.14 1174.12C2654.94 1186.23 2662.1 1202.97 2662.62 1224.32V1321.59C2662.62 1340.99 2665.1 1356.42 2670.05 1367.88V1371H2632.16ZM2572.2 1343.46C2583.52 1343.46 2594.27 1340.53 2604.42 1334.67C2614.58 1328.81 2621.93 1321.2 2626.49 1311.82V1268.46H2598.17C2553.9 1268.46 2531.77 1281.42 2531.77 1307.33C2531.77 1318.66 2535.54 1327.51 2543.09 1333.89C2550.65 1340.27 2560.35 1343.46 2572.2 1343.46ZM2710.48 1263.58C2710.48 1231.16 2718.16 1205.11 2733.52 1185.45C2748.89 1165.66 2769.01 1155.77 2793.88 1155.77C2818.61 1155.77 2838.21 1164.23 2852.66 1181.16V1071H2888.8V1371H2855.59L2853.84 1348.34C2839.38 1366.05 2819.27 1374.91 2793.48 1374.91C2769.01 1374.91 2749.02 1364.88 2733.52 1344.83C2718.16 1324.78 2710.48 1298.6 2710.48 1266.31V1263.58ZM2746.61 1267.68C2746.61 1291.64 2751.56 1310.39 2761.45 1323.93C2771.35 1337.47 2785.02 1344.24 2802.47 1344.24C2825.39 1344.24 2842.12 1333.96 2852.66 1313.38V1216.31C2841.86 1196.39 2825.26 1186.43 2802.86 1186.43C2785.15 1186.43 2771.35 1193.27 2761.45 1206.94C2751.56 1220.61 2746.61 1240.86 2746.61 1267.68ZM2935.48 1263.38C2935.48 1242.68 2939.51 1224.06 2947.59 1207.52C2955.79 1190.99 2967.12 1178.23 2981.57 1169.24C2996.15 1160.26 3012.76 1155.77 3031.38 1155.77C3060.15 1155.77 3083.39 1165.73 3101.1 1185.65C3118.94 1205.57 3127.86 1232.07 3127.86 1265.14V1267.68C3127.86 1288.25 3123.89 1306.74 3115.95 1323.15C3108.13 1339.42 3096.87 1352.12 3082.16 1361.23C3067.57 1370.35 3050.78 1374.91 3031.77 1374.91C3003.12 1374.91 2979.88 1364.95 2962.04 1345.02C2944.33 1325.1 2935.48 1298.73 2935.48 1265.92V1263.38ZM2971.8 1267.68C2971.8 1291.12 2977.21 1309.93 2988.02 1324.12C2998.95 1338.32 3013.54 1345.41 3031.77 1345.41C3050.12 1345.41 3064.71 1338.25 3075.52 1323.93C3086.32 1309.48 3091.73 1289.29 3091.73 1263.38C3091.73 1240.21 3086.19 1221.46 3075.12 1207.13C3064.19 1192.68 3049.6 1185.45 3031.38 1185.45C3013.54 1185.45 2999.15 1192.55 2988.21 1206.74C2977.27 1220.93 2971.8 1241.25 2971.8 1267.68ZM3275.32 1192.09C3269.85 1191.18 3263.93 1190.73 3257.55 1190.73C3233.85 1190.73 3217.77 1200.82 3209.3 1221V1371H3173.17V1159.67H3208.33L3208.91 1184.09C3220.76 1165.21 3237.56 1155.77 3259.3 1155.77C3266.34 1155.77 3271.67 1156.68 3275.32 1158.5V1192.09Z" fill="black"/>
<path d="M6077.24 3858H6046.4V3624.1H6077.24V3858ZM6157.24 3684.18L6158.21 3706.03C6171.49 3689.32 6188.84 3680.97 6210.26 3680.97C6246.99 3680.97 6265.52 3701.69 6265.84 3743.14V3858H6236.12V3742.98C6236.01 3730.45 6233.12 3721.18 6227.44 3715.19C6221.88 3709.19 6213.15 3706.19 6201.26 3706.19C6191.62 3706.19 6183.16 3708.76 6175.88 3713.9C6168.59 3719.04 6162.92 3725.79 6158.85 3734.14V3858H6129.13V3684.18H6157.24ZM6350.98 3642.09V3684.18H6383.43V3707.15H6350.98V3814.95C6350.98 3821.91 6352.43 3827.16 6355.32 3830.69C6358.21 3834.12 6363.14 3835.83 6370.1 3835.83C6373.52 3835.83 6378.24 3835.19 6384.23 3833.9V3858C6376.42 3860.14 6368.81 3861.21 6361.42 3861.21C6348.14 3861.21 6338.13 3857.2 6331.38 3849.16C6324.63 3841.13 6321.26 3829.73 6321.26 3814.95V3707.15H6289.61V3684.18H6321.26V3642.09H6350.98ZM6490.42 3861.21C6466.86 3861.21 6447.69 3853.5 6432.91 3838.08C6418.13 3822.55 6410.74 3801.83 6410.74 3775.91V3770.45C6410.74 3753.21 6414.01 3737.84 6420.54 3724.34C6427.18 3710.74 6436.39 3700.14 6448.17 3692.54C6460.06 3684.83 6472.91 3680.97 6486.72 3680.97C6509.32 3680.97 6526.89 3688.41 6539.42 3703.3C6551.95 3718.19 6558.21 3739.5 6558.21 3767.24V3779.61H6440.46C6440.89 3796.74 6445.87 3810.61 6455.4 3821.21C6465.04 3831.71 6477.25 3836.96 6492.03 3836.96C6502.52 3836.96 6511.41 3834.81 6518.69 3830.53C6525.98 3826.25 6532.35 3820.57 6537.81 3813.5L6555.96 3827.64C6541.4 3850.02 6519.55 3861.21 6490.42 3861.21ZM6486.72 3705.39C6474.73 3705.39 6464.66 3709.78 6456.52 3718.56C6448.38 3727.24 6443.35 3739.44 6441.42 3755.19H6528.49V3752.94C6527.64 3737.84 6523.57 3726.16 6516.28 3717.92C6509 3709.56 6499.15 3705.39 6486.72 3705.39ZM6676.77 3710.85C6672.27 3710.1 6667.4 3709.73 6662.15 3709.73C6642.66 3709.73 6629.43 3718.03 6622.47 3734.62V3858H6592.75V3684.18H6621.67L6622.15 3704.26C6631.89 3688.73 6645.71 3680.97 6663.59 3680.97C6669.38 3680.97 6673.77 3681.72 6676.77 3683.22V3710.85ZM6732.35 3684.18L6733.31 3706.03C6746.59 3689.32 6763.94 3680.97 6785.36 3680.97C6822.1 3680.97 6840.62 3701.69 6840.95 3743.14V3858H6811.23V3742.98C6811.12 3730.45 6808.23 3721.18 6802.55 3715.19C6796.98 3709.19 6788.25 3706.19 6776.37 3706.19C6766.73 3706.19 6758.27 3708.76 6750.98 3713.9C6743.7 3719.04 6738.03 3725.79 6733.96 3734.14V3858H6704.24V3684.18H6732.35ZM6957.9 3861.21C6934.33 3861.21 6915.16 3853.5 6900.38 3838.08C6885.6 3822.55 6878.22 3801.83 6878.22 3775.91V3770.45C6878.22 3753.21 6881.48 3737.84 6888.01 3724.34C6894.65 3710.74 6903.86 3700.14 6915.65 3692.54C6927.53 3684.83 6940.38 3680.97 6954.2 3680.97C6976.8 3680.97 6994.36 3688.41 7006.89 3703.3C7019.42 3718.19 7025.69 3739.5 7025.69 3767.24V3779.61H6907.93C6908.36 3796.74 6913.34 3810.61 6922.87 3821.21C6932.51 3831.71 6944.72 3836.96 6959.5 3836.96C6970 3836.96 6978.89 3834.81 6986.17 3830.53C6993.45 3826.25 6999.82 3820.57 7005.29 3813.5L7023.44 3827.64C7008.87 3850.02 6987.03 3861.21 6957.9 3861.21ZM6954.2 3705.39C6942.21 3705.39 6932.14 3709.78 6924 3718.56C6915.86 3727.24 6910.83 3739.44 6908.9 3755.19H6995.97V3752.94C6995.11 3737.84 6991.04 3726.16 6983.76 3717.92C6976.48 3709.56 6966.62 3705.39 6954.2 3705.39ZM7100.55 3642.09V3684.18H7133V3707.15H7100.55V3814.95C7100.55 3821.91 7101.99 3827.16 7104.88 3830.69C7107.78 3834.12 7112.7 3835.83 7119.66 3835.83C7123.09 3835.83 7127.8 3835.19 7133.8 3833.9V3858C7125.98 3860.14 7118.38 3861.21 7110.99 3861.21C7097.71 3861.21 7087.7 3857.2 7080.95 3849.16C7074.2 3841.13 7070.83 3829.73 7070.83 3814.95V3707.15H7039.18V3684.18H7070.83V3642.09H7100.55Z" fill="black"/>
<path d="M1566.37 3503.5V3587H1538.24V3373.72H1616.9C1640.24 3373.72 1658.5 3379.68 1671.69 3391.59C1684.97 3403.5 1691.61 3419.28 1691.61 3438.9C1691.61 3459.61 1685.12 3475.57 1672.13 3486.8C1659.24 3497.94 1640.73 3503.5 1616.61 3503.5H1566.37ZM1566.37 3480.51H1616.9C1631.94 3480.51 1643.46 3476.99 1651.47 3469.96C1659.48 3462.83 1663.48 3452.58 1663.48 3439.2C1663.48 3426.5 1659.48 3416.35 1651.47 3408.73C1643.46 3401.11 1632.48 3397.16 1618.51 3396.86H1566.37V3480.51ZM1819.34 3587C1817.78 3583.88 1816.51 3578.31 1815.54 3570.3C1802.94 3583.39 1787.9 3589.93 1770.42 3589.93C1754.79 3589.93 1741.95 3585.54 1731.89 3576.75C1721.93 3567.86 1716.95 3556.63 1716.95 3543.05C1716.95 3526.55 1723.2 3513.76 1735.7 3504.68C1748.3 3495.5 1765.97 3490.91 1788.73 3490.91H1815.1V3478.46C1815.1 3468.98 1812.26 3461.46 1806.6 3455.9C1800.94 3450.23 1792.59 3447.4 1781.55 3447.4C1771.88 3447.4 1763.78 3449.84 1757.23 3454.72C1750.69 3459.61 1747.42 3465.52 1747.42 3472.45H1720.17C1720.17 3464.54 1722.96 3456.92 1728.52 3449.6C1734.19 3442.18 1741.8 3436.32 1751.38 3432.02C1761.04 3427.72 1771.64 3425.57 1783.16 3425.57C1801.42 3425.57 1815.73 3430.16 1826.08 3439.34C1836.43 3448.43 1841.8 3460.97 1842.2 3476.99V3549.94C1842.2 3564.49 1844.05 3576.06 1847.76 3584.66V3587H1819.34ZM1774.37 3566.35C1782.87 3566.35 1790.93 3564.15 1798.54 3559.75C1806.16 3555.36 1811.68 3549.65 1815.1 3542.62V3510.1H1793.86C1760.65 3510.1 1744.05 3519.81 1744.05 3539.25C1744.05 3547.74 1746.88 3554.38 1752.55 3559.17C1758.21 3563.95 1765.49 3566.35 1774.37 3566.35ZM1799.42 3362H1832.23L1792.98 3405.07H1771.15L1799.42 3362ZM1878.23 3506.43C1878.23 3481.73 1883.94 3462.1 1895.37 3447.55C1906.79 3432.9 1921.93 3425.57 1940.78 3425.57C1960.12 3425.57 1975.2 3432.41 1986.04 3446.08L1987.36 3428.5H2012.12V3583.19C2012.12 3603.7 2006.01 3619.86 1993.81 3631.68C1981.7 3643.49 1965.39 3649.4 1944.88 3649.4C1933.46 3649.4 1922.27 3646.96 1911.34 3642.08C1900.4 3637.2 1892.05 3630.51 1886.29 3622.01L1900.35 3605.75C1911.97 3620.11 1926.18 3627.28 1942.98 3627.28C1956.16 3627.28 1966.41 3623.57 1973.74 3616.15C1981.16 3608.73 1984.87 3598.28 1984.87 3584.8V3571.18C1974.03 3583.68 1959.24 3589.93 1940.49 3589.93C1921.93 3589.93 1906.89 3582.46 1895.37 3567.52C1883.94 3552.58 1878.23 3532.21 1878.23 3506.43ZM1905.48 3509.51C1905.48 3527.38 1909.14 3541.44 1916.46 3551.7C1923.79 3561.85 1934.04 3566.93 1947.22 3566.93C1964.31 3566.93 1976.86 3559.17 1984.87 3543.64V3471.28C1976.57 3456.14 1964.12 3448.57 1947.52 3448.57C1934.33 3448.57 1924.03 3453.7 1916.61 3463.95C1909.19 3474.21 1905.48 3489.39 1905.48 3509.51ZM2082.58 3587H2055.48V3428.5H2082.58V3587ZM2053.28 3386.46C2053.28 3382.07 2054.6 3378.36 2057.23 3375.33C2059.97 3372.3 2063.97 3370.79 2069.25 3370.79C2074.52 3370.79 2078.52 3372.3 2081.26 3375.33C2083.99 3378.36 2085.36 3382.07 2085.36 3386.46C2085.36 3390.86 2083.99 3394.52 2081.26 3397.45C2078.52 3400.38 2074.52 3401.84 2069.25 3401.84C2063.97 3401.84 2059.97 3400.38 2057.23 3397.45C2054.6 3394.52 2053.28 3390.86 2053.28 3386.46ZM2151.72 3428.5L2152.6 3448.43C2164.71 3433.19 2180.53 3425.57 2200.06 3425.57C2233.55 3425.57 2250.45 3444.47 2250.74 3482.26V3587H2223.64V3482.12C2223.54 3470.69 2220.91 3462.24 2215.73 3456.78C2210.65 3451.31 2202.69 3448.57 2191.85 3448.57C2183.06 3448.57 2175.35 3450.92 2168.71 3455.6C2162.07 3460.29 2156.89 3466.44 2153.18 3474.06V3587H2126.08V3428.5H2151.72ZM2389.46 3587C2387.9 3583.88 2386.63 3578.31 2385.65 3570.3C2373.05 3583.39 2358.02 3589.93 2340.54 3589.93C2324.91 3589.93 2312.07 3585.54 2302.01 3576.75C2292.05 3567.86 2287.07 3556.63 2287.07 3543.05C2287.07 3526.55 2293.32 3513.76 2305.82 3504.68C2318.42 3495.5 2336.09 3490.91 2358.85 3490.91H2385.21V3478.46C2385.21 3468.98 2382.38 3461.46 2376.72 3455.9C2371.05 3450.23 2362.7 3447.4 2351.67 3447.4C2342 3447.4 2333.89 3449.84 2327.35 3454.72C2320.81 3459.61 2317.54 3465.52 2317.54 3472.45H2290.29C2290.29 3464.54 2293.07 3456.92 2298.64 3449.6C2304.3 3442.18 2311.92 3436.32 2321.49 3432.02C2331.16 3427.72 2341.76 3425.57 2353.28 3425.57C2371.54 3425.57 2385.85 3430.16 2396.2 3439.34C2406.55 3448.43 2411.92 3460.97 2412.31 3476.99V3549.94C2412.31 3564.49 2414.17 3576.06 2417.88 3584.66V3587H2389.46ZM2344.49 3566.35C2352.99 3566.35 2361.04 3564.15 2368.66 3559.75C2376.28 3555.36 2381.79 3549.65 2385.21 3542.62V3510.1H2363.97C2330.77 3510.1 2314.17 3519.81 2314.17 3539.25C2314.17 3547.74 2317 3554.38 2322.66 3559.17C2328.33 3563.95 2335.6 3566.35 2344.49 3566.35ZM2579.45 3519.76L2583.55 3547.89L2589.56 3522.55L2631.75 3373.72H2655.48L2696.64 3522.55L2702.5 3548.33L2707.04 3519.62L2740.14 3373.72H2768.42L2716.71 3587H2691.07L2647.13 3431.58L2643.76 3415.32L2640.39 3431.58L2594.83 3587H2569.2L2517.63 3373.72H2545.76L2579.45 3519.76ZM2856.6 3589.93C2835.12 3589.93 2817.63 3582.9 2804.16 3568.84C2790.68 3554.68 2783.94 3535.78 2783.94 3512.15V3507.17C2783.94 3491.44 2786.92 3477.43 2792.88 3465.12C2798.93 3452.72 2807.33 3443.05 2818.07 3436.12C2828.91 3429.09 2840.63 3425.57 2853.23 3425.57C2873.84 3425.57 2889.85 3432.36 2901.28 3445.94C2912.7 3459.51 2918.42 3478.94 2918.42 3504.24V3515.52H2811.04C2811.43 3531.14 2815.97 3543.79 2824.67 3553.46C2833.46 3563.03 2844.59 3567.81 2858.06 3567.81C2867.63 3567.81 2875.74 3565.86 2882.38 3561.95C2889.02 3558.04 2894.83 3552.87 2899.81 3546.42L2916.37 3559.31C2903.08 3579.72 2883.16 3589.93 2856.6 3589.93ZM2853.23 3447.84C2842.29 3447.84 2833.11 3451.84 2825.69 3459.85C2818.27 3467.76 2813.68 3478.89 2811.92 3493.25H2891.32V3491.2C2890.54 3477.43 2886.82 3466.79 2880.18 3459.27C2873.54 3451.65 2864.56 3447.84 2853.23 3447.84ZM3084.09 3509.51C3084.09 3533.73 3078.52 3553.21 3067.39 3567.96C3056.26 3582.61 3041.32 3589.93 3022.57 3589.93C3002.55 3589.93 2987.07 3582.85 2976.13 3568.69L2974.81 3587H2949.91V3362H2977.01V3445.94C2987.95 3432.36 3003.04 3425.57 3022.27 3425.57C3041.51 3425.57 3056.6 3432.85 3067.54 3447.4C3078.57 3461.95 3084.09 3481.87 3084.09 3507.17V3509.51ZM3056.99 3506.43C3056.99 3487.98 3053.43 3473.72 3046.3 3463.66C3039.17 3453.6 3028.91 3448.57 3015.54 3448.57C2997.66 3448.57 2984.82 3456.87 2977.01 3473.47V3542.03C2985.31 3558.63 2998.25 3566.93 3015.83 3566.93C3028.82 3566.93 3038.92 3561.9 3046.15 3551.84C3053.38 3541.79 3056.99 3526.65 3056.99 3506.43ZM1086.48 3852.43C1086.48 3830.36 1089.41 3809.17 1095.27 3788.85C1101.23 3768.54 1110.07 3750.08 1121.79 3733.48C1133.5 3716.88 1145.66 3705.16 1158.26 3698.33L1163.83 3716.2C1149.57 3727.13 1137.85 3743.83 1128.67 3766.29C1119.59 3788.76 1114.61 3813.9 1113.73 3841.73L1113.58 3854.19C1113.58 3891.88 1120.47 3924.6 1134.24 3952.33C1142.54 3968.93 1152.4 3981.92 1163.83 3991.29L1158.26 4007.85C1145.27 4000.62 1132.87 3988.51 1121.05 3971.52C1098.01 3938.32 1086.48 3898.62 1086.48 3852.43ZM1358.21 3939H1329.94V3840.42H1222.42V3939H1194.29V3725.72H1222.42V3817.42H1329.94V3725.72H1358.21V3939ZM1551.13 3748.86H1482.58V3939H1454.6V3748.86H1386.19V3725.72H1551.13V3748.86ZM1619.1 3725.72L1688.83 3899.74L1758.55 3725.72H1795.03V3939H1766.9V3855.94L1769.54 3766.29L1699.52 3939H1677.99L1608.11 3766.73L1610.9 3855.94V3939H1582.77V3725.72H1619.1ZM1872.96 3916H1974.03V3939H1844.69V3725.72H1872.96V3916ZM2153.91 3824.6H2213.39V3850.23H2153.91V3917.61H2126.67V3850.23H2067.2V3824.6H2126.67V3762.34H2153.91V3824.6ZM2482.04 3871.32C2479.4 3893.88 2471.05 3911.31 2456.99 3923.62C2443.03 3935.83 2424.42 3941.93 2401.18 3941.93C2375.98 3941.93 2355.77 3932.9 2340.54 3914.83C2325.4 3896.76 2317.83 3872.59 2317.83 3842.32V3821.81C2317.83 3801.99 2321.35 3784.56 2328.38 3769.52C2335.51 3754.48 2345.56 3742.96 2358.55 3734.95C2371.54 3726.84 2386.58 3722.79 2403.67 3722.79C2426.33 3722.79 2444.49 3729.14 2458.16 3741.83C2471.83 3754.43 2479.79 3771.91 2482.04 3794.27H2453.77C2451.33 3777.28 2446 3764.98 2437.8 3757.36C2429.7 3749.74 2418.32 3745.93 2403.67 3745.93C2385.7 3745.93 2371.59 3752.57 2361.34 3765.86C2351.18 3779.14 2346.1 3798.03 2346.1 3822.54V3843.2C2346.1 3866.34 2350.94 3884.75 2360.6 3898.42C2370.27 3912.1 2383.8 3918.93 2401.18 3918.93C2416.8 3918.93 2428.77 3915.42 2437.07 3908.38C2445.47 3901.26 2451.03 3888.9 2453.77 3871.32H2482.04ZM2583.41 3843.93C2559.29 3837 2541.71 3828.5 2530.67 3818.44C2519.73 3808.29 2514.27 3795.79 2514.27 3780.94C2514.27 3764.15 2520.96 3750.28 2534.33 3739.34C2547.81 3728.31 2565.29 3722.79 2586.78 3722.79C2601.42 3722.79 2614.46 3725.62 2625.89 3731.29C2637.41 3736.95 2646.3 3744.76 2652.55 3754.72C2658.89 3764.68 2662.07 3775.57 2662.07 3787.39H2633.8C2633.8 3774.5 2629.7 3764.39 2621.49 3757.07C2613.29 3749.64 2601.72 3745.93 2586.78 3745.93C2572.91 3745.93 2562.07 3749.01 2554.26 3755.16C2546.54 3761.22 2542.68 3769.66 2542.68 3780.5C2542.68 3789.2 2546.35 3796.57 2553.67 3802.62C2561.09 3808.58 2573.64 3814.05 2591.32 3819.03C2609.09 3824.01 2622.96 3829.53 2632.92 3835.58C2642.98 3841.54 2650.4 3848.52 2655.18 3856.53C2660.07 3864.54 2662.51 3873.96 2662.51 3884.8C2662.51 3902.09 2655.77 3915.95 2642.29 3926.4C2628.82 3936.75 2610.8 3941.93 2588.24 3941.93C2573.59 3941.93 2559.92 3939.15 2547.22 3933.58C2534.53 3927.92 2524.71 3920.2 2517.78 3910.44C2510.95 3900.67 2507.53 3889.59 2507.53 3877.18H2535.8C2535.8 3890.07 2540.54 3900.28 2550.01 3907.8C2559.58 3915.22 2572.32 3918.93 2588.24 3918.93C2603.08 3918.93 2614.46 3915.9 2622.37 3909.85C2630.28 3903.79 2634.24 3895.54 2634.24 3885.09C2634.24 3874.64 2630.57 3866.59 2623.25 3860.92C2615.93 3855.16 2602.64 3849.5 2583.41 3843.93ZM2761.53 3843.93C2737.41 3837 2719.83 3828.5 2708.8 3818.44C2697.86 3808.29 2692.39 3795.79 2692.39 3780.94C2692.39 3764.15 2699.08 3750.28 2712.46 3739.34C2725.94 3728.31 2743.42 3722.79 2764.9 3722.79C2779.55 3722.79 2792.59 3725.62 2804.01 3731.29C2815.54 3736.95 2824.42 3744.76 2830.67 3754.72C2837.02 3764.68 2840.19 3775.57 2840.19 3787.39H2811.92C2811.92 3774.5 2807.82 3764.39 2799.62 3757.07C2791.41 3749.64 2779.84 3745.93 2764.9 3745.93C2751.03 3745.93 2740.19 3749.01 2732.38 3755.16C2724.67 3761.22 2720.81 3769.66 2720.81 3780.5C2720.81 3789.2 2724.47 3796.57 2731.79 3802.62C2739.22 3808.58 2751.77 3814.05 2769.44 3819.03C2787.21 3824.01 2801.08 3829.53 2811.04 3835.58C2821.1 3841.54 2828.52 3848.52 2833.31 3856.53C2838.19 3864.54 2840.63 3873.96 2840.63 3884.8C2840.63 3902.09 2833.89 3915.95 2820.42 3926.4C2806.94 3936.75 2788.92 3941.93 2766.37 3941.93C2751.72 3941.93 2738.04 3939.15 2725.35 3933.58C2712.65 3927.92 2702.84 3920.2 2695.91 3910.44C2689.07 3900.67 2685.65 3889.59 2685.65 3877.18H2713.92C2713.92 3890.07 2718.66 3900.28 2728.13 3907.8C2737.7 3915.22 2750.45 3918.93 2766.37 3918.93C2781.21 3918.93 2792.59 3915.9 2800.5 3909.85C2808.41 3903.79 2812.36 3895.54 2812.36 3885.09C2812.36 3874.64 2808.7 3866.59 2801.38 3860.92C2794.05 3855.16 2780.77 3849.5 2761.53 3843.93ZM3024.62 3824.6H3084.09V3850.23H3024.62V3917.61H2997.37V3850.23H2937.9V3824.6H2997.37V3762.34H3024.62V3824.6ZM3285.21 3725.72H3313.48V3876.74C3313.48 3897.15 3307.33 3913.12 3295.03 3924.64C3282.82 3936.17 3266.51 3941.93 3246.1 3941.93C3224.91 3941.93 3208.41 3936.51 3196.59 3925.67C3184.77 3914.83 3178.87 3899.64 3178.87 3880.11H3206.99C3206.99 3892.32 3210.31 3901.84 3216.95 3908.68C3223.69 3915.51 3233.41 3918.93 3246.1 3918.93C3257.72 3918.93 3267.1 3915.27 3274.23 3907.95C3281.45 3900.62 3285.12 3890.37 3285.21 3877.18V3725.72ZM3424.23 3843.93C3400.11 3837 3382.53 3828.5 3371.49 3818.44C3360.55 3808.29 3355.09 3795.79 3355.09 3780.94C3355.09 3764.15 3361.78 3750.28 3375.15 3739.34C3388.63 3728.31 3406.11 3722.79 3427.6 3722.79C3442.24 3722.79 3455.28 3725.62 3466.71 3731.29C3478.23 3736.95 3487.12 3744.76 3493.37 3754.72C3499.71 3764.68 3502.89 3775.57 3502.89 3787.39H3474.62C3474.62 3774.5 3470.52 3764.39 3462.31 3757.07C3454.11 3749.64 3442.54 3745.93 3427.6 3745.93C3413.73 3745.93 3402.89 3749.01 3395.08 3755.16C3387.36 3761.22 3383.5 3769.66 3383.5 3780.5C3383.5 3789.2 3387.17 3796.57 3394.49 3802.62C3401.91 3808.58 3414.46 3814.05 3432.14 3819.03C3449.91 3824.01 3463.78 3829.53 3473.74 3835.58C3483.8 3841.54 3491.22 3848.52 3496 3856.53C3500.89 3864.54 3503.33 3873.96 3503.33 3884.8C3503.33 3902.09 3496.59 3915.95 3483.11 3926.4C3469.64 3936.75 3451.62 3941.93 3429.06 3941.93C3414.41 3941.93 3400.74 3939.15 3388.04 3933.58C3375.35 3927.92 3365.54 3920.2 3358.6 3910.44C3351.77 3900.67 3348.35 3889.59 3348.35 3877.18H3376.62C3376.62 3890.07 3381.36 3900.28 3390.83 3907.8C3400.4 3915.22 3413.14 3918.93 3429.06 3918.93C3443.9 3918.93 3455.28 3915.9 3463.19 3909.85C3471.1 3903.79 3475.06 3895.54 3475.06 3885.09C3475.06 3874.64 3471.39 3866.59 3464.07 3860.92C3456.75 3855.16 3443.46 3849.5 3424.23 3843.93Z" fill="black"/>
<path d="M1407.44 5680H1508.52V5703H1379.17V5489.72H1407.44V5680ZM1529.17 5622.29C1529.17 5606.76 1532.2 5592.79 1538.25 5580.39C1544.4 5567.99 1552.9 5558.42 1563.74 5551.68C1574.68 5544.94 1587.13 5541.57 1601.09 5541.57C1622.68 5541.57 1640.11 5549.04 1653.39 5563.99C1666.77 5578.93 1673.46 5598.8 1673.46 5623.61V5625.51C1673.46 5640.94 1670.48 5654.81 1664.52 5667.11C1658.66 5679.32 1650.21 5688.84 1639.18 5695.68C1628.24 5702.51 1615.64 5705.93 1601.39 5705.93C1579.9 5705.93 1562.47 5698.46 1549.09 5683.52C1535.81 5668.58 1529.17 5648.8 1529.17 5624.19V5622.29ZM1556.42 5625.51C1556.42 5643.09 1560.47 5657.2 1568.57 5667.84C1576.78 5678.49 1587.71 5683.81 1601.39 5683.81C1615.16 5683.81 1626.09 5678.44 1634.2 5667.7C1642.3 5656.86 1646.36 5641.72 1646.36 5622.29C1646.36 5604.9 1642.21 5590.84 1633.91 5580.1C1625.7 5569.26 1614.77 5563.84 1601.09 5563.84C1587.71 5563.84 1576.92 5569.16 1568.72 5579.81C1560.52 5590.45 1556.42 5605.69 1556.42 5625.51ZM1771.02 5683.81C1780.68 5683.81 1789.13 5680.88 1796.36 5675.02C1803.58 5669.16 1807.59 5661.84 1808.37 5653.05H1834C1833.52 5662.13 1830.39 5670.77 1824.63 5678.98C1818.87 5687.18 1811.15 5693.72 1801.48 5698.61C1791.91 5703.49 1781.76 5705.93 1771.02 5705.93C1749.43 5705.93 1732.25 5698.75 1719.45 5684.4C1706.76 5669.94 1700.41 5650.22 1700.41 5625.22V5620.68C1700.41 5605.25 1703.24 5591.53 1708.91 5579.51C1714.57 5567.5 1722.68 5558.18 1733.22 5551.54C1743.87 5544.89 1756.42 5541.57 1770.87 5541.57C1788.64 5541.57 1803.39 5546.9 1815.11 5557.54C1826.92 5568.19 1833.22 5582 1834 5599H1808.37C1807.59 5588.74 1803.68 5580.34 1796.65 5573.8C1789.72 5567.16 1781.12 5563.84 1770.87 5563.84C1757.1 5563.84 1746.41 5568.82 1738.79 5578.78C1731.27 5588.64 1727.51 5602.95 1727.51 5621.7V5626.83C1727.51 5645.09 1731.27 5659.15 1738.79 5669.02C1746.31 5678.88 1757.05 5683.81 1771.02 5683.81ZM1962.32 5703C1960.76 5699.88 1959.49 5694.31 1958.52 5686.3C1945.92 5699.39 1930.88 5705.93 1913.4 5705.93C1897.77 5705.93 1884.93 5701.54 1874.87 5692.75C1864.91 5683.86 1859.93 5672.63 1859.93 5659.05C1859.93 5642.55 1866.18 5629.76 1878.68 5620.68C1891.28 5611.5 1908.96 5606.91 1931.71 5606.91H1958.08V5594.46C1958.08 5584.98 1955.24 5577.46 1949.58 5571.9C1943.92 5566.23 1935.57 5563.4 1924.53 5563.4C1914.86 5563.4 1906.76 5565.84 1900.21 5570.72C1893.67 5575.61 1890.4 5581.52 1890.4 5588.45H1863.15C1863.15 5580.54 1865.94 5572.92 1871.5 5565.6C1877.17 5558.18 1884.79 5552.32 1894.36 5548.02C1904.02 5543.72 1914.62 5541.57 1926.14 5541.57C1944.4 5541.57 1958.71 5546.16 1969.06 5555.34C1979.41 5564.43 1984.79 5576.97 1985.18 5592.99V5665.94C1985.18 5680.49 1987.03 5692.06 1990.74 5700.66V5703H1962.32ZM1917.35 5682.35C1925.85 5682.35 1933.91 5680.15 1941.52 5675.75C1949.14 5671.36 1954.66 5665.65 1958.08 5658.62V5626.1H1936.84C1903.63 5626.1 1887.03 5635.81 1887.03 5655.25C1887.03 5663.74 1889.86 5670.38 1895.53 5675.17C1901.19 5679.95 1908.47 5682.35 1917.35 5682.35ZM2057.1 5703H2030V5478H2057.1V5703ZM2242.11 5607.93C2217.99 5601 2200.41 5592.5 2189.38 5582.44C2178.44 5572.29 2172.97 5559.79 2172.97 5544.94C2172.97 5528.15 2179.66 5514.28 2193.04 5503.34C2206.51 5492.31 2223.99 5486.79 2245.48 5486.79C2260.13 5486.79 2273.16 5489.62 2284.59 5495.29C2296.11 5500.95 2305 5508.76 2311.25 5518.72C2317.6 5528.68 2320.77 5539.57 2320.77 5551.39H2292.5C2292.5 5538.5 2288.4 5528.39 2280.2 5521.07C2271.99 5513.64 2260.42 5509.93 2245.48 5509.93C2231.61 5509.93 2220.77 5513.01 2212.96 5519.16C2205.24 5525.22 2201.39 5533.66 2201.39 5544.5C2201.39 5553.2 2205.05 5560.57 2212.37 5566.62C2219.79 5572.58 2232.34 5578.05 2250.02 5583.03C2267.79 5588.01 2281.66 5593.53 2291.62 5599.58C2301.68 5605.54 2309.1 5612.52 2313.89 5620.53C2318.77 5628.54 2321.21 5637.96 2321.21 5648.8C2321.21 5666.09 2314.47 5679.95 2301 5690.4C2287.52 5700.75 2269.5 5705.93 2246.94 5705.93C2232.29 5705.93 2218.62 5703.15 2205.93 5697.58C2193.23 5691.92 2183.42 5684.2 2176.48 5674.44C2169.65 5664.67 2166.23 5653.59 2166.23 5641.18H2194.5C2194.5 5654.07 2199.24 5664.28 2208.71 5671.8C2218.28 5679.22 2231.03 5682.93 2246.94 5682.93C2261.79 5682.93 2273.16 5679.9 2281.07 5673.85C2288.98 5667.79 2292.94 5659.54 2292.94 5649.09C2292.94 5638.64 2289.28 5630.59 2281.95 5624.92C2274.63 5619.16 2261.35 5613.5 2242.11 5607.93ZM2389.91 5506.12V5544.5H2419.5V5565.45H2389.91V5663.74C2389.91 5670.09 2391.23 5674.88 2393.87 5678.1C2396.5 5681.22 2401 5682.79 2407.34 5682.79C2410.47 5682.79 2414.77 5682.2 2420.23 5681.03V5703C2413.11 5704.95 2406.17 5705.93 2399.43 5705.93C2387.32 5705.93 2378.19 5702.27 2372.04 5694.94C2365.89 5687.62 2362.81 5677.22 2362.81 5663.74V5565.45H2333.96V5544.5H2362.81V5506.12H2389.91ZM2441.18 5622.29C2441.18 5606.76 2444.21 5592.79 2450.26 5580.39C2456.42 5567.99 2464.91 5558.42 2475.75 5551.68C2486.69 5544.94 2499.14 5541.57 2513.11 5541.57C2534.69 5541.57 2552.12 5549.04 2565.4 5563.99C2578.78 5578.93 2585.47 5598.8 2585.47 5623.61V5625.51C2585.47 5640.94 2582.49 5654.81 2576.53 5667.11C2570.67 5679.32 2562.23 5688.84 2551.19 5695.68C2540.25 5702.51 2527.66 5705.93 2513.4 5705.93C2491.91 5705.93 2474.48 5698.46 2461.1 5683.52C2447.82 5668.58 2441.18 5648.8 2441.18 5624.19V5622.29ZM2468.43 5625.51C2468.43 5643.09 2472.48 5657.2 2480.59 5667.84C2488.79 5678.49 2499.73 5683.81 2513.4 5683.81C2527.17 5683.81 2538.11 5678.44 2546.21 5667.7C2554.32 5656.86 2558.37 5641.72 2558.37 5622.29C2558.37 5604.9 2554.22 5590.84 2545.92 5580.1C2537.71 5569.26 2526.78 5563.84 2513.11 5563.84C2499.73 5563.84 2488.94 5569.16 2480.73 5579.81C2472.53 5590.45 2468.43 5605.69 2468.43 5625.51ZM2696.06 5568.82C2691.96 5568.14 2687.52 5567.79 2682.73 5567.79C2664.96 5567.79 2652.9 5575.36 2646.55 5590.5V5703H2619.45V5544.5H2645.82L2646.26 5562.81C2655.15 5548.65 2667.74 5541.57 2684.05 5541.57C2689.33 5541.57 2693.33 5542.26 2696.06 5543.62V5568.82ZM2813.11 5703C2811.54 5699.88 2810.27 5694.31 2809.3 5686.3C2796.7 5699.39 2781.66 5705.93 2764.18 5705.93C2748.55 5705.93 2735.71 5701.54 2725.65 5692.75C2715.69 5683.86 2710.71 5672.63 2710.71 5659.05C2710.71 5642.55 2716.96 5629.76 2729.46 5620.68C2742.06 5611.5 2759.74 5606.91 2782.49 5606.91H2808.86V5594.46C2808.86 5584.98 2806.03 5577.46 2800.36 5571.9C2794.7 5566.23 2786.35 5563.4 2775.31 5563.4C2765.64 5563.4 2757.54 5565.84 2751 5570.72C2744.45 5575.61 2741.18 5581.52 2741.18 5588.45H2713.94C2713.94 5580.54 2716.72 5572.92 2722.29 5565.6C2727.95 5558.18 2735.57 5552.32 2745.14 5548.02C2754.8 5543.72 2765.4 5541.57 2776.92 5541.57C2795.19 5541.57 2809.49 5546.16 2819.84 5555.34C2830.2 5564.43 2835.57 5576.97 2835.96 5592.99V5665.94C2835.96 5680.49 2837.81 5692.06 2841.52 5700.66V5703H2813.11ZM2768.13 5682.35C2776.63 5682.35 2784.69 5680.15 2792.3 5675.75C2799.92 5671.36 2805.44 5665.65 2808.86 5658.62V5626.1H2787.62C2754.41 5626.1 2737.81 5635.81 2737.81 5655.25C2737.81 5663.74 2740.64 5670.38 2746.31 5675.17C2751.97 5679.95 2759.25 5682.35 2768.13 5682.35ZM2871.99 5622.43C2871.99 5597.73 2877.71 5578.1 2889.13 5563.55C2900.56 5548.9 2915.69 5541.57 2934.54 5541.57C2953.88 5541.57 2968.96 5548.41 2979.8 5562.08L2981.12 5544.5H3005.88V5699.19C3005.88 5719.7 2999.78 5735.86 2987.57 5747.68C2975.46 5759.49 2959.15 5765.4 2938.64 5765.4C2927.22 5765.4 2916.04 5762.96 2905.1 5758.08C2894.16 5753.2 2885.81 5746.51 2880.05 5738.01L2894.11 5721.75C2905.73 5736.11 2919.94 5743.28 2936.74 5743.28C2949.92 5743.28 2960.18 5739.57 2967.5 5732.15C2974.92 5724.73 2978.63 5714.28 2978.63 5700.8V5687.18C2967.79 5699.68 2953 5705.93 2934.25 5705.93C2915.69 5705.93 2900.65 5698.46 2889.13 5683.52C2877.71 5668.58 2871.99 5648.21 2871.99 5622.43ZM2899.24 5625.51C2899.24 5643.38 2902.9 5657.44 2910.22 5667.7C2917.55 5677.85 2927.8 5682.93 2940.99 5682.93C2958.08 5682.93 2970.62 5675.17 2978.63 5659.64V5587.28C2970.33 5572.14 2957.88 5564.57 2941.28 5564.57C2928.1 5564.57 2917.79 5569.7 2910.37 5579.95C2902.95 5590.21 2899.24 5605.39 2899.24 5625.51ZM3112.67 5705.93C3091.18 5705.93 3073.7 5698.9 3060.22 5684.84C3046.75 5670.68 3040.01 5651.78 3040.01 5628.15V5623.17C3040.01 5607.44 3042.99 5593.43 3048.95 5581.12C3055 5568.72 3063.4 5559.05 3074.14 5552.12C3084.98 5545.09 3096.7 5541.57 3109.3 5541.57C3129.9 5541.57 3145.92 5548.36 3157.34 5561.94C3168.77 5575.51 3174.48 5594.94 3174.48 5620.24V5631.52H3067.11C3067.5 5647.14 3072.04 5659.79 3080.73 5669.46C3089.52 5679.03 3100.65 5683.81 3114.13 5683.81C3123.7 5683.81 3131.81 5681.86 3138.45 5677.95C3145.09 5674.04 3150.9 5668.87 3155.88 5662.42L3172.43 5675.31C3159.15 5695.72 3139.23 5705.93 3112.67 5705.93ZM3109.3 5563.84C3098.36 5563.84 3089.18 5567.84 3081.76 5575.85C3074.34 5583.76 3069.75 5594.89 3067.99 5609.25H3147.38V5607.2C3146.6 5593.43 3142.89 5582.79 3136.25 5575.27C3129.61 5567.65 3120.62 5563.84 3109.3 5563.84ZM1597.14 5968.43C1597.14 5946.36 1600.07 5925.17 1605.93 5904.85C1611.88 5884.54 1620.72 5866.08 1632.44 5849.48C1644.16 5832.88 1656.32 5821.16 1668.92 5814.33L1674.48 5832.2C1660.22 5843.13 1648.51 5859.83 1639.33 5882.29C1630.24 5904.76 1625.26 5929.9 1624.38 5957.73L1624.24 5970.19C1624.24 6007.88 1631.12 6040.6 1644.89 6068.33C1653.19 6084.93 1663.06 6097.92 1674.48 6107.29L1668.92 6123.85C1655.93 6116.62 1643.53 6104.51 1631.71 6087.52C1608.66 6054.32 1597.14 6014.62 1597.14 5968.43ZM1741.28 5841.72L1811.01 6015.74L1880.73 5841.72H1917.21V6055H1889.08V5971.94L1891.72 5882.29L1821.7 6055H1800.17L1730.29 5882.73L1733.08 5971.94V6055H1704.95V5841.72H1741.28ZM2060.47 6055C2058.91 6051.88 2057.64 6046.31 2056.66 6038.3C2044.06 6051.39 2029.02 6057.93 2011.54 6057.93C1995.92 6057.93 1983.08 6053.54 1973.02 6044.75C1963.06 6035.86 1958.08 6024.63 1958.08 6011.05C1958.08 5994.55 1964.33 5981.76 1976.83 5972.68C1989.42 5963.5 2007.1 5958.91 2029.85 5958.91H2056.22V5946.46C2056.22 5936.98 2053.39 5929.46 2047.72 5923.9C2042.06 5918.23 2033.71 5915.4 2022.68 5915.4C2013.01 5915.4 2004.9 5917.84 1998.36 5922.72C1991.82 5927.61 1988.54 5933.52 1988.54 5940.45H1961.3C1961.3 5932.54 1964.08 5924.92 1969.65 5917.6C1975.31 5910.18 1982.93 5904.32 1992.5 5900.02C2002.17 5895.72 2012.76 5893.57 2024.29 5893.57C2042.55 5893.57 2056.86 5898.16 2067.21 5907.34C2077.56 5916.43 2082.93 5928.97 2083.32 5944.99V6017.94C2083.32 6032.49 2085.18 6044.06 2088.89 6052.66V6055H2060.47ZM2015.5 6034.35C2023.99 6034.35 2032.05 6032.15 2039.67 6027.75C2047.29 6023.36 2052.8 6017.65 2056.22 6010.62V5978.1H2034.98C2001.78 5978.1 1985.18 5987.81 1985.18 6007.25C1985.18 6015.74 1988.01 6022.38 1993.67 6027.17C1999.34 6031.95 2006.61 6034.35 2015.5 6034.35ZM2162.57 5858.12V5896.5H2192.16V5917.45H2162.57V6015.74C2162.57 6022.09 2163.89 6026.88 2166.52 6030.1C2169.16 6033.22 2173.65 6034.79 2180 6034.79C2183.12 6034.79 2187.42 6034.2 2192.89 6033.03V6055C2185.76 6056.95 2178.83 6057.93 2172.09 6057.93C2159.98 6057.93 2150.85 6054.27 2144.7 6046.94C2138.54 6039.62 2135.47 6029.22 2135.47 6015.74V5917.45H2106.61V5896.5H2135.47V5858.12H2162.57ZM2289.72 6057.93C2268.23 6057.93 2250.75 6050.9 2237.28 6036.84C2223.8 6022.68 2217.06 6003.78 2217.06 5980.15V5975.17C2217.06 5959.44 2220.04 5945.43 2226 5933.12C2232.05 5920.72 2240.45 5911.05 2251.19 5904.12C2262.03 5897.09 2273.75 5893.57 2286.35 5893.57C2306.95 5893.57 2322.97 5900.36 2334.39 5913.94C2345.82 5927.51 2351.53 5946.94 2351.53 5972.24V5983.52H2244.16C2244.55 5999.14 2249.09 6011.79 2257.78 6021.46C2266.57 6031.03 2277.71 6035.81 2291.18 6035.81C2300.75 6035.81 2308.86 6033.86 2315.5 6029.95C2322.14 6026.04 2327.95 6020.87 2332.93 6014.42L2349.48 6027.31C2336.2 6047.72 2316.28 6057.93 2289.72 6057.93ZM2286.35 5915.84C2275.41 5915.84 2266.23 5919.84 2258.81 5927.85C2251.39 5935.76 2246.8 5946.89 2245.04 5961.25H2324.43V5959.2C2323.65 5945.43 2319.94 5934.79 2313.3 5927.27C2306.66 5919.65 2297.68 5915.84 2286.35 5915.84ZM2299.53 5830H2332.34L2293.09 5873.07H2271.26L2299.53 5830ZM2459.64 5920.82C2455.54 5920.14 2451.09 5919.79 2446.31 5919.79C2428.54 5919.79 2416.47 5927.36 2410.13 5942.5V6055H2383.03V5896.5H2409.39L2409.83 5914.81C2418.72 5900.65 2431.32 5893.57 2447.63 5893.57C2452.9 5893.57 2456.9 5894.26 2459.64 5895.62V5920.82ZM2514.13 6055H2487.03V5896.5H2514.13V6055ZM2484.83 5854.46C2484.83 5850.07 2486.15 5846.36 2488.79 5843.33C2491.52 5840.3 2495.53 5838.79 2500.8 5838.79C2506.07 5838.79 2510.08 5840.3 2512.81 5843.33C2515.55 5846.36 2516.91 5850.07 2516.91 5854.46C2516.91 5858.86 2515.55 5862.52 2512.81 5865.45C2510.08 5868.38 2506.07 5869.84 2500.8 5869.84C2495.53 5869.84 2491.52 5868.38 2488.79 5865.45C2486.15 5862.52 2484.83 5858.86 2484.83 5854.46ZM2655.49 6055C2653.93 6051.88 2652.66 6046.31 2651.68 6038.3C2639.08 6051.39 2624.04 6057.93 2606.56 6057.93C2590.94 6057.93 2578.1 6053.54 2568.04 6044.75C2558.08 6035.86 2553.1 6024.63 2553.1 6011.05C2553.1 5994.55 2559.35 5981.76 2571.85 5972.68C2584.44 5963.5 2602.12 5958.91 2624.87 5958.91H2651.24V5946.46C2651.24 5936.98 2648.41 5929.46 2642.74 5923.9C2637.08 5918.23 2628.73 5915.4 2617.7 5915.4C2608.03 5915.4 2599.92 5917.84 2593.38 5922.72C2586.84 5927.61 2583.56 5933.52 2583.56 5940.45H2556.32C2556.32 5932.54 2559.1 5924.92 2564.67 5917.6C2570.33 5910.18 2577.95 5904.32 2587.52 5900.02C2597.19 5895.72 2607.78 5893.57 2619.31 5893.57C2637.57 5893.57 2651.88 5898.16 2662.23 5907.34C2672.58 5916.43 2677.95 5928.97 2678.34 5944.99V6017.94C2678.34 6032.49 2680.2 6044.06 2683.91 6052.66V6055H2655.49ZM2610.52 6034.35C2619.01 6034.35 2627.07 6032.15 2634.69 6027.75C2642.3 6023.36 2647.82 6017.65 2651.24 6010.62V5978.1H2630C2596.8 5978.1 2580.2 5987.81 2580.2 6007.25C2580.2 6015.74 2583.03 6022.38 2588.69 6027.17C2594.36 6031.95 2601.63 6034.35 2610.52 6034.35ZM2813.11 6012.96C2813.11 6005.63 2810.32 5999.97 2804.76 5995.97C2799.29 5991.87 2789.67 5988.35 2775.9 5985.42C2762.23 5982.49 2751.34 5978.97 2743.23 5974.87C2735.22 5970.77 2729.27 5965.89 2725.36 5960.22C2721.55 5954.56 2719.65 5947.82 2719.65 5940.01C2719.65 5927.02 2725.12 5916.04 2736.05 5907.05C2747.09 5898.07 2761.15 5893.57 2778.24 5893.57C2796.21 5893.57 2810.76 5898.21 2821.89 5907.49C2833.12 5916.77 2838.74 5928.63 2838.74 5943.09H2811.49C2811.49 5935.66 2808.32 5929.27 2801.97 5923.9C2795.72 5918.53 2787.81 5915.84 2778.24 5915.84C2768.38 5915.84 2760.66 5917.99 2755.1 5922.29C2749.53 5926.58 2746.75 5932.2 2746.75 5939.13C2746.75 5945.67 2749.34 5950.61 2754.51 5953.93C2759.69 5957.25 2769.01 5960.42 2782.49 5963.45C2796.06 5966.47 2807.05 5970.09 2815.45 5974.29C2823.85 5978.49 2830.05 5983.56 2834.05 5989.52C2838.15 5995.38 2840.21 6002.56 2840.21 6011.05C2840.21 6025.21 2834.54 6036.59 2823.21 6045.19C2811.88 6053.68 2797.19 6057.93 2779.12 6057.93C2766.43 6057.93 2755.2 6055.68 2745.43 6051.19C2735.66 6046.7 2728 6040.45 2722.43 6032.44C2716.96 6024.34 2714.23 6015.6 2714.23 6006.22H2741.33C2741.82 6015.3 2745.43 6022.53 2752.17 6027.9C2759 6033.17 2767.99 6035.81 2779.12 6035.81C2789.38 6035.81 2797.58 6033.76 2803.73 6029.66C2809.98 6025.46 2813.11 6019.89 2813.11 6012.96ZM2938.06 5969.89C2938.06 5991.67 2935.18 6012.57 2929.41 6032.59C2923.75 6052.51 2915.01 6070.92 2903.19 6087.81C2891.47 6104.71 2879.17 6116.72 2866.28 6123.85L2860.57 6107.29C2875.61 6095.77 2887.67 6077.9 2896.75 6053.68C2905.93 6029.37 2910.62 6002.41 2910.81 5972.82V5968.13C2910.81 5947.63 2908.66 5928.58 2904.37 5911.01C2900.07 5893.33 2894.06 5877.51 2886.35 5863.54C2878.73 5849.58 2870.14 5838.69 2860.57 5830.88L2866.28 5814.33C2879.17 5821.46 2891.43 5833.37 2903.05 5850.07C2914.77 5866.77 2923.51 5885.18 2929.27 5905.29C2935.13 5925.41 2938.06 5946.94 2938.06 5969.89Z" fill="black"/>
<path d="M2314.5 1845C2040.98 1845 1819 2066.98 1819 2340.5C1819 2614.02 2040.98 2836 2314.5 2836C2588.02 2836 2810 2614.02 2810 2340.5C2810 2066.98 2588.02 1845 2314.5 1845ZM2264.95 2733.43C2069.23 2709.15 1918.1 2542.66 1918.1 2340.5C1918.1 2309.78 1922.06 2280.54 1928.51 2251.81L2165.85 2489.15V2538.7C2165.85 2593.21 2210.45 2637.8 2264.95 2637.8V2733.43ZM2606.84 2607.57C2593.96 2567.44 2557.29 2538.7 2512.7 2538.7H2463.15V2390.05C2463.15 2362.8 2440.85 2340.5 2413.6 2340.5H2116.3V2241.4H2215.4C2242.65 2241.4 2264.95 2219.1 2264.95 2191.85V2092.75H2364.05C2418.55 2092.75 2463.15 2048.15 2463.15 1993.65V1973.33C2608.33 2032.3 2710.9 2174.51 2710.9 2340.5C2710.9 2443.56 2671.26 2537.21 2606.84 2607.57Z" fill="black"/>
<path d="M10287.1 1282H10260.7V1189.99H10160.4V1282H10134.1V1082.94H10160.4V1168.52H10260.7V1082.94H10287.1V1282ZM10323.1 1206.67C10323.1 1192.18 10325.9 1179.14 10331.5 1167.57C10337.3 1155.99 10345.2 1147.06 10355.3 1140.77C10365.5 1134.48 10377.1 1131.34 10390.2 1131.34C10410.3 1131.34 10426.6 1138.31 10439 1152.25C10451.5 1166.2 10457.7 1184.75 10457.7 1207.9V1209.68C10457.7 1224.08 10454.9 1237.02 10449.4 1248.5C10443.9 1259.9 10436 1268.78 10425.7 1275.16C10415.5 1281.54 10403.8 1284.73 10390.5 1284.73C10370.4 1284.73 10354.1 1277.76 10341.6 1263.82C10329.2 1249.87 10323.1 1231.41 10323.1 1208.45V1206.67ZM10348.5 1209.68C10348.5 1226.08 10352.3 1239.25 10359.8 1249.19C10367.5 1259.12 10377.7 1264.09 10390.5 1264.09C10403.3 1264.09 10413.5 1259.08 10421.1 1249.05C10428.6 1238.93 10432.4 1224.81 10432.4 1206.67C10432.4 1190.44 10428.6 1177.32 10420.8 1167.29C10413.1 1157.18 10402.9 1152.12 10390.2 1152.12C10377.7 1152.12 10367.6 1157.08 10360 1167.02C10352.3 1176.95 10348.5 1191.17 10348.5 1209.68ZM10575.6 1242.76C10575.6 1235.93 10573 1230.64 10567.8 1226.9C10562.7 1223.07 10553.7 1219.79 10540.8 1217.06C10528.1 1214.32 10517.9 1211.04 10510.4 1207.21C10502.9 1203.39 10497.3 1198.83 10493.7 1193.54C10490.1 1188.26 10488.3 1181.97 10488.3 1174.68C10488.3 1162.55 10493.4 1152.3 10503.7 1143.91C10514 1135.53 10527.1 1131.34 10543 1131.34C10559.8 1131.34 10573.4 1135.67 10583.8 1144.32C10594.3 1152.98 10599.5 1164.06 10599.5 1177.55H10574.1C10574.1 1170.62 10571.1 1164.65 10565.2 1159.64C10559.3 1154.62 10552 1152.12 10543 1152.12C10533.8 1152.12 10526.6 1154.12 10521.4 1158.13C10516.2 1162.14 10513.6 1167.38 10513.6 1173.86C10513.6 1179.96 10516.1 1184.57 10520.9 1187.66C10525.7 1190.76 10534.4 1193.73 10547 1196.55C10559.7 1199.38 10569.9 1202.75 10577.8 1206.67C10585.6 1210.59 10591.4 1215.33 10595.1 1220.89C10598.9 1226.36 10600.9 1233.05 10600.9 1240.98C10600.9 1254.2 10595.6 1264.82 10585 1272.84C10574.4 1280.77 10560.7 1284.73 10543.9 1284.73C10532 1284.73 10521.5 1282.64 10512.4 1278.45C10503.3 1274.25 10496.1 1268.42 10490.9 1260.95C10485.8 1253.38 10483.3 1245.22 10483.3 1236.47H10508.6C10509 1244.95 10512.4 1251.69 10518.7 1256.71C10525.1 1261.63 10533.5 1264.09 10543.9 1264.09C10553.4 1264.09 10561.1 1262.18 10566.8 1258.35C10572.7 1254.43 10575.6 1249.23 10575.6 1242.76ZM10758.8 1209.68C10758.8 1232.19 10753.6 1250.33 10743.3 1264.09C10733 1277.85 10719.1 1284.73 10701.5 1284.73C10683.5 1284.73 10669.4 1279.04 10659.1 1267.64V1338.88H10633.8V1134.07H10656.9L10658.1 1150.48C10668.4 1137.72 10682.8 1131.34 10701.1 1131.34C10718.9 1131.34 10732.9 1138.04 10743.2 1151.43C10753.6 1164.83 10758.8 1183.47 10758.8 1207.35V1209.68ZM10733.5 1206.8C10733.5 1190.12 10729.9 1176.95 10722.8 1167.29C10715.7 1157.63 10706 1152.8 10693.6 1152.8C10678.2 1152.8 10666.8 1159.59 10659.1 1173.17V1243.86C10666.7 1257.35 10678.2 1264.09 10693.8 1264.09C10706 1264.09 10715.6 1259.3 10722.7 1249.73C10729.9 1240.07 10733.5 1225.76 10733.5 1206.8ZM10852.4 1284.73C10832.4 1284.73 10816.1 1278.17 10803.5 1265.05C10790.9 1251.83 10784.6 1234.19 10784.6 1212.14V1207.49C10784.6 1192.81 10787.4 1179.73 10793 1168.25C10798.6 1156.67 10806.4 1147.65 10816.5 1141.18C10826.6 1134.62 10837.5 1131.34 10849.3 1131.34C10868.5 1131.34 10883.5 1137.67 10894.1 1150.34C10904.8 1163.01 10910.1 1181.15 10910.1 1204.75V1215.28H10809.9C10810.3 1229.86 10814.5 1241.67 10822.6 1250.69C10830.8 1259.62 10841.2 1264.09 10853.8 1264.09C10862.7 1264.09 10870.3 1262.27 10876.5 1258.62C10882.7 1254.98 10888.1 1250.14 10892.8 1244.13L10908.2 1256.16C10895.8 1275.21 10877.2 1284.73 10852.4 1284.73ZM10849.3 1152.12C10839.1 1152.12 10830.5 1155.85 10823.6 1163.33C10816.7 1170.71 10812.4 1181.1 10810.7 1194.5H10884.8V1192.59C10884.1 1179.73 10880.6 1169.8 10874.4 1162.78C10868.2 1155.67 10859.9 1152.12 10849.3 1152.12ZM10933.4 1206.8C10933.4 1184.11 10938.7 1165.88 10949.5 1152.12C10960.3 1138.26 10974.3 1131.34 10991.7 1131.34C11009.1 1131.34 11022.8 1137.26 11032.9 1149.11V1072H11058.2V1282H11034.9L11033.7 1266.14C11023.6 1278.54 11009.5 1284.73 10991.5 1284.73C10974.3 1284.73 10960.3 1277.72 10949.5 1263.68C10938.7 1249.64 10933.4 1231.32 10933.4 1208.72V1206.8ZM10958.7 1209.68C10958.7 1226.45 10962.1 1239.57 10969 1249.05C10976 1258.53 10985.5 1263.27 10997.8 1263.27C11013.8 1263.27 11025.5 1256.07 11032.9 1241.67V1173.72C11025.3 1159.77 11013.7 1152.8 10998 1152.8C10985.6 1152.8 10976 1157.59 10969 1167.16C10962.1 1176.73 10958.7 1190.9 10958.7 1209.68ZM11188.9 1282C11187.4 1279.08 11186.2 1273.89 11185.3 1266.41C11173.6 1278.63 11159.5 1284.73 11143.2 1284.73C11128.6 1284.73 11116.7 1280.63 11107.3 1272.43C11098 1264.14 11093.3 1253.65 11093.3 1240.98C11093.3 1225.58 11099.2 1213.64 11110.8 1205.16C11122.6 1196.6 11139.1 1192.31 11160.3 1192.31H11184.9V1180.69C11184.9 1171.85 11182.3 1164.83 11177 1159.64C11171.7 1154.35 11163.9 1151.71 11153.6 1151.71C11144.6 1151.71 11137 1153.99 11130.9 1158.54C11124.8 1163.1 11121.8 1168.61 11121.8 1175.09H11096.3C11096.3 1167.7 11098.9 1160.59 11104.1 1153.76C11109.4 1146.83 11116.5 1141.36 11125.5 1137.35C11134.5 1133.34 11144.4 1131.34 11155.1 1131.34C11172.2 1131.34 11185.5 1135.62 11195.2 1144.19C11204.8 1152.66 11209.9 1164.38 11210.2 1179.32V1247.41C11210.2 1260.99 11212 1271.79 11215.4 1279.81V1282H11188.9ZM11146.9 1262.72C11154.8 1262.72 11162.4 1260.67 11169.5 1256.57C11176.6 1252.47 11181.7 1247.14 11184.9 1240.57V1210.22H11165.1C11134.1 1210.22 11118.6 1219.29 11118.6 1237.43C11118.6 1245.36 11121.3 1251.56 11126.5 1256.02C11131.8 1260.49 11138.6 1262.72 11146.9 1262.72ZM11243.9 1206.8C11243.9 1183.74 11249.2 1165.42 11259.8 1151.84C11270.5 1138.17 11284.6 1131.34 11302.2 1131.34C11320.3 1131.34 11334.4 1137.72 11344.5 1150.48L11345.7 1134.07H11368.8V1278.45C11368.8 1297.59 11363.1 1312.67 11351.7 1323.7C11340.4 1334.73 11325.2 1340.24 11306.1 1340.24C11295.4 1340.24 11285 1337.96 11274.8 1333.41C11264.5 1328.85 11256.7 1322.61 11251.4 1314.68L11264.5 1299.5C11275.3 1312.9 11288.6 1319.6 11304.3 1319.6C11316.6 1319.6 11326.2 1316.13 11333 1309.21C11339.9 1302.28 11343.4 1292.53 11343.4 1279.95V1267.23C11333.3 1278.9 11319.5 1284.73 11302 1284.73C11284.6 1284.73 11270.6 1277.76 11259.8 1263.82C11249.2 1249.87 11243.9 1230.87 11243.9 1206.8ZM11269.3 1209.68C11269.3 1226.36 11272.7 1239.48 11279.5 1249.05C11286.4 1258.53 11295.9 1263.27 11308.2 1263.27C11324.2 1263.27 11335.9 1256.02 11343.4 1241.53V1173.99C11335.6 1159.86 11324 1152.8 11308.5 1152.8C11296.2 1152.8 11286.6 1157.59 11279.7 1167.16C11272.7 1176.73 11269.3 1190.9 11269.3 1209.68ZM11468.5 1284.73C11448.4 1284.73 11432.1 1278.17 11419.5 1265.05C11407 1251.83 11400.7 1234.19 11400.7 1212.14V1207.49C11400.7 1192.81 11403.4 1179.73 11409 1168.25C11414.7 1156.67 11422.5 1147.65 11432.5 1141.18C11442.6 1134.62 11453.6 1131.34 11465.3 1131.34C11484.6 1131.34 11499.5 1137.67 11510.2 1150.34C11520.8 1163.01 11526.2 1181.15 11526.2 1204.75V1215.28H11426C11426.3 1229.86 11430.6 1241.67 11438.7 1250.69C11446.9 1259.62 11457.3 1264.09 11469.8 1264.09C11478.8 1264.09 11486.3 1262.27 11492.5 1258.62C11498.7 1254.98 11504.2 1250.14 11508.8 1244.13L11524.3 1256.16C11511.9 1275.21 11493.3 1284.73 11468.5 1284.73ZM11465.3 1152.12C11455.1 1152.12 11446.6 1155.85 11439.6 1163.33C11432.7 1170.71 11428.4 1181.1 11426.8 1194.5H11500.9V1192.59C11500.2 1179.73 11496.7 1169.8 11490.5 1162.78C11484.3 1155.67 11475.9 1152.12 11465.3 1152.12ZM11579.4 1134.07L11580 1150.48C11590.9 1137.72 11605.5 1131.34 11623.9 1131.34C11644.6 1131.34 11658.7 1139.27 11666.2 1155.12C11671.1 1148.02 11677.5 1142.27 11685.3 1137.9C11693.2 1133.52 11702.6 1131.34 11713.3 1131.34C11745.8 1131.34 11762.3 1148.52 11762.8 1182.88V1282H11737.5V1184.38C11737.5 1173.81 11735.1 1165.93 11730.3 1160.73C11725.5 1155.44 11717.4 1152.8 11706 1152.8C11696.6 1152.8 11688.8 1155.63 11682.6 1161.28C11676.4 1166.84 11672.8 1174.36 11671.8 1183.84V1282H11646.4V1185.07C11646.4 1163.56 11635.8 1152.8 11614.8 1152.8C11598.2 1152.8 11586.8 1159.86 11580.7 1173.99V1282H11555.4V1134.07H11579.4ZM10599.5 1535.76H10532.8V1515.12H10599.5V1535.76ZM10694.1 1575.14L10751 1410.94H10779.7L10705.9 1610H10682.6L10608.9 1410.94H10637.5L10694.1 1575.14ZM10857.9 1612.73C10837.8 1612.73 10821.5 1606.17 10808.9 1593.05C10796.4 1579.83 10790.1 1562.19 10790.1 1540.14V1535.49C10790.1 1520.81 10792.9 1507.73 10798.4 1496.25C10804.1 1484.67 10811.9 1475.65 10821.9 1469.18C10832.1 1462.62 10843 1459.34 10854.8 1459.34C10874 1459.34 10888.9 1465.67 10899.6 1478.34C10910.3 1491.01 10915.6 1509.15 10915.6 1532.75V1543.28H10815.4C10815.7 1557.86 10820 1569.67 10828.1 1578.69C10836.3 1587.62 10846.7 1592.09 10859.3 1592.09C10868.2 1592.09 10875.8 1590.27 10882 1586.62C10888.2 1582.98 10893.6 1578.14 10898.2 1572.13L10913.7 1584.16C10901.3 1603.21 10882.7 1612.73 10857.9 1612.73ZM10854.8 1480.12C10844.5 1480.12 10836 1483.85 10829 1491.33C10822.1 1498.71 10817.8 1509.1 10816.2 1522.5H10890.3V1520.59C10889.6 1507.73 10886.1 1497.8 10879.9 1490.78C10873.7 1483.67 10865.3 1480.12 10854.8 1480.12ZM11016.5 1484.77C11012.7 1484.13 11008.5 1483.81 11004 1483.81C10987.5 1483.81 10976.2 1490.87 10970.3 1505V1610H10945V1462.07H10969.6L10970 1479.16C10978.3 1465.94 10990.1 1459.34 11005.3 1459.34C11010.2 1459.34 11013.9 1459.97 11016.5 1461.25V1484.77ZM11126 1570.76C11126 1563.93 11123.4 1558.64 11118.2 1554.9C11113.1 1551.07 11104.1 1547.79 11091.3 1545.06C11078.5 1542.32 11068.4 1539.04 11060.8 1535.21C11053.3 1531.39 11047.8 1526.83 11044.1 1521.54C11040.6 1516.26 11038.8 1509.97 11038.8 1502.68C11038.8 1490.55 11043.9 1480.3 11054.1 1471.91C11064.4 1463.53 11077.5 1459.34 11093.5 1459.34C11110.2 1459.34 11123.8 1463.67 11134.2 1472.32C11144.7 1480.98 11149.9 1492.06 11149.9 1505.55H11124.5C11124.5 1498.62 11121.5 1492.65 11115.6 1487.64C11109.8 1482.62 11102.4 1480.12 11093.5 1480.12C11084.3 1480.12 11077.1 1482.12 11071.9 1486.13C11066.7 1490.14 11064.1 1495.38 11064.1 1501.86C11064.1 1507.96 11066.5 1512.57 11071.3 1515.66C11076.1 1518.76 11084.8 1521.73 11097.4 1524.55C11110.1 1527.38 11120.3 1530.75 11128.2 1534.67C11136 1538.59 11141.8 1543.33 11145.6 1548.89C11149.4 1554.36 11151.3 1561.05 11151.3 1568.98C11151.3 1582.2 11146 1592.82 11135.4 1600.84C11124.9 1608.77 11111.1 1612.73 11094.3 1612.73C11082.4 1612.73 11072 1610.64 11062.8 1606.45C11053.7 1602.25 11046.6 1596.42 11041.4 1588.95C11036.3 1581.38 11033.7 1573.22 11033.7 1564.47H11059C11059.5 1572.95 11062.8 1579.69 11069.1 1584.71C11075.5 1589.63 11083.9 1592.09 11094.3 1592.09C11103.9 1592.09 11111.5 1590.18 11117.2 1586.35C11123.1 1582.43 11126 1577.23 11126 1570.76ZM11245.6 1612.73C11225.6 1612.73 11209.3 1606.17 11196.7 1593.05C11184.1 1579.83 11177.8 1562.19 11177.8 1540.14V1535.49C11177.8 1520.81 11180.6 1507.73 11186.2 1496.25C11191.8 1484.67 11199.6 1475.65 11209.7 1469.18C11219.8 1462.62 11230.7 1459.34 11242.5 1459.34C11261.7 1459.34 11276.7 1465.67 11287.3 1478.34C11298 1491.01 11303.3 1509.15 11303.3 1532.75V1543.28H11203.1C11203.5 1557.86 11207.7 1569.67 11215.8 1578.69C11224 1587.62 11234.4 1592.09 11247 1592.09C11255.9 1592.09 11263.5 1590.27 11269.7 1586.62C11275.9 1582.98 11281.3 1578.14 11286 1572.13L11301.4 1584.16C11289 1603.21 11270.4 1612.73 11245.6 1612.73ZM11242.5 1480.12C11232.3 1480.12 11223.7 1483.85 11216.8 1491.33C11209.9 1498.71 11205.6 1509.1 11203.9 1522.5H11278V1520.59C11277.3 1507.73 11273.8 1497.8 11267.6 1490.78C11261.4 1483.67 11253.1 1480.12 11242.5 1480.12ZM11360.2 1610H11334.9V1400H11360.2V1610Z" fill="white"/>
<path d="M9823.03 3466.05H9739.63L9720.9 3518H9693.83L9769.84 3318.94H9792.81L9868.96 3518H9842.03L9823.03 3466.05ZM9747.56 3444.45H9815.23L9781.33 3351.34L9747.56 3444.45ZM9922.01 3440.07V3518H9895.76V3318.94H9969.18C9990.96 3318.94 10008 3324.5 10020.3 3335.62C10032.7 3346.74 10038.9 3361.46 10038.9 3379.78C10038.9 3399.1 10032.8 3414 10020.7 3424.48C10008.7 3434.88 9991.42 3440.07 9968.91 3440.07H9922.01ZM9922.01 3418.61H9969.18C9983.22 3418.61 9993.97 3415.32 10001.4 3408.76C10008.9 3402.11 10012.7 3392.54 10012.7 3380.05C10012.7 3368.2 10008.9 3358.72 10001.4 3351.61C9993.97 3344.5 9983.72 3340.81 9970.68 3340.54H9922.01V3418.61ZM10100.6 3518H10074.3V3318.94H10100.6V3518ZM10208 3442.8C10208 3420.11 10213.4 3401.88 10224.2 3388.12C10234.9 3374.26 10249 3367.34 10266.4 3367.34C10283.7 3367.34 10297.4 3373.26 10307.6 3385.11V3308H10332.9V3518H10309.6L10308.4 3502.14C10298.3 3514.54 10284.2 3520.73 10266.1 3520.73C10249 3520.73 10235 3513.72 10224.2 3499.68C10213.4 3485.64 10208 3467.32 10208 3444.72V3442.8ZM10233.3 3445.68C10233.3 3462.45 10236.8 3475.57 10243.7 3485.05C10250.6 3494.53 10260.2 3499.27 10272.4 3499.27C10288.5 3499.27 10300.2 3492.07 10307.6 3477.67V3409.72C10300 3395.77 10288.4 3388.8 10272.7 3388.8C10260.3 3388.8 10250.6 3393.59 10243.7 3403.16C10236.8 3412.73 10233.3 3426.9 10233.3 3445.68ZM10433.6 3520.73C10413.6 3520.73 10397.2 3514.17 10384.7 3501.05C10372.1 3487.83 10365.8 3470.19 10365.8 3448.14V3443.49C10365.8 3428.81 10368.6 3415.73 10374.1 3404.25C10379.8 3392.67 10387.6 3383.65 10397.7 3377.18C10407.8 3370.62 10418.7 3367.34 10430.5 3367.34C10449.7 3367.34 10464.6 3373.67 10475.3 3386.34C10486 3399.01 10491.3 3417.15 10491.3 3440.75V3451.28H10391.1C10391.5 3465.86 10395.7 3477.67 10403.8 3486.69C10412 3495.62 10422.4 3500.09 10435 3500.09C10443.9 3500.09 10451.5 3498.27 10457.7 3494.62C10463.9 3490.98 10469.3 3486.14 10473.9 3480.13L10489.4 3492.16C10477 3511.21 10458.4 3520.73 10433.6 3520.73ZM10430.5 3388.12C10420.3 3388.12 10411.7 3391.85 10404.8 3399.33C10397.8 3406.71 10393.6 3417.1 10391.9 3430.5H10466V3428.59C10465.3 3415.73 10461.8 3405.8 10455.6 3398.78C10449.4 3391.67 10441 3388.12 10430.5 3388.12ZM10740.5 3454.84C10738.1 3475.89 10730.3 3492.16 10717.2 3503.64C10704.1 3515.04 10686.8 3520.73 10665.1 3520.73C10641.6 3520.73 10622.7 3512.3 10608.5 3495.44C10594.3 3478.58 10587.3 3456.02 10587.3 3427.77V3408.62C10587.3 3390.12 10590.6 3373.85 10597.1 3359.82C10603.8 3345.78 10613.2 3335.02 10625.3 3327.55C10637.4 3319.99 10651.5 3316.2 10667.4 3316.2C10688.5 3316.2 10705.5 3322.13 10718.3 3333.98C10731 3345.73 10738.5 3362.05 10740.5 3382.92H10714.2C10711.9 3367.06 10706.9 3355.58 10699.3 3348.47C10691.7 3341.36 10681.1 3337.8 10667.4 3337.8C10650.6 3337.8 10637.5 3344 10627.9 3356.4C10618.4 3368.79 10613.7 3386.43 10613.7 3409.31V3428.59C10613.7 3450.19 10618.2 3467.37 10627.2 3480.13C10636.2 3492.89 10648.9 3499.27 10665.1 3499.27C10679.7 3499.27 10690.8 3495.99 10698.6 3489.43C10706.4 3482.77 10711.6 3471.24 10714.2 3454.84H10740.5ZM10765.8 3442.67C10765.8 3428.18 10768.7 3415.14 10774.3 3403.57C10780.1 3391.99 10788 3383.06 10798.1 3376.77C10808.3 3370.48 10819.9 3367.34 10833 3367.34C10853.1 3367.34 10869.4 3374.31 10881.8 3388.25C10894.3 3402.2 10900.5 3420.75 10900.5 3443.9V3445.68C10900.5 3460.08 10897.7 3473.02 10892.2 3484.5C10886.7 3495.9 10878.8 3504.78 10868.5 3511.16C10858.3 3517.54 10846.5 3520.73 10833.2 3520.73C10813.2 3520.73 10796.9 3513.76 10784.4 3499.82C10772 3485.87 10765.8 3467.41 10765.8 3444.45V3442.67ZM10791.3 3445.68C10791.3 3462.08 10795.1 3475.25 10802.6 3485.19C10810.3 3495.12 10820.5 3500.09 10833.2 3500.09C10846.1 3500.09 10856.3 3495.08 10863.9 3485.05C10871.4 3474.93 10875.2 3460.81 10875.2 3442.67C10875.2 3426.44 10871.3 3413.32 10863.6 3403.29C10855.9 3393.18 10845.7 3388.12 10833 3388.12C10820.5 3388.12 10810.4 3393.08 10802.8 3403.02C10795.1 3412.95 10791.3 3427.17 10791.3 3445.68ZM10956 3370.07L10956.7 3386.48C10967.5 3373.72 10982.2 3367.34 11000.6 3367.34C11021.3 3367.34 11035.4 3375.27 11042.8 3391.12C11047.8 3384.02 11054.1 3378.27 11062 3373.9C11069.9 3369.52 11079.2 3367.34 11090 3367.34C11122.4 3367.34 11138.9 3384.52 11139.5 3418.88V3518H11114.2V3420.38C11114.2 3409.81 11111.8 3401.93 11107 3396.73C11102.1 3391.44 11094 3388.8 11082.6 3388.8C11073.2 3388.8 11065.4 3391.63 11059.2 3397.28C11053 3402.84 11049.4 3410.36 11048.4 3419.84V3518H11023V3421.07C11023 3399.56 11012.5 3388.8 10991.4 3388.8C10974.8 3388.8 10963.5 3395.86 10957.4 3409.99V3518H10932.1V3370.07H10956ZM11239.2 3520.73C11219.1 3520.73 11202.8 3514.17 11190.2 3501.05C11177.6 3487.83 11171.3 3470.19 11171.3 3448.14V3443.49C11171.3 3428.81 11174.1 3415.73 11179.7 3404.25C11185.3 3392.67 11193.2 3383.65 11203.2 3377.18C11213.3 3370.62 11224.3 3367.34 11236 3367.34C11255.2 3367.34 11270.2 3373.67 11280.9 3386.34C11291.5 3399.01 11296.9 3417.15 11296.9 3440.75V3451.28H11196.6C11197 3465.86 11201.2 3477.67 11209.4 3486.69C11217.6 3495.62 11227.9 3500.09 11240.5 3500.09C11249.5 3500.09 11257 3498.27 11263.2 3494.62C11269.4 3490.98 11274.8 3486.14 11279.5 3480.13L11294.9 3492.16C11282.5 3511.21 11264 3520.73 11239.2 3520.73ZM11236 3388.12C11225.8 3388.12 11217.2 3391.85 11210.3 3399.33C11203.4 3406.71 11199.1 3417.1 11197.5 3430.5H11271.6V3428.59C11270.8 3415.73 11267.4 3405.8 11261.2 3398.78C11255 3391.67 11246.6 3388.12 11236 3388.12ZM11350.2 3370.07L11351 3388.66C11362.3 3374.45 11377.1 3367.34 11395.3 3367.34C11426.6 3367.34 11442.3 3384.97 11442.6 3420.25V3518H11417.3V3420.11C11417.2 3409.45 11414.8 3401.56 11409.9 3396.46C11405.2 3391.35 11397.8 3388.8 11387.6 3388.8C11379.4 3388.8 11372.2 3390.99 11366 3395.36C11359.8 3399.74 11355 3405.48 11351.5 3412.59V3518H11326.2V3370.07H11350.2ZM11515.1 3334.25V3370.07H11542.7V3389.62H11515.1V3481.36C11515.1 3487.28 11516.3 3491.75 11518.8 3494.76C11521.2 3497.67 11525.4 3499.13 11531.3 3499.13C11534.2 3499.13 11538.3 3498.59 11543.4 3497.49V3518C11536.7 3519.82 11530.2 3520.73 11523.9 3520.73C11512.6 3520.73 11504.1 3517.32 11498.4 3510.48C11492.6 3503.64 11489.8 3493.94 11489.8 3481.36V3389.62H11462.8V3370.07H11489.8V3334.25H11515.1ZM11663.7 3518C11662.2 3515.08 11661 3509.89 11660.1 3502.41C11648.4 3514.63 11634.3 3520.73 11618 3520.73C11603.4 3520.73 11591.4 3516.63 11582.1 3508.43C11572.8 3500.14 11568.1 3489.65 11568.1 3476.98C11568.1 3461.58 11573.9 3449.64 11585.6 3441.16C11597.4 3432.6 11613.9 3428.31 11635.1 3428.31H11659.7V3416.69C11659.7 3407.85 11657.1 3400.83 11651.8 3395.64C11646.5 3390.35 11638.7 3387.71 11628.4 3387.71C11619.4 3387.71 11611.8 3389.99 11605.7 3394.54C11599.6 3399.1 11596.5 3404.61 11596.5 3411.09H11571.1C11571.1 3403.7 11573.7 3396.59 11578.9 3389.76C11584.2 3382.83 11591.3 3377.36 11600.2 3373.35C11609.3 3369.34 11619.1 3367.34 11629.9 3367.34C11646.9 3367.34 11660.3 3371.62 11670 3380.19C11679.6 3388.66 11684.6 3400.38 11685 3415.32V3483.41C11685 3496.99 11686.7 3507.79 11690.2 3515.81V3518H11663.7ZM11621.7 3498.72C11629.6 3498.72 11637.1 3496.67 11644.3 3492.57C11651.4 3488.47 11656.5 3483.14 11659.7 3476.57V3446.22H11639.9C11608.9 3446.22 11593.4 3455.29 11593.4 3473.43C11593.4 3481.36 11596 3487.56 11601.3 3492.02C11606.6 3496.49 11613.4 3498.72 11621.7 3498.72ZM11645.1 3308H11675.7L11639.1 3348.2H11618.7L11645.1 3308ZM11796.2 3392.77C11792.3 3392.13 11788.2 3391.81 11783.7 3391.81C11767.1 3391.81 11755.9 3398.87 11749.9 3413V3518H11724.6V3370.07H11749.3L11749.7 3387.16C11758 3373.94 11769.7 3367.34 11784.9 3367.34C11789.9 3367.34 11793.6 3367.97 11796.2 3369.25V3392.77ZM11847 3518H11821.7V3370.07H11847V3518ZM11819.7 3330.83C11819.7 3326.73 11820.9 3323.27 11823.4 3320.44C11825.9 3317.62 11829.6 3316.2 11834.6 3316.2C11839.5 3316.2 11843.2 3317.62 11845.8 3320.44C11848.3 3323.27 11849.6 3326.73 11849.6 3330.83C11849.6 3334.93 11848.3 3338.35 11845.8 3341.09C11843.2 3343.82 11839.5 3345.19 11834.6 3345.19C11829.6 3345.19 11825.9 3343.82 11823.4 3341.09C11820.9 3338.35 11819.7 3334.93 11819.7 3330.83ZM11880.9 3442.67C11880.9 3428.18 11883.7 3415.14 11889.4 3403.57C11895.1 3391.99 11903.1 3383.06 11913.2 3376.77C11923.4 3370.48 11935 3367.34 11948 3367.34C11968.2 3367.34 11984.5 3374.31 11996.9 3388.25C12009.3 3402.2 12015.6 3420.75 12015.6 3443.9V3445.68C12015.6 3460.08 12012.8 3473.02 12007.2 3484.5C12001.8 3495.9 11993.9 3504.78 11983.6 3511.16C11973.4 3517.54 11961.6 3520.73 11948.3 3520.73C11928.3 3520.73 11912 3513.76 11899.5 3499.82C11887.1 3485.87 11880.9 3467.41 11880.9 3444.45V3442.67ZM11906.3 3445.68C11906.3 3462.08 11910.1 3475.25 11917.7 3485.19C11925.4 3495.12 11935.6 3500.09 11948.3 3500.09C11961.2 3500.09 11971.4 3495.08 11978.9 3485.05C11986.5 3474.93 11990.3 3460.81 11990.3 3442.67C11990.3 3426.44 11986.4 3413.32 11978.7 3403.29C11971 3393.18 11960.8 3388.12 11948 3388.12C11935.6 3388.12 11925.5 3393.08 11917.8 3403.02C11910.2 3412.95 11906.3 3427.17 11906.3 3445.68ZM12133.4 3478.76C12133.4 3471.93 12130.8 3466.64 12125.6 3462.9C12120.5 3459.07 12111.6 3455.79 12098.7 3453.06C12086 3450.32 12075.8 3447.04 12068.2 3443.21C12060.7 3439.39 12055.2 3434.83 12051.5 3429.54C12048 3424.26 12046.2 3417.97 12046.2 3410.68C12046.2 3398.55 12051.3 3388.3 12061.5 3379.91C12071.8 3371.53 12084.9 3367.34 12100.9 3367.34C12117.7 3367.34 12131.2 3371.67 12141.6 3380.32C12152.1 3388.98 12157.4 3400.06 12157.4 3413.55H12131.9C12131.9 3406.62 12129 3400.65 12123 3395.64C12117.2 3390.62 12109.8 3388.12 12100.9 3388.12C12091.7 3388.12 12084.5 3390.12 12079.3 3394.13C12074.1 3398.14 12071.5 3403.38 12071.5 3409.86C12071.5 3415.96 12073.9 3420.57 12078.8 3423.66C12083.6 3426.76 12092.3 3429.73 12104.9 3432.55C12117.5 3435.38 12127.8 3438.75 12135.6 3442.67C12143.5 3446.59 12149.3 3451.33 12153 3456.89C12156.8 3462.36 12158.7 3469.05 12158.7 3476.98C12158.7 3490.2 12153.4 3500.82 12142.9 3508.84C12132.3 3516.77 12118.6 3520.73 12101.7 3520.73C12089.9 3520.73 12079.4 3518.64 12070.3 3514.45C12061.2 3510.25 12054 3504.42 12048.8 3496.95C12043.7 3489.38 12041.2 3481.22 12041.2 3472.47H12066.4C12066.9 3480.95 12070.3 3487.69 12076.6 3492.71C12082.9 3497.63 12091.3 3500.09 12101.7 3500.09C12111.3 3500.09 12118.9 3498.18 12124.7 3494.35C12130.5 3490.43 12133.4 3485.23 12133.4 3478.76ZM10456.3 3771.76H10389.6V3751.12H10456.3V3771.76ZM10638 3846H10611.6V3753.99H10511.3V3846H10485V3646.94H10511.3V3732.52H10611.6V3646.94H10638V3846ZM10742.1 3848.73C10722 3848.73 10705.7 3842.17 10693.1 3829.05C10680.5 3815.83 10674.2 3798.19 10674.2 3776.14V3771.49C10674.2 3756.81 10677 3743.73 10682.6 3732.25C10688.2 3720.67 10696.1 3711.65 10706.1 3705.18C10716.2 3698.62 10727.1 3695.34 10738.9 3695.34C10758.1 3695.34 10773.1 3701.67 10783.8 3714.34C10794.4 3727.01 10799.7 3745.15 10799.7 3768.75V3779.28H10699.5C10699.9 3793.86 10704.1 3805.67 10712.2 3814.69C10720.4 3823.62 10730.8 3828.09 10743.4 3828.09C10752.4 3828.09 10759.9 3826.27 10766.1 3822.62C10772.3 3818.98 10777.7 3814.14 10782.4 3808.13L10797.8 3820.16C10785.4 3839.21 10766.8 3848.73 10742.1 3848.73ZM10738.9 3716.12C10728.7 3716.12 10720.1 3719.85 10713.2 3727.33C10706.3 3734.71 10702 3745.1 10700.4 3758.5H10774.5V3756.59C10773.7 3743.73 10770.3 3733.8 10764.1 3726.78C10757.9 3719.67 10749.5 3716.12 10738.9 3716.12ZM10900.6 3720.77C10896.8 3720.13 10892.7 3719.81 10888.2 3719.81C10871.6 3719.81 10860.4 3726.87 10854.4 3741V3846H10829.1V3698.07H10853.8L10854.2 3715.16C10862.5 3701.94 10874.2 3695.34 10889.4 3695.34C10894.4 3695.34 10898.1 3695.97 10900.6 3697.25V3720.77ZM10914.6 3770.67C10914.6 3756.18 10917.4 3743.14 10923.1 3731.57C10928.8 3719.99 10936.7 3711.06 10946.9 3704.77C10957.1 3698.48 10968.7 3695.34 10981.7 3695.34C11001.9 3695.34 11018.1 3702.31 11030.5 3716.25C11043 3730.2 11049.3 3748.75 11049.3 3771.9V3773.68C11049.3 3788.08 11046.5 3801.02 11040.9 3812.5C11035.4 3823.9 11027.6 3832.78 11017.3 3839.16C11007.1 3845.54 10995.3 3848.73 10982 3848.73C10961.9 3848.73 10945.7 3841.76 10933.2 3827.82C10920.8 3813.87 10914.6 3795.41 10914.6 3772.45V3770.67ZM10940 3773.68C10940 3790.08 10943.8 3803.25 10951.4 3813.19C10959 3823.12 10969.2 3828.09 10982 3828.09C10994.8 3828.09 11005.1 3823.08 11012.6 3813.05C11020.2 3802.93 11024 3788.81 11024 3770.67C11024 3754.44 11020.1 3741.32 11012.3 3731.29C11004.7 3721.18 10994.5 3716.12 10981.7 3716.12C10969.2 3716.12 10959.2 3721.08 10951.5 3731.02C10943.8 3740.95 10940 3755.17 10940 3773.68ZM11122.3 3777.5L11106.4 3794.05V3846H11081.1V3636H11106.4V3763.01L11119.9 3746.74L11166 3698.07H11196.8L11139.2 3759.87L11203.5 3846H11173.8L11122.3 3777.5ZM11314.2 3831.37C11304.4 3842.95 11289.9 3848.73 11270.9 3848.73C11255.1 3848.73 11243.1 3844.18 11234.8 3835.06C11226.6 3825.86 11222.4 3812.28 11222.3 3794.32V3698.07H11247.6V3793.64C11247.6 3816.06 11256.8 3827.27 11275 3827.27C11294.3 3827.27 11307.2 3820.07 11313.5 3805.67V3698.07H11338.8V3846H11314.8L11314.2 3831.37Z" fill="white"/>
<path d="M7305.78 3324.45C7238.77 2983.76 6940.19 2728 6581.5 2728C6296.71 2728 6049.38 2889.95 5926.2 3126.95C5629.59 3158.55 5399 3410.36 5399 3715.5C5399 4042.36 5664.08 4308 5990.25 4308H7271.29C7543.27 4308 7764 4086.8 7764 3814.25C7764 3553.55 7561.99 3342.22 7305.78 3324.45ZM7271.29 4110.5H5990.25C5772.47 4110.5 5596.08 3933.74 5596.08 3715.5C5596.08 3497.26 5772.47 3320.5 5990.25 3320.5H6060.21C6125.25 3092.39 6333.17 2925.5 6581.5 2925.5C6881.07 2925.5 7123.48 3168.43 7123.48 3468.62V3518H7271.29C7434.87 3518 7566.92 3650.33 7566.92 3814.25C7566.92 3978.18 7434.87 4110.5 7271.29 4110.5Z" fill="black"/>
<path d="M2216.82 5128.68C2226.59 5138.44 2242.41 5138.44 2252.18 5128.68L2411.28 4969.58C2421.04 4959.82 2421.04 4943.99 2411.28 4934.22C2401.51 4924.46 2385.68 4924.46 2375.92 4934.22L2234.5 5075.64L2093.08 4934.22C2083.32 4924.46 2067.49 4924.46 2057.72 4934.22C2047.96 4943.99 2047.96 4959.82 2057.72 4969.58L2216.82 5128.68ZM2209.5 4315V5111H2259.5V4315H2209.5Z" fill="black"/>
<path d="M9160.89 1604.7C9159.63 1590.95 9147.45 1580.84 9133.7 1582.11L8909.65 1602.78C8895.91 1604.05 8885.79 1616.23 8887.06 1629.98C8888.33 1643.72 8900.5 1653.84 8914.25 1652.57L9113.4 1634.19L9131.78 1833.35C9133.05 1847.09 9145.23 1857.21 9158.98 1855.94C9172.72 1854.67 9182.84 1842.5 9181.57 1828.75L9160.89 1604.7ZM7783.23 3273.98L9155.23 1622.98L9116.77 1591.02L7744.77 3242.02L7783.23 3273.98Z" fill="black"/>
<path d="M9275.68 3763.68C9285.44 3753.91 9285.44 3738.09 9275.68 3728.32L9116.58 3569.22C9106.82 3559.46 9090.99 3559.46 9081.22 3569.22C9071.46 3578.99 9071.46 3594.82 9081.22 3604.58L9222.64 3746L9081.22 3887.42C9071.46 3897.18 9071.46 3913.01 9081.22 3922.78C9090.99 3932.54 9106.82 3932.54 9116.58 3922.78L9275.68 3763.68ZM8018 3771H9258V3721H8018V3771Z" fill="black"/>
<path d="M10914.3 5184.68C10924.1 5194.44 10939.9 5194.44 10949.7 5184.68L11108.8 5025.58C11118.5 5015.82 11118.5 4999.99 11108.8 4990.22C11099 4980.46 11083.2 4980.46 11073.4 4990.22L10932 5131.64L10790.6 4990.22C10780.8 4980.46 10765 4980.46 10755.2 4990.22C10745.5 4999.99 10745.5 5015.82 10755.2 5025.58L10914.3 5184.68ZM10907 4489L10907 5167L10957 5167L10957 4489L10907 4489Z" fill="black"/>
<path d="M5159.68 3703.68C5169.44 3693.91 5169.44 3678.09 5159.68 3668.32L5000.58 3509.22C4990.82 3499.46 4974.99 3499.46 4965.22 3509.22C4955.46 3518.99 4955.46 3534.82 4965.22 3544.58L5106.64 3686L4965.22 3827.42C4955.46 3837.18 4955.46 3853.01 4965.22 3862.78C4974.99 3872.54 4990.82 3872.54 5000.58 3862.78L5159.68 3703.68ZM4101 3711H5142V3661H4101V3711Z" fill="black"/>
</svg>
